<?xml version="1.0" encoding="UTF-8"?><svg xmlns="http://www.w3.org/2000/svg" width="900" height="520" viewBox="0 0 900 520">
<defs>
  <linearGradient id="gPink" x1="0" y1="0" x2="1" y2="1">
    <stop offset="0%" stop-color="#ffd4e4"/><stop offset="100%" stop-color="#e56fa0"/>
  </linearGradient>
  <linearGradient id="gWood" x1="0" y1="0" x2="1" y2="1">
    <stop offset="0%" stop-color="#f5d4bd"/><stop offset="100%" stop-color="#d6a47a"/>
  </linearGradient>
  <linearGradient id="gBlue" x1="0" y1="0" x2="1" y2="1">
    <stop offset="0%" stop-color="#aee3ff"/><stop offset="100%" stop-color="#78c6ea"/>
  </linearGradient>
  <linearGradient id="gMint" x1="0" y1="0" x2="1" y2="1">
    <stop offset="0%" stop-color="#86d7c0"/><stop offset="100%" stop-color="#63b79e"/>
  </linearGradient>
  <linearGradient id="gLav" x1="0" y1="0" x2="1" y2="1">
    <stop offset="0%" stop-color="#c9b5ff"/><stop offset="100%" stop-color="#aa92ef"/>
  </linearGradient>
</defs>
<rect x="0" y="0" width="900" height="520" fill="#fff8fb"/><g><line x1="40" y1="40" x2="40" y2="480" stroke="#f0d9e4" stroke-width="1" opacity="0.55"/><line x1="80" y1="40" x2="80" y2="480" stroke="#f0d9e4" stroke-width="1" opacity="0.55"/><line x1="120" y1="40" x2="120" y2="480" stroke="#f0d9e4" stroke-width="1" opacity="0.55"/><line x1="160" y1="40" x2="160" y2="480" stroke="#f0d9e4" stroke-width="1" opacity="0.55"/><line x1="200" y1="40" x2="200" y2="480" stroke="#f0d9e4" stroke-width="1" opacity="0.55"/><line x1="240" y1="40" x2="240" y2="480" stroke="#f0d9e4" stroke-width="1" opacity="0.55"/><line x1="280" y1="40" x2="280" y2="480" stroke="#f0d9e4" stroke-width="1" opacity="0.55"/><line x1="320" y1="40" x2="320" y2="480" stroke="#f0d9e4" stroke-width="1" opacity="0.55"/><line x1="360" y1="40" x2="360" y2="480" stroke="#f0d9e4" stroke-width="1" opacity="0.55"/><line x1="400" y1="40" x2="400" y2="480" stroke="#f0d9e4" stroke-width="1" opacity="0.55"/><line x1="440" y1="40" x2="440" y2="480" stroke="#f0d9e4" stroke-width="1" opacity="0.55"/><line x1="480" y1="40" x2="480" y2="480" stroke="#f0d9e4" stroke-width="1" opacity="0.55"/><line x1="520" y1="40" x2="520" y2="480" stroke="#f0d9e4" stroke-width="1" opacity="0.55"/><line x1="560" y1="40" x2="560" y2="480" stroke="#f0d9e4" stroke-width="1" opacity="0.55"/><line x1="600" y1="40" x2="600" y2="480" stroke="#f0d9e4" stroke-width="1" opacity="0.55"/><line x1="640" y1="40" x2="640" y2="480" stroke="#f0d9e4" stroke-width="1" opacity="0.55"/><line x1="680" y1="40" x2="680" y2="480" stroke="#f0d9e4" stroke-width="1" opacity="0.55"/><line x1="720" y1="40" x2="720" y2="480" stroke="#f0d9e4" stroke-width="1" opacity="0.55"/><line x1="760" y1="40" x2="760" y2="480" stroke="#f0d9e4" stroke-width="1" opacity="0.55"/><line x1="800" y1="40" x2="800" y2="480" stroke="#f0d9e4" stroke-width="1" opacity="0.55"/><line x1="840" y1="40" x2="840" y2="480" stroke="#f0d9e4" stroke-width="1" opacity="0.55"/><line x1="880" y1="40" x2="880" y2="480" stroke="#f0d9e4" stroke-width="1" opacity="0.55"/><line x1="40" y1="40" x2="860" y2="40" stroke="#f0d9e4" stroke-width="1" opacity="0.55"/><line x1="40" y1="80" x2="860" y2="80" stroke="#f0d9e4" stroke-width="1" opacity="0.55"/><line x1="40" y1="120" x2="860" y2="120" stroke="#f0d9e4" stroke-width="1" opacity="0.55"/><line x1="40" y1="160" x2="860" y2="160" stroke="#f0d9e4" stroke-width="1" opacity="0.55"/><line x1="40" y1="200" x2="860" y2="200" stroke="#f0d9e4" stroke-width="1" opacity="0.55"/><line x1="40" y1="240" x2="860" y2="240" stroke="#f0d9e4" stroke-width="1" opacity="0.55"/><line x1="40" y1="280" x2="860" y2="280" stroke="#f0d9e4" stroke-width="1" opacity="0.55"/><line x1="40" y1="320" x2="860" y2="320" stroke="#f0d9e4" stroke-width="1" opacity="0.55"/><line x1="40" y1="360" x2="860" y2="360" stroke="#f0d9e4" stroke-width="1" opacity="0.55"/><line x1="40" y1="400" x2="860" y2="400" stroke="#f0d9e4" stroke-width="1" opacity="0.55"/><line x1="40" y1="440" x2="860" y2="440" stroke="#f0d9e4" stroke-width="1" opacity="0.55"/><line x1="40" y1="480" x2="860" y2="480" stroke="#f0d9e4" stroke-width="1" opacity="0.55"/></g><text x="450.0" y="34" font-family="Arial, sans-serif" font-size="26" font-weight="700" fill="#5c4352" text-anchor="middle">Белая подушка — вид сверху / TOP</text>
<g>
  <rect x="218" y="154" width="454" height="212" rx="64" fill="#ffffff" stroke="#2f2530" stroke-width="4"/>
  <rect x="236" y="172" width="418" height="176" rx="54" fill="none" stroke="#ead1dc" stroke-width="2" opacity="0.85"/>
  <path d="M 256 258 C 324 226, 414 300, 512 270 C 562 254, 602 252, 642 258" fill="none" stroke="#ead1dc" stroke-width="6" opacity="0.56"/>
  <path d="M 444 178 C 454 220, 454 300, 444 342" fill="none" stroke="#ead1dc" stroke-width="3" opacity="0.45"/>
  <path d="M 242 194 Q 262 206 280 194 M 610 326 Q 628 316 646 326" fill="none" stroke="#ffffff" stroke-width="4" opacity="0.25"/>
  <circle cx="444" cy="258" r="8" fill="#ead1dc" opacity="0.35"/>
</g>
<line x1="218" y1="410" x2="672" y2="410" stroke="#b98aa0" stroke-width="2"/><line x1="218" y1="402" x2="218" y2="418" stroke="#b98aa0" stroke-width="2"/><line x1="672" y1="402" x2="672" y2="418" stroke="#b98aa0" stroke-width="2"/><text x="445.0" y="398" font-family="Arial, sans-serif" font-size="18" fill="#5c4352" text-anchor="middle">ширина 0.62 м</text><line x1="180" y1="154" x2="180" y2="366" stroke="#b98aa0" stroke-width="2"/><line x1="172" y1="154" x2="188" y2="154" stroke="#b98aa0" stroke-width="2"/><line x1="172" y1="366" x2="188" y2="366" stroke="#b98aa0" stroke-width="2"/><text x="152" y="260.0" transform="rotate(-90 152 260.0)" font-family="Arial, sans-serif" font-size="18" fill="#5c4352" text-anchor="middle">длина 0.38 м</text></svg>