<?xml version="1.0" encoding="UTF-8"?>
<svg xmlns="http://www.w3.org/2000/svg" width="1400" height="980" viewBox="0 0 1400 980">

<defs>
  <linearGradient id="gPink" x1="0" y1="0" x2="1" y2="1">
    <stop offset="0%" stop-color="#ffd4e4"/><stop offset="100%" stop-color="#e56fa0"/>
  </linearGradient>
  <linearGradient id="gWood" x1="0" y1="0" x2="1" y2="1">
    <stop offset="0%" stop-color="#f5d4bd"/><stop offset="100%" stop-color="#d6a47a"/>
  </linearGradient>
  <linearGradient id="gBlue" x1="0" y1="0" x2="1" y2="1">
    <stop offset="0%" stop-color="#aee3ff"/><stop offset="100%" stop-color="#78c6ea"/>
  </linearGradient>
  <linearGradient id="gMint" x1="0" y1="0" x2="1" y2="1">
    <stop offset="0%" stop-color="#86d7c0"/><stop offset="100%" stop-color="#63b79e"/>
  </linearGradient>
  <linearGradient id="gLav" x1="0" y1="0" x2="1" y2="1">
    <stop offset="0%" stop-color="#c9b5ff"/><stop offset="100%" stop-color="#aa92ef"/>
  </linearGradient>
</defs>

<rect x="0" y="0" width="1400" height="980" fill="#fff8fb"/>
<text x="700" y="42" font-family="Arial, sans-serif" font-size="30" font-weight="700" fill="#5c4352" text-anchor="middle">Белая подушка — 3 ортографических SVG-вида</text>
<text x="700" y="72" font-family="Arial, sans-serif" font-size="17" fill="#5c4352" text-anchor="middle">Усилена детализация и характер форм по комнате-референсу. Чистый orthographic.</text>
<g transform="translate(160,120)"><text x="320" y="-18" font-family="Arial, sans-serif" font-size="22" font-weight="700" fill="#5c4352" text-anchor="middle">TOP</text>
<g>
  <rect x="218" y="154" width="454" height="212" rx="64" fill="#ffffff" stroke="#2f2530" stroke-width="4"/>
  <rect x="236" y="172" width="418" height="176" rx="54" fill="none" stroke="#ead1dc" stroke-width="2" opacity="0.85"/>
  <path d="M 256 258 C 324 226, 414 300, 512 270 C 562 254, 602 252, 642 258" fill="none" stroke="#ead1dc" stroke-width="6" opacity="0.56"/>
  <path d="M 444 178 C 454 220, 454 300, 444 342" fill="none" stroke="#ead1dc" stroke-width="3" opacity="0.45"/>
  <path d="M 242 194 Q 262 206 280 194 M 610 326 Q 628 316 646 326" fill="none" stroke="#ffffff" stroke-width="4" opacity="0.25"/>
  <circle cx="444" cy="258" r="8" fill="#ead1dc" opacity="0.35"/>
</g>
</g>
<g transform="translate(160,550)"><text x="320" y="-18" font-family="Arial, sans-serif" font-size="22" font-weight="700" fill="#5c4352" text-anchor="middle">SIDE</text>
<g>
  <line x1="100" y1="292" x2="800" y2="292" stroke="#b98aa0" stroke-width="3" stroke-dasharray="10 8"/>
  <path d="M 182 286 C 224 204, 590 204, 640 286 Z" fill="#ffffff" stroke="#2f2530" stroke-width="4"/>
  <path d="M 222 258 C 300 238, 412 238, 520 252 C 560 256, 594 260, 616 266" fill="none" stroke="#ead1dc" stroke-width="4" opacity="0.5"/>
  <path d="M 420 220 C 432 236, 434 254, 428 272" fill="none" stroke="#ead1dc" stroke-width="3" opacity="0.4"/>
</g>
</g>
<g transform="translate(880,550)"><text x="152" y="-18" font-family="Arial, sans-serif" font-size="22" font-weight="700" fill="#5c4352" text-anchor="middle">FRONT</text>
<g>
  <line x1="64" y1="292" x2="496" y2="292" stroke="#b98aa0" stroke-width="3" stroke-dasharray="10 8"/>
  <path d="M 140 286 C 176 218, 368 218, 420 286 Z" fill="#ffffff" stroke="#2f2530" stroke-width="4"/>
  <path d="M 182 256 C 232 240, 300 238, 362 252" fill="none" stroke="#ead1dc" stroke-width="4" opacity="0.5"/>
  <path d="M 278 228 C 286 242, 288 258, 282 272" fill="none" stroke="#ead1dc" stroke-width="3" opacity="0.4"/>
</g>
</g>
</svg>