<?xml version="1.0" encoding="UTF-8"?>
<svg xmlns="http://www.w3.org/2000/svg" width="1400" height="980" viewBox="0 0 1400 980">

<defs>
  <linearGradient id="gPink" x1="0" y1="0" x2="1" y2="1">
    <stop offset="0%" stop-color="#ffd4e4"/><stop offset="100%" stop-color="#e56fa0"/>
  </linearGradient>
  <linearGradient id="gWood" x1="0" y1="0" x2="1" y2="1">
    <stop offset="0%" stop-color="#f5d4bd"/><stop offset="100%" stop-color="#d6a47a"/>
  </linearGradient>
  <linearGradient id="gBlue" x1="0" y1="0" x2="1" y2="1">
    <stop offset="0%" stop-color="#aee3ff"/><stop offset="100%" stop-color="#78c6ea"/>
  </linearGradient>
  <linearGradient id="gMint" x1="0" y1="0" x2="1" y2="1">
    <stop offset="0%" stop-color="#86d7c0"/><stop offset="100%" stop-color="#63b79e"/>
  </linearGradient>
  <linearGradient id="gLav" x1="0" y1="0" x2="1" y2="1">
    <stop offset="0%" stop-color="#c9b5ff"/><stop offset="100%" stop-color="#aa92ef"/>
  </linearGradient>
</defs>

<rect x="0" y="0" width="1400" height="980" fill="#fff8fb"/>
<text x="700" y="42" font-family="Arial, sans-serif" font-size="30" font-weight="700" fill="#5c4352" text-anchor="middle">Игрушка на кровати — 3 ортографических SVG-вида</text>
<text x="700" y="72" font-family="Arial, sans-serif" font-size="17" fill="#5c4352" text-anchor="middle">Усилена детализация и характер форм по комнате-референсу. Чистый orthographic.</text>
<g transform="translate(160,120)"><text x="320" y="-18" font-family="Arial, sans-serif" font-size="22" font-weight="700" fill="#5c4352" text-anchor="middle">TOP</text>
<g>
  <ellipse cx="450" cy="252" rx="124" ry="92" fill="url(#gMint)" stroke="#2f2530" stroke-width="4"/>
  <circle cx="450" cy="162" r="60" fill="url(#gMint)" stroke="#2f2530" stroke-width="4"/>
  <ellipse cx="414" cy="102" rx="22" ry="42" fill="url(#gMint)" stroke="#2f2530" stroke-width="4"/>
  <ellipse cx="486" cy="102" rx="22" ry="42" fill="url(#gMint)" stroke="#2f2530" stroke-width="4"/>
  <ellipse cx="350" cy="240" rx="22" ry="16" fill="#86d7c0" stroke="#2f2530" stroke-width="3"/>
  <ellipse cx="550" cy="240" rx="22" ry="16" fill="#86d7c0" stroke="#2f2530" stroke-width="3"/>
  <ellipse cx="392" cy="276" rx="28" ry="26" fill="#86d7c0" stroke="#2f2530" stroke-width="3"/>
  <ellipse cx="508" cy="276" rx="28" ry="26" fill="#86d7c0" stroke="#2f2530" stroke-width="3"/>
  <circle cx="430" cy="156" r="6" fill="#2f2530"/><circle cx="470" cy="156" r="6" fill="#2f2530"/>
  <ellipse cx="450" cy="174" rx="10" ry="7" fill="#e56fa0"/>
  <path d="M 438 186 Q 450 198 462 186" fill="none" stroke="#e56fa0" stroke-width="3"/>
  <circle cx="410" cy="170" r="4" fill="#ffffff" opacity="0.4"/><circle cx="490" cy="170" r="4" fill="#ffffff" opacity="0.4"/>
</g>
</g>
<g transform="translate(160,550)"><text x="320" y="-18" font-family="Arial, sans-serif" font-size="22" font-weight="700" fill="#5c4352" text-anchor="middle">SIDE</text>
<g>
  <line x1="100" y1="292" x2="800" y2="292" stroke="#b98aa0" stroke-width="3" stroke-dasharray="10 8"/>
  <ellipse cx="452" cy="244" rx="122" ry="58" fill="url(#gMint)" stroke="#2f2530" stroke-width="4"/>
  <circle cx="452" cy="152" r="56" fill="url(#gMint)" stroke="#2f2530" stroke-width="4"/>
  <ellipse cx="418" cy="98" rx="20" ry="40" fill="url(#gMint)" stroke="#2f2530" stroke-width="4"/>
  <ellipse cx="486" cy="98" rx="20" ry="40" fill="url(#gMint)" stroke="#2f2530" stroke-width="4"/>
  <circle cx="434" cy="148" r="5" fill="#2f2530"/><circle cx="470" cy="148" r="5" fill="#2f2530"/>
  <ellipse cx="452" cy="166" rx="8" ry="6" fill="#e56fa0"/>
</g>
</g>
<g transform="translate(880,550)"><text x="152" y="-18" font-family="Arial, sans-serif" font-size="22" font-weight="700" fill="#5c4352" text-anchor="middle">FRONT</text>
<g>
  <line x1="64" y1="292" x2="496" y2="292" stroke="#b98aa0" stroke-width="3" stroke-dasharray="10 8"/>
  <ellipse cx="280" cy="246" rx="90" ry="62" fill="url(#gMint)" stroke="#2f2530" stroke-width="4"/>
  <circle cx="280" cy="150" r="56" fill="url(#gMint)" stroke="#2f2530" stroke-width="4"/>
  <ellipse cx="238" cy="96" rx="20" ry="40" fill="url(#gMint)" stroke="#2f2530" stroke-width="4"/>
  <ellipse cx="322" cy="96" rx="20" ry="40" fill="url(#gMint)" stroke="#2f2530" stroke-width="4"/>
  <circle cx="262" cy="146" r="5" fill="#2f2530"/><circle cx="298" cy="146" r="5" fill="#2f2530"/>
  <ellipse cx="280" cy="164" rx="8" ry="6" fill="#e56fa0"/>
</g>
</g>
</svg>