<?xml version="1.0" encoding="UTF-8"?>
<svg xmlns="http://www.w3.org/2000/svg" width="1400" height="980" viewBox="0 0 1400 980">

<defs>
  <linearGradient id="gPink" x1="0" y1="0" x2="1" y2="1">
    <stop offset="0%" stop-color="#ffd4e4"/><stop offset="100%" stop-color="#e56fa0"/>
  </linearGradient>
  <linearGradient id="gWood" x1="0" y1="0" x2="1" y2="1">
    <stop offset="0%" stop-color="#f5d4bd"/><stop offset="100%" stop-color="#d6a47a"/>
  </linearGradient>
  <linearGradient id="gBlue" x1="0" y1="0" x2="1" y2="1">
    <stop offset="0%" stop-color="#aee3ff"/><stop offset="100%" stop-color="#78c6ea"/>
  </linearGradient>
  <linearGradient id="gMint" x1="0" y1="0" x2="1" y2="1">
    <stop offset="0%" stop-color="#86d7c0"/><stop offset="100%" stop-color="#63b79e"/>
  </linearGradient>
  <linearGradient id="gLav" x1="0" y1="0" x2="1" y2="1">
    <stop offset="0%" stop-color="#c9b5ff"/><stop offset="100%" stop-color="#aa92ef"/>
  </linearGradient>
</defs>

<rect x="0" y="0" width="1400" height="980" fill="#fff8fb"/>
<text x="700" y="42" font-family="Arial, sans-serif" font-size="30" font-weight="700" fill="#5c4352" text-anchor="middle">Прикроватная тумбочка — 3 ортографических SVG-вида</text>
<text x="700" y="72" font-family="Arial, sans-serif" font-size="17" fill="#5c4352" text-anchor="middle">Усилена детализация и характер форм по комнате-референсу. Чистый orthographic.</text>
<g transform="translate(160,120)"><text x="320" y="-18" font-family="Arial, sans-serif" font-size="22" font-weight="700" fill="#5c4352" text-anchor="middle">TOP</text>
<g>
  <rect x="252" y="144" width="396" height="234" rx="24" fill="url(#gWood)" stroke="#2f2530" stroke-width="4"/>
  <rect x="266" y="158" width="368" height="206" rx="16" fill="none" stroke="#e8c09b" stroke-width="2" opacity="0.85"/>
  <rect x="278" y="178" width="344" height="74" rx="12" fill="#f5d4bd" opacity="0.55" stroke="#2f2530" stroke-width="2"/>
  <line x1="300" y1="270" x2="600" y2="270" stroke="#2f2530" stroke-width="2"/>
  <rect x="402" y="214" width="96" height="18" rx="8" fill="#fff2b2" stroke="#2f2530" stroke-width="2"/>
  <circle cx="450" cy="308" r="9" fill="#fff2b2" stroke="#2f2530" stroke-width="2"/>
  <circle cx="282" cy="174" r="4" fill="#ffffff" opacity="0.25"/><circle cx="618" cy="174" r="4" fill="#ffffff" opacity="0.25"/>
</g>
</g>
<g transform="translate(160,550)"><text x="320" y="-18" font-family="Arial, sans-serif" font-size="22" font-weight="700" fill="#5c4352" text-anchor="middle">SIDE</text>
<g>
  <line x1="100" y1="292" x2="800" y2="292" stroke="#b98aa0" stroke-width="3" stroke-dasharray="10 8"/>
  <rect x="260" y="126" width="322" height="158" rx="18" fill="url(#gWood)" stroke="#2f2530" stroke-width="4"/>
  <rect x="276" y="126" width="290" height="20" rx="8" fill="#e8c09b" stroke="#2f2530" stroke-width="2"/>
  <rect x="278" y="150" width="286" height="56" rx="12" fill="#f5d4bd" opacity="0.55" stroke="#2f2530" stroke-width="2"/>
  <line x1="286" y1="224" x2="558" y2="224" stroke="#2f2530" stroke-width="2"/>
  <rect x="392" y="170" width="58" height="14" rx="7" fill="#fff2b2" stroke="#2f2530" stroke-width="2"/>
  <circle cx="424" cy="250" r="8" fill="#fff2b2" stroke="#2f2530" stroke-width="2"/>
  <rect x="290" y="270" width="22" height="22" rx="6" fill="#d6a47a" stroke="#2f2530" stroke-width="2"/>
  <rect x="530" y="270" width="22" height="22" rx="6" fill="#d6a47a" stroke="#2f2530" stroke-width="2"/>
</g>
</g>
<g transform="translate(880,550)"><text x="152" y="-18" font-family="Arial, sans-serif" font-size="22" font-weight="700" fill="#5c4352" text-anchor="middle">FRONT</text>
<g>
  <line x1="64" y1="292" x2="496" y2="292" stroke="#b98aa0" stroke-width="3" stroke-dasharray="10 8"/>
  <rect x="118" y="118" width="324" height="166" rx="18" fill="url(#gWood)" stroke="#2f2530" stroke-width="4"/>
  <rect x="134" y="118" width="292" height="20" rx="8" fill="#e8c09b" stroke="#2f2530" stroke-width="2"/>
  <rect x="140" y="146" width="280" height="54" rx="12" fill="#f5d4bd" opacity="0.55" stroke="#2f2530" stroke-width="2"/>
  <line x1="146" y1="220" x2="414" y2="220" stroke="#2f2530" stroke-width="2"/>
  <rect x="230" y="166" width="100" height="14" rx="7" fill="#fff2b2" stroke="#2f2530" stroke-width="2"/>
  <circle cx="280" cy="246" r="8" fill="#fff2b2" stroke="#2f2530" stroke-width="2"/>
  <rect x="148" y="270" width="22" height="22" rx="6" fill="#d6a47a" stroke="#2f2530" stroke-width="2"/>
  <rect x="390" y="270" width="22" height="22" rx="6" fill="#d6a47a" stroke="#2f2530" stroke-width="2"/>
</g>
</g>
</svg>