<?xml version="1.0" encoding="UTF-8"?><svg xmlns="http://www.w3.org/2000/svg" width="560" height="390" viewBox="0 0 560 390">
<defs>
  <linearGradient id="gPink" x1="0" y1="0" x2="1" y2="1">
    <stop offset="0%" stop-color="#ffd4e4"/><stop offset="100%" stop-color="#e56fa0"/>
  </linearGradient>
  <linearGradient id="gWood" x1="0" y1="0" x2="1" y2="1">
    <stop offset="0%" stop-color="#f5d4bd"/><stop offset="100%" stop-color="#d6a47a"/>
  </linearGradient>
  <linearGradient id="gBlue" x1="0" y1="0" x2="1" y2="1">
    <stop offset="0%" stop-color="#aee3ff"/><stop offset="100%" stop-color="#78c6ea"/>
  </linearGradient>
  <linearGradient id="gMint" x1="0" y1="0" x2="1" y2="1">
    <stop offset="0%" stop-color="#86d7c0"/><stop offset="100%" stop-color="#63b79e"/>
  </linearGradient>
  <linearGradient id="gLav" x1="0" y1="0" x2="1" y2="1">
    <stop offset="0%" stop-color="#c9b5ff"/><stop offset="100%" stop-color="#aa92ef"/>
  </linearGradient>
</defs>
<rect x="0" y="0" width="560" height="390" fill="#fff8fb"/><g><line x1="40" y1="40" x2="40" y2="350" stroke="#f0d9e4" stroke-width="1" opacity="0.55"/><line x1="80" y1="40" x2="80" y2="350" stroke="#f0d9e4" stroke-width="1" opacity="0.55"/><line x1="120" y1="40" x2="120" y2="350" stroke="#f0d9e4" stroke-width="1" opacity="0.55"/><line x1="160" y1="40" x2="160" y2="350" stroke="#f0d9e4" stroke-width="1" opacity="0.55"/><line x1="200" y1="40" x2="200" y2="350" stroke="#f0d9e4" stroke-width="1" opacity="0.55"/><line x1="240" y1="40" x2="240" y2="350" stroke="#f0d9e4" stroke-width="1" opacity="0.55"/><line x1="280" y1="40" x2="280" y2="350" stroke="#f0d9e4" stroke-width="1" opacity="0.55"/><line x1="320" y1="40" x2="320" y2="350" stroke="#f0d9e4" stroke-width="1" opacity="0.55"/><line x1="360" y1="40" x2="360" y2="350" stroke="#f0d9e4" stroke-width="1" opacity="0.55"/><line x1="400" y1="40" x2="400" y2="350" stroke="#f0d9e4" stroke-width="1" opacity="0.55"/><line x1="440" y1="40" x2="440" y2="350" stroke="#f0d9e4" stroke-width="1" opacity="0.55"/><line x1="480" y1="40" x2="480" y2="350" stroke="#f0d9e4" stroke-width="1" opacity="0.55"/><line x1="520" y1="40" x2="520" y2="350" stroke="#f0d9e4" stroke-width="1" opacity="0.55"/><line x1="40" y1="40" x2="520" y2="40" stroke="#f0d9e4" stroke-width="1" opacity="0.55"/><line x1="40" y1="80" x2="520" y2="80" stroke="#f0d9e4" stroke-width="1" opacity="0.55"/><line x1="40" y1="120" x2="520" y2="120" stroke="#f0d9e4" stroke-width="1" opacity="0.55"/><line x1="40" y1="160" x2="520" y2="160" stroke="#f0d9e4" stroke-width="1" opacity="0.55"/><line x1="40" y1="200" x2="520" y2="200" stroke="#f0d9e4" stroke-width="1" opacity="0.55"/><line x1="40" y1="240" x2="520" y2="240" stroke="#f0d9e4" stroke-width="1" opacity="0.55"/><line x1="40" y1="280" x2="520" y2="280" stroke="#f0d9e4" stroke-width="1" opacity="0.55"/><line x1="40" y1="320" x2="520" y2="320" stroke="#f0d9e4" stroke-width="1" opacity="0.55"/><line x1="40" y1="360" x2="520" y2="360" stroke="#f0d9e4" stroke-width="1" opacity="0.55"/></g><text x="280.0" y="34" font-family="Arial, sans-serif" font-size="26" font-weight="700" fill="#5c4352" text-anchor="middle">Прикроватная лампа — вид спереди / FRONT</text>
<g>
  <line x1="64" y1="292" x2="496" y2="292" stroke="#b98aa0" stroke-width="3" stroke-dasharray="10 8"/>
  <ellipse cx="280" cy="278" rx="86" ry="18" fill="url(#gWood)" stroke="#2f2530" stroke-width="4"/>
  <ellipse cx="280" cy="278" rx="64" ry="10" fill="none" stroke="#e8c09b" stroke-width="2" opacity="0.7"/>
  <rect x="268" y="174" width="24" height="86" rx="10" fill="#d6a47a" stroke="#2f2530" stroke-width="3"/>
  <path d="M 204 128 Q 280 94 356 128 L 326 226 Q 280 244 234 226 Z" fill="url(#gBlue)" stroke="#2f2530" stroke-width="4"/>
  <path d="M 222 136 Q 280 112 338 136 M 230 156 Q 280 138 330 156 M 236 178 Q 280 164 324 178" fill="none" stroke="#ffffff" stroke-width="3" opacity="0.28"/>
  <ellipse cx="280" cy="206" rx="32" ry="18" fill="#fff0c7" stroke="#2f2530" stroke-width="2"/>
  <path d="M 308 210 Q 314 236 308 252" fill="none" stroke="#2f2530" stroke-width="2"/>
</g>
<line x1="194" y1="332" x2="366" y2="332" stroke="#b98aa0" stroke-width="2"/><line x1="194" y1="324" x2="194" y2="340" stroke="#b98aa0" stroke-width="2"/><line x1="366" y1="324" x2="366" y2="340" stroke="#b98aa0" stroke-width="2"/><text x="280.0" y="320" font-family="Arial, sans-serif" font-size="18" fill="#5c4352" text-anchor="middle">ширина базы 0.22 м</text><line x1="154" y1="128" x2="154" y2="292" stroke="#b98aa0" stroke-width="2"/><line x1="146" y1="128" x2="162" y2="128" stroke="#b98aa0" stroke-width="2"/><line x1="146" y1="292" x2="162" y2="292" stroke="#b98aa0" stroke-width="2"/><text x="126" y="210.0" transform="rotate(-90 126 210.0)" font-family="Arial, sans-serif" font-size="18" fill="#5c4352" text-anchor="middle">высота 0.42 м</text></svg>