<?xml version="1.0" encoding="UTF-8"?>
<svg xmlns="http://www.w3.org/2000/svg" width="1400" height="980" viewBox="0 0 1400 980">

<defs>
  <linearGradient id="gPink" x1="0" y1="0" x2="1" y2="1">
    <stop offset="0%" stop-color="#ffd4e4"/><stop offset="100%" stop-color="#e56fa0"/>
  </linearGradient>
  <linearGradient id="gWood" x1="0" y1="0" x2="1" y2="1">
    <stop offset="0%" stop-color="#f5d4bd"/><stop offset="100%" stop-color="#d6a47a"/>
  </linearGradient>
  <linearGradient id="gBlue" x1="0" y1="0" x2="1" y2="1">
    <stop offset="0%" stop-color="#aee3ff"/><stop offset="100%" stop-color="#78c6ea"/>
  </linearGradient>
  <linearGradient id="gMint" x1="0" y1="0" x2="1" y2="1">
    <stop offset="0%" stop-color="#86d7c0"/><stop offset="100%" stop-color="#63b79e"/>
  </linearGradient>
  <linearGradient id="gLav" x1="0" y1="0" x2="1" y2="1">
    <stop offset="0%" stop-color="#c9b5ff"/><stop offset="100%" stop-color="#aa92ef"/>
  </linearGradient>
</defs>

<rect x="0" y="0" width="1400" height="980" fill="#fff8fb"/>
<text x="700" y="42" font-family="Arial, sans-serif" font-size="30" font-weight="700" fill="#5c4352" text-anchor="middle">Прикроватная лампа — 3 ортографических SVG-вида</text>
<text x="700" y="72" font-family="Arial, sans-serif" font-size="17" fill="#5c4352" text-anchor="middle">Усилена детализация и характер форм по комнате-референсу. Чистый orthographic.</text>
<g transform="translate(160,120)"><text x="320" y="-18" font-family="Arial, sans-serif" font-size="22" font-weight="700" fill="#5c4352" text-anchor="middle">TOP</text>
<g>
  <circle cx="450" cy="256" r="92" fill="url(#gBlue)" stroke="#2f2530" stroke-width="4"/>
  <circle cx="450" cy="256" r="74" fill="none" stroke="#ffffff" stroke-width="2" opacity="0.35"/>
  <circle cx="450" cy="256" r="56" fill="none" stroke="#ffffff" stroke-width="2" opacity="0.24"/>
  <circle cx="450" cy="256" r="40" fill="#fff0c7" stroke="#2f2530" stroke-width="3"/>
  <circle cx="450" cy="256" r="12" fill="#2f2530"/>
</g>
</g>
<g transform="translate(160,550)"><text x="320" y="-18" font-family="Arial, sans-serif" font-size="22" font-weight="700" fill="#5c4352" text-anchor="middle">SIDE</text>
<g>
  <line x1="100" y1="292" x2="800" y2="292" stroke="#b98aa0" stroke-width="3" stroke-dasharray="10 8"/>
  <ellipse cx="450" cy="278" rx="86" ry="18" fill="url(#gWood)" stroke="#2f2530" stroke-width="4"/>
  <ellipse cx="450" cy="278" rx="64" ry="10" fill="none" stroke="#e8c09b" stroke-width="2" opacity="0.7"/>
  <rect x="438" y="174" width="24" height="86" rx="10" fill="#d6a47a" stroke="#2f2530" stroke-width="3"/>
  <path d="M 374 128 Q 450 94 526 128 L 496 226 Q 450 244 404 226 Z" fill="url(#gBlue)" stroke="#2f2530" stroke-width="4"/>
  <path d="M 392 136 Q 450 112 508 136 M 400 156 Q 450 138 500 156 M 406 178 Q 450 164 494 178" fill="none" stroke="#ffffff" stroke-width="3" opacity="0.28"/>
  <ellipse cx="450" cy="206" rx="32" ry="18" fill="#fff0c7" stroke="#2f2530" stroke-width="2"/>
  <path d="M 478 210 Q 484 236 478 252" fill="none" stroke="#2f2530" stroke-width="2"/>
</g>
</g>
<g transform="translate(880,550)"><text x="152" y="-18" font-family="Arial, sans-serif" font-size="22" font-weight="700" fill="#5c4352" text-anchor="middle">FRONT</text>
<g>
  <line x1="64" y1="292" x2="496" y2="292" stroke="#b98aa0" stroke-width="3" stroke-dasharray="10 8"/>
  <ellipse cx="280" cy="278" rx="86" ry="18" fill="url(#gWood)" stroke="#2f2530" stroke-width="4"/>
  <ellipse cx="280" cy="278" rx="64" ry="10" fill="none" stroke="#e8c09b" stroke-width="2" opacity="0.7"/>
  <rect x="268" y="174" width="24" height="86" rx="10" fill="#d6a47a" stroke="#2f2530" stroke-width="3"/>
  <path d="M 204 128 Q 280 94 356 128 L 326 226 Q 280 244 234 226 Z" fill="url(#gBlue)" stroke="#2f2530" stroke-width="4"/>
  <path d="M 222 136 Q 280 112 338 136 M 230 156 Q 280 138 330 156 M 236 178 Q 280 164 324 178" fill="none" stroke="#ffffff" stroke-width="3" opacity="0.28"/>
  <ellipse cx="280" cy="206" rx="32" ry="18" fill="#fff0c7" stroke="#2f2530" stroke-width="2"/>
  <path d="M 308 210 Q 314 236 308 252" fill="none" stroke="#2f2530" stroke-width="2"/>
</g>
</g>
</svg>