<?xml version="1.0" encoding="UTF-8"?>
<svg xmlns="http://www.w3.org/2000/svg" width="1400" height="980" viewBox="0 0 1400 980">

<defs>
  <linearGradient id="gPink" x1="0" y1="0" x2="1" y2="1">
    <stop offset="0%" stop-color="#ffd4e4"/><stop offset="100%" stop-color="#e56fa0"/>
  </linearGradient>
  <linearGradient id="gWood" x1="0" y1="0" x2="1" y2="1">
    <stop offset="0%" stop-color="#f5d4bd"/><stop offset="100%" stop-color="#d6a47a"/>
  </linearGradient>
  <linearGradient id="gBlue" x1="0" y1="0" x2="1" y2="1">
    <stop offset="0%" stop-color="#aee3ff"/><stop offset="100%" stop-color="#78c6ea"/>
  </linearGradient>
  <linearGradient id="gMint" x1="0" y1="0" x2="1" y2="1">
    <stop offset="0%" stop-color="#86d7c0"/><stop offset="100%" stop-color="#63b79e"/>
  </linearGradient>
  <linearGradient id="gLav" x1="0" y1="0" x2="1" y2="1">
    <stop offset="0%" stop-color="#c9b5ff"/><stop offset="100%" stop-color="#aa92ef"/>
  </linearGradient>
</defs>

<rect x="0" y="0" width="1400" height="980" fill="#fff8fb"/>
<text x="700" y="42" font-family="Arial, sans-serif" font-size="30" font-weight="700" fill="#5c4352" text-anchor="middle">Окно — 3 ортографических SVG-вида</text>
<text x="700" y="72" font-family="Arial, sans-serif" font-size="17" fill="#5c4352" text-anchor="middle">Усилена детализация и характер форм по комнате-референсу. Чистый orthographic.</text>
<g transform="translate(160,120)"><text x="320" y="-18" font-family="Arial, sans-serif" font-size="22" font-weight="700" fill="#5c4352" text-anchor="middle">TOP</text>
<g>
  <rect x="136" y="208" width="628" height="84" rx="10" fill="#faf7ff" stroke="#2f2530" stroke-width="4"/>
  <rect x="154" y="222" width="274" height="56" rx="8" fill="url(#gBlue)" stroke="#2f2530" stroke-width="2"/>
  <rect x="472" y="222" width="274" height="56" rx="8" fill="url(#gBlue)" stroke="#2f2530" stroke-width="2"/>
  <rect x="438" y="214" width="24" height="72" rx="5" fill="#d6a47a" stroke="#2f2530" stroke-width="2"/>
  <line x1="290" y1="224" x2="290" y2="276" stroke="#ffffff" stroke-width="2" opacity="0.55"/>
  <line x1="608" y1="224" x2="608" y2="276" stroke="#ffffff" stroke-width="2" opacity="0.55"/>
</g>
</g>
<g transform="translate(160,550)"><text x="320" y="-18" font-family="Arial, sans-serif" font-size="22" font-weight="700" fill="#5c4352" text-anchor="middle">SIDE</text>
<g>
  <rect x="122" y="104" width="636" height="180" rx="12" fill="#faf7ff" stroke="#2f2530" stroke-width="4"/>
  <rect x="144" y="126" width="272" height="136" rx="8" fill="url(#gBlue)" stroke="#2f2530" stroke-width="2"/>
  <rect x="464" y="126" width="272" height="136" rx="8" fill="url(#gBlue)" stroke="#2f2530" stroke-width="2"/>
  <rect x="432" y="114" width="24" height="156" rx="5" fill="#d6a47a" stroke="#2f2530" stroke-width="2"/>
  <rect x="120" y="276" width="640" height="12" rx="4" fill="#f5d4bd" stroke="#2f2530" stroke-width="2"/>
  <line x1="280" y1="128" x2="280" y2="260" stroke="#ffffff" stroke-width="2" opacity="0.55"/>
  <line x1="600" y1="128" x2="600" y2="260" stroke="#ffffff" stroke-width="2" opacity="0.55"/>
</g>
</g>
<g transform="translate(880,550)"><text x="152" y="-18" font-family="Arial, sans-serif" font-size="22" font-weight="700" fill="#5c4352" text-anchor="middle">FRONT</text>
<g>
  <rect x="108" y="96" width="344" height="194" rx="12" fill="#faf7ff" stroke="#2f2530" stroke-width="4"/>
  <rect x="130" y="118" width="138" height="148" rx="8" fill="url(#gBlue)" stroke="#2f2530" stroke-width="2"/>
  <rect x="292" y="118" width="138" height="148" rx="8" fill="url(#gBlue)" stroke="#2f2530" stroke-width="2"/>
  <rect x="270" y="108" width="18" height="166" rx="5" fill="#d6a47a" stroke="#2f2530" stroke-width="2"/>
  <rect x="106" y="282" width="348" height="10" rx="4" fill="#f5d4bd" stroke="#2f2530" stroke-width="2"/>
  <line x1="198" y1="120" x2="198" y2="264" stroke="#ffffff" stroke-width="2" opacity="0.55"/>
  <line x1="360" y1="120" x2="360" y2="264" stroke="#ffffff" stroke-width="2" opacity="0.55"/>
</g>
</g>
</svg>