<?xml version="1.0" encoding="UTF-8"?><svg xmlns="http://www.w3.org/2000/svg" width="560" height="390" viewBox="0 0 560 390">
<defs>
  <linearGradient id="gPink" x1="0" y1="0" x2="1" y2="1">
    <stop offset="0%" stop-color="#ffd4e4"/><stop offset="100%" stop-color="#e56fa0"/>
  </linearGradient>
  <linearGradient id="gWood" x1="0" y1="0" x2="1" y2="1">
    <stop offset="0%" stop-color="#f5d4bd"/><stop offset="100%" stop-color="#d6a47a"/>
  </linearGradient>
  <linearGradient id="gBlue" x1="0" y1="0" x2="1" y2="1">
    <stop offset="0%" stop-color="#aee3ff"/><stop offset="100%" stop-color="#78c6ea"/>
  </linearGradient>
  <linearGradient id="gMint" x1="0" y1="0" x2="1" y2="1">
    <stop offset="0%" stop-color="#86d7c0"/><stop offset="100%" stop-color="#63b79e"/>
  </linearGradient>
  <linearGradient id="gLav" x1="0" y1="0" x2="1" y2="1">
    <stop offset="0%" stop-color="#c9b5ff"/><stop offset="100%" stop-color="#aa92ef"/>
  </linearGradient>
</defs>
<rect x="0" y="0" width="560" height="390" fill="#fff8fb"/><g><line x1="40" y1="40" x2="40" y2="350" stroke="#f0d9e4" stroke-width="1" opacity="0.55"/><line x1="80" y1="40" x2="80" y2="350" stroke="#f0d9e4" stroke-width="1" opacity="0.55"/><line x1="120" y1="40" x2="120" y2="350" stroke="#f0d9e4" stroke-width="1" opacity="0.55"/><line x1="160" y1="40" x2="160" y2="350" stroke="#f0d9e4" stroke-width="1" opacity="0.55"/><line x1="200" y1="40" x2="200" y2="350" stroke="#f0d9e4" stroke-width="1" opacity="0.55"/><line x1="240" y1="40" x2="240" y2="350" stroke="#f0d9e4" stroke-width="1" opacity="0.55"/><line x1="280" y1="40" x2="280" y2="350" stroke="#f0d9e4" stroke-width="1" opacity="0.55"/><line x1="320" y1="40" x2="320" y2="350" stroke="#f0d9e4" stroke-width="1" opacity="0.55"/><line x1="360" y1="40" x2="360" y2="350" stroke="#f0d9e4" stroke-width="1" opacity="0.55"/><line x1="400" y1="40" x2="400" y2="350" stroke="#f0d9e4" stroke-width="1" opacity="0.55"/><line x1="440" y1="40" x2="440" y2="350" stroke="#f0d9e4" stroke-width="1" opacity="0.55"/><line x1="480" y1="40" x2="480" y2="350" stroke="#f0d9e4" stroke-width="1" opacity="0.55"/><line x1="520" y1="40" x2="520" y2="350" stroke="#f0d9e4" stroke-width="1" opacity="0.55"/><line x1="40" y1="40" x2="520" y2="40" stroke="#f0d9e4" stroke-width="1" opacity="0.55"/><line x1="40" y1="80" x2="520" y2="80" stroke="#f0d9e4" stroke-width="1" opacity="0.55"/><line x1="40" y1="120" x2="520" y2="120" stroke="#f0d9e4" stroke-width="1" opacity="0.55"/><line x1="40" y1="160" x2="520" y2="160" stroke="#f0d9e4" stroke-width="1" opacity="0.55"/><line x1="40" y1="200" x2="520" y2="200" stroke="#f0d9e4" stroke-width="1" opacity="0.55"/><line x1="40" y1="240" x2="520" y2="240" stroke="#f0d9e4" stroke-width="1" opacity="0.55"/><line x1="40" y1="280" x2="520" y2="280" stroke="#f0d9e4" stroke-width="1" opacity="0.55"/><line x1="40" y1="320" x2="520" y2="320" stroke="#f0d9e4" stroke-width="1" opacity="0.55"/><line x1="40" y1="360" x2="520" y2="360" stroke="#f0d9e4" stroke-width="1" opacity="0.55"/></g><text x="280.0" y="34" font-family="Arial, sans-serif" font-size="26" font-weight="700" fill="#5c4352" text-anchor="middle">Окно — вид спереди / FRONT</text>
<g>
  <rect x="108" y="96" width="344" height="194" rx="12" fill="#faf7ff" stroke="#2f2530" stroke-width="4"/>
  <rect x="130" y="118" width="138" height="148" rx="8" fill="url(#gBlue)" stroke="#2f2530" stroke-width="2"/>
  <rect x="292" y="118" width="138" height="148" rx="8" fill="url(#gBlue)" stroke="#2f2530" stroke-width="2"/>
  <rect x="270" y="108" width="18" height="166" rx="5" fill="#d6a47a" stroke="#2f2530" stroke-width="2"/>
  <rect x="106" y="282" width="348" height="10" rx="4" fill="#f5d4bd" stroke="#2f2530" stroke-width="2"/>
  <line x1="198" y1="120" x2="198" y2="264" stroke="#ffffff" stroke-width="2" opacity="0.55"/>
  <line x1="360" y1="120" x2="360" y2="264" stroke="#ffffff" stroke-width="2" opacity="0.55"/>
</g>
<line x1="108" y1="332" x2="452" y2="332" stroke="#b98aa0" stroke-width="2"/><line x1="108" y1="324" x2="108" y2="340" stroke="#b98aa0" stroke-width="2"/><line x1="452" y1="324" x2="452" y2="340" stroke="#b98aa0" stroke-width="2"/><text x="280.0" y="320" font-family="Arial, sans-serif" font-size="18" fill="#5c4352" text-anchor="middle">ширина фронта</text><line x1="74" y1="96" x2="74" y2="290" stroke="#b98aa0" stroke-width="2"/><line x1="66" y1="96" x2="82" y2="96" stroke="#b98aa0" stroke-width="2"/><line x1="66" y1="290" x2="82" y2="290" stroke="#b98aa0" stroke-width="2"/><text x="46" y="193.0" transform="rotate(-90 46 193.0)" font-family="Arial, sans-serif" font-size="18" fill="#5c4352" text-anchor="middle">высота фронта</text></svg>