<?xml version="1.0" encoding="UTF-8"?>
<svg xmlns="http://www.w3.org/2000/svg" width="1400" height="980" viewBox="0 0 1400 980">

<defs>
  <linearGradient id="gPink" x1="0" y1="0" x2="1" y2="1">
    <stop offset="0%" stop-color="#ffd4e4"/><stop offset="100%" stop-color="#e56fa0"/>
  </linearGradient>
  <linearGradient id="gWood" x1="0" y1="0" x2="1" y2="1">
    <stop offset="0%" stop-color="#f5d4bd"/><stop offset="100%" stop-color="#d6a47a"/>
  </linearGradient>
  <linearGradient id="gBlue" x1="0" y1="0" x2="1" y2="1">
    <stop offset="0%" stop-color="#aee3ff"/><stop offset="100%" stop-color="#78c6ea"/>
  </linearGradient>
  <linearGradient id="gMint" x1="0" y1="0" x2="1" y2="1">
    <stop offset="0%" stop-color="#86d7c0"/><stop offset="100%" stop-color="#63b79e"/>
  </linearGradient>
  <linearGradient id="gLav" x1="0" y1="0" x2="1" y2="1">
    <stop offset="0%" stop-color="#c9b5ff"/><stop offset="100%" stop-color="#aa92ef"/>
  </linearGradient>
</defs>

<rect x="0" y="0" width="1400" height="980" fill="#fff8fb"/>
<text x="700" y="42" font-family="Arial, sans-serif" font-size="30" font-weight="700" fill="#5c4352" text-anchor="middle">Левая штора — 3 ортографических SVG-вида</text>
<text x="700" y="72" font-family="Arial, sans-serif" font-size="17" fill="#5c4352" text-anchor="middle">Усилена детализация и характер форм по комнате-референсу. Чистый orthographic.</text>
<g transform="translate(160,120)"><text x="320" y="-18" font-family="Arial, sans-serif" font-size="22" font-weight="700" fill="#5c4352" text-anchor="middle">TOP</text>
<g>
  <rect x="326" y="108" width="132" height="12" rx="6" fill="#d6a47a" stroke="#2f2530" stroke-width="2"/>
  <path d="M 332 120 C 312 150, 298 188, 294 234 C 290 278, 298 328, 316 372 C 322 388, 332 398, 346 404 
           L 454 404 C 444 392, 438 372, 436 348 C 432 304, 436 250, 446 200 C 454 160, 454 136, 450 120 Z"
        fill="url(#gLav)" stroke="#2f2530" stroke-width="4"/>
  <path d="M 348 126 C 332 166, 324 214, 324 268 C 324 320, 330 362, 344 396" fill="none" stroke="#ead1dc" stroke-width="4" opacity="0.55"/>
  <path d="M 376 122 C 364 168, 360 220, 362 278 C 364 330, 372 372, 388 398" fill="none" stroke="#ead1dc" stroke-width="4" opacity="0.45"/>
  <path d="M 404 122 C 398 174, 398 232, 404 296 C 408 344, 416 378, 426 398" fill="none" stroke="#ead1dc" stroke-width="4" opacity="0.38"/>
  <path d="M 432 122 C 430 178, 434 240, 444 312 C 448 344, 450 372, 448 396" fill="none" stroke="#ead1dc" stroke-width="4" opacity="0.32"/>
  <path d="M 328 132 Q 342 144 356 132 M 356 132 Q 370 144 384 132 M 384 132 Q 398 144 412 132 M 412 132 Q 426 144 440 132" fill="none" stroke="#ffffff" stroke-width="3" opacity="0.22"/>
</g>
</g>
<g transform="translate(160,550)"><text x="320" y="-18" font-family="Arial, sans-serif" font-size="22" font-weight="700" fill="#5c4352" text-anchor="middle">SIDE</text>
<g>
  <line x1="450" y1="84" x2="450" y2="312" stroke="#b98aa0" stroke-width="3" stroke-dasharray="8 8"/>
  <rect x="354" y="90" width="140" height="12" rx="6" fill="#d6a47a" stroke="#2f2530" stroke-width="2"/>
  <path d="M 364 102 C 348 132, 340 172, 342 218 C 344 248, 350 270, 356 282 L 488 282 C 478 262, 472 234, 470 204 C 468 166, 472 132, 486 102 Z"
        fill="url(#gLav)" stroke="#2f2530" stroke-width="4"/>
  <path d="M 382 108 C 372 136, 368 170, 370 208 C 372 238, 376 260, 382 276" fill="none" stroke="#ead1dc" stroke-width="4" opacity="0.52"/>
  <path d="M 410 106 C 406 142, 406 180, 410 220 C 414 244, 420 262, 426 276" fill="none" stroke="#ead1dc" stroke-width="4" opacity="0.4"/>
  <path d="M 438 108 C 440 146, 444 186, 450 226 C 454 248, 458 264, 462 276" fill="none" stroke="#ead1dc" stroke-width="4" opacity="0.32"/>
</g>
</g>
<g transform="translate(880,550)"><text x="152" y="-18" font-family="Arial, sans-serif" font-size="22" font-weight="700" fill="#5c4352" text-anchor="middle">FRONT</text>
<g>
  <line x1="280" y1="84" x2="280" y2="312" stroke="#b98aa0" stroke-width="3" stroke-dasharray="8 8"/>
  <rect x="204" y="90" width="144" height="12" rx="6" fill="#d6a47a" stroke="#2f2530" stroke-width="2"/>
  <path d="M 214 102 C 198 132, 190 172, 192 218 C 194 248, 200 270, 206 282 L 340 282 C 330 262, 324 234, 322 204 C 320 166, 324 132, 338 102 Z"
        fill="url(#gLav)" stroke="#2f2530" stroke-width="4"/>
  <path d="M 232 108 C 222 136, 218 170, 220 208 C 222 238, 226 260, 232 276" fill="none" stroke="#ead1dc" stroke-width="4" opacity="0.52"/>
  <path d="M 260 106 C 256 142, 256 180, 260 220 C 264 244, 270 262, 276 276" fill="none" stroke="#ead1dc" stroke-width="4" opacity="0.4"/>
  <path d="M 288 108 C 290 146, 294 186, 300 226 C 304 248, 308 264, 312 276" fill="none" stroke="#ead1dc" stroke-width="4" opacity="0.32"/>
</g>
</g>
</svg>