<?xml version="1.0" encoding="UTF-8"?>
<svg xmlns="http://www.w3.org/2000/svg" width="1400" height="980" viewBox="0 0 1400 980">

<defs>
  <linearGradient id="gPink" x1="0" y1="0" x2="1" y2="1">
    <stop offset="0%" stop-color="#ffd4e4"/><stop offset="100%" stop-color="#e56fa0"/>
  </linearGradient>
  <linearGradient id="gWood" x1="0" y1="0" x2="1" y2="1">
    <stop offset="0%" stop-color="#f5d4bd"/><stop offset="100%" stop-color="#d6a47a"/>
  </linearGradient>
  <linearGradient id="gBlue" x1="0" y1="0" x2="1" y2="1">
    <stop offset="0%" stop-color="#aee3ff"/><stop offset="100%" stop-color="#78c6ea"/>
  </linearGradient>
  <linearGradient id="gMint" x1="0" y1="0" x2="1" y2="1">
    <stop offset="0%" stop-color="#86d7c0"/><stop offset="100%" stop-color="#63b79e"/>
  </linearGradient>
  <linearGradient id="gLav" x1="0" y1="0" x2="1" y2="1">
    <stop offset="0%" stop-color="#c9b5ff"/><stop offset="100%" stop-color="#aa92ef"/>
  </linearGradient>
</defs>

<rect x="0" y="0" width="1400" height="980" fill="#fff8fb"/>
<text x="700" y="42" font-family="Arial, sans-serif" font-size="30" font-weight="700" fill="#5c4352" text-anchor="middle">Правая штора — 3 ортографических SVG-вида</text>
<text x="700" y="72" font-family="Arial, sans-serif" font-size="17" fill="#5c4352" text-anchor="middle">Усилена детализация и характер форм по комнате-референсу. Чистый orthographic.</text>
<g transform="translate(160,120)"><text x="320" y="-18" font-family="Arial, sans-serif" font-size="22" font-weight="700" fill="#5c4352" text-anchor="middle">TOP</text>
<g>
  <rect x="336" y="108" width="132" height="12" rx="6" fill="#d6a47a" stroke="#2f2530" stroke-width="2"/>
  <path d="M 452 120 C 448 136, 448 160, 456 200 C 466 250, 470 304, 466 348 C 464 372, 458 392, 448 404 
           L 340 404 C 354 398, 364 388, 370 372 C 388 328, 396 278, 392 234 C 388 188, 374 150, 354 120 Z"
        fill="url(#gLav)" stroke="#2f2530" stroke-width="4"/>
  <path d="M 438 122 C 440 178, 436 240, 426 312 C 422 344, 420 372, 422 396" fill="none" stroke="#ead1dc" stroke-width="4" opacity="0.32"/>
  <path d="M 410 122 C 416 174, 416 232, 410 296 C 406 344, 398 378, 388 398" fill="none" stroke="#ead1dc" stroke-width="4" opacity="0.38"/>
  <path d="M 382 122 C 394 168, 398 220, 396 278 C 394 330, 386 372, 370 398" fill="none" stroke="#ead1dc" stroke-width="4" opacity="0.45"/>
  <path d="M 354 126 C 370 166, 378 214, 378 268 C 378 320, 372 362, 358 396" fill="none" stroke="#ead1dc" stroke-width="4" opacity="0.55"/>
  <path d="M 340 132 Q 354 144 368 132 M 368 132 Q 382 144 396 132 M 396 132 Q 410 144 424 132 M 424 132 Q 438 144 452 132" fill="none" stroke="#ffffff" stroke-width="3" opacity="0.22"/>
</g>
</g>
<g transform="translate(160,550)"><text x="320" y="-18" font-family="Arial, sans-serif" font-size="22" font-weight="700" fill="#5c4352" text-anchor="middle">SIDE</text>
<g>
  <line x1="450" y1="84" x2="450" y2="312" stroke="#b98aa0" stroke-width="3" stroke-dasharray="8 8"/>
  <rect x="286" y="90" width="140" height="12" rx="6" fill="#d6a47a" stroke="#2f2530" stroke-width="2"/>
  <path d="M 294 102 C 308 132, 312 166, 310 204 C 308 234, 302 262, 292 282 L 424 282 C 430 270, 436 248, 438 218 C 440 172, 432 132, 416 102 Z"
        fill="url(#gLav)" stroke="#2f2530" stroke-width="4"/>
  <path d="M 318 108 C 316 146, 312 186, 306 226 C 302 248, 298 264, 294 276" fill="none" stroke="#ead1dc" stroke-width="4" opacity="0.32"/>
  <path d="M 346 106 C 342 142, 342 180, 346 220 C 350 244, 356 262, 362 276" fill="none" stroke="#ead1dc" stroke-width="4" opacity="0.4"/>
  <path d="M 374 108 C 384 136, 388 170, 386 208 C 384 238, 380 260, 374 276" fill="none" stroke="#ead1dc" stroke-width="4" opacity="0.52"/>
</g>
</g>
<g transform="translate(880,550)"><text x="152" y="-18" font-family="Arial, sans-serif" font-size="22" font-weight="700" fill="#5c4352" text-anchor="middle">FRONT</text>
<g>
  <line x1="280" y1="84" x2="280" y2="312" stroke="#b98aa0" stroke-width="3" stroke-dasharray="8 8"/>
  <rect x="214" y="90" width="144" height="12" rx="6" fill="#d6a47a" stroke="#2f2530" stroke-width="2"/>
  <path d="M 222 102 C 236 132, 240 166, 238 204 C 236 234, 230 262, 220 282 L 356 282 C 362 264, 366 248, 368 218 C 370 172, 362 132, 346 102 Z"
        fill="url(#gLav)" stroke="#2f2530" stroke-width="4"/>
  <path d="M 246 108 C 244 146, 240 186, 234 226 C 230 248, 226 264, 222 276" fill="none" stroke="#ead1dc" stroke-width="4" opacity="0.32"/>
  <path d="M 274 106 C 270 142, 270 180, 274 220 C 278 244, 284 262, 290 276" fill="none" stroke="#ead1dc" stroke-width="4" opacity="0.4"/>
  <path d="M 302 108 C 312 136, 316 170, 314 208 C 312 238, 308 260, 302 276" fill="none" stroke="#ead1dc" stroke-width="4" opacity="0.52"/>
</g>
</g>
</svg>