<?xml version="1.0" encoding="UTF-8"?>
<svg xmlns="http://www.w3.org/2000/svg" width="1400" height="980" viewBox="0 0 1400 980">

<defs>
  <linearGradient id="gPink" x1="0" y1="0" x2="1" y2="1">
    <stop offset="0%" stop-color="#ffd4e4"/><stop offset="100%" stop-color="#e56fa0"/>
  </linearGradient>
  <linearGradient id="gWood" x1="0" y1="0" x2="1" y2="1">
    <stop offset="0%" stop-color="#f5d4bd"/><stop offset="100%" stop-color="#d6a47a"/>
  </linearGradient>
</defs>

<rect x="0" y="0" width="1400" height="980" fill="#fff8fb"/>
<text x="700" y="42" font-family="Arial, sans-serif" font-size="30" font-weight="700" fill="#5c4352" text-anchor="middle">Дверь — 3 ортографических SVG-вида</text>
<text x="700" y="72" font-family="Arial, sans-serif" font-size="17" fill="#5c4352" text-anchor="middle">Итерация v5. Исправлены 11 дверь и 20 декоративный домик.</text>
<g transform="translate(160,120)"><text x="320" y="-18" font-family="Arial, sans-serif" font-size="22" font-weight="700" fill="#5c4352" text-anchor="middle">TOP</text>
<g>
  <rect x="122" y="224" width="656" height="54" rx="8" fill="url(#gWood)" stroke="#2f2530" stroke-width="4"/>
  <rect x="148" y="238" width="604" height="26" rx="4" fill="#e8c09b" stroke="#2f2530" stroke-width="2"/>
  <circle cx="694" cy="251" r="7" fill="#fff2b2" stroke="#2f2530" stroke-width="2"/>
</g>
</g>
<g transform="translate(160,550)"><text x="320" y="-18" font-family="Arial, sans-serif" font-size="22" font-weight="700" fill="#5c4352" text-anchor="middle">SIDE</text>
<g>
  <line x1="160" y1="292" x2="740" y2="292" stroke="#b98aa0" stroke-width="3" stroke-dasharray="10 8"/>
  <rect x="408" y="50" width="16" height="242" rx="3" fill="#d6a47a" stroke="#2f2530" stroke-width="2"/>
  <rect x="424" y="50" width="18" height="242" rx="3" fill="url(#gWood)" stroke="#2f2530" stroke-width="2"/>
  <rect x="442" y="50" width="10" height="242" rx="3" fill="#e8c09b" stroke="#2f2530" stroke-width="2"/>
  <rect x="402" y="84" width="6" height="24" rx="2" fill="#d7dbe6" stroke="#2f2530" stroke-width="1.5"/>
  <rect x="402" y="168" width="6" height="24" rx="2" fill="#d7dbe6" stroke="#2f2530" stroke-width="1.5"/>
  <rect x="402" y="250" width="6" height="24" rx="2" fill="#d7dbe6" stroke="#2f2530" stroke-width="1.5"/>
  <rect x="452" y="176" width="8" height="8" rx="3" fill="#fff2b2" stroke="#2f2530" stroke-width="1.5"/>
</g>
</g>
<g transform="translate(880,550)"><text x="152" y="-18" font-family="Arial, sans-serif" font-size="22" font-weight="700" fill="#5c4352" text-anchor="middle">FRONT</text>
<g>
  <line x1="64" y1="292" x2="496" y2="292" stroke="#b98aa0" stroke-width="3" stroke-dasharray="10 8"/>
  <rect x="192" y="56" width="176" height="236" rx="10" fill="#d6a47a" stroke="#2f2530" stroke-width="4"/>
  <rect x="204" y="70" width="152" height="208" rx="10" fill="url(#gWood)" stroke="#2f2530" stroke-width="3"/>
  <rect x="220" y="92" width="120" height="76" rx="10" fill="#e8c09b" stroke="#2f2530" stroke-width="2"/>
  <rect x="220" y="180" width="120" height="76" rx="10" fill="#e8c09b" stroke="#2f2530" stroke-width="2"/>
  <rect x="192" y="56" width="14" height="236" fill="#d6a47a"/>
  <rect x="354" y="56" width="14" height="236" fill="#d6a47a"/>
  <circle cx="320" cy="174" r="7" fill="#fff2b2" stroke="#2f2530" stroke-width="2"/>
</g>
</g>
</svg>