<?xml version="1.0" encoding="UTF-8"?><svg xmlns="http://www.w3.org/2000/svg" width="900" height="390" viewBox="0 0 900 390">
<defs>
  <linearGradient id="gPink" x1="0" y1="0" x2="1" y2="1">
    <stop offset="0%" stop-color="#ffd4e4"/><stop offset="100%" stop-color="#e56fa0"/>
  </linearGradient>
  <linearGradient id="gWood" x1="0" y1="0" x2="1" y2="1">
    <stop offset="0%" stop-color="#f5d4bd"/><stop offset="100%" stop-color="#d6a47a"/>
  </linearGradient>
  <linearGradient id="gBlue" x1="0" y1="0" x2="1" y2="1">
    <stop offset="0%" stop-color="#aee3ff"/><stop offset="100%" stop-color="#78c6ea"/>
  </linearGradient>
  <linearGradient id="gMint" x1="0" y1="0" x2="1" y2="1">
    <stop offset="0%" stop-color="#86d7c0"/><stop offset="100%" stop-color="#63b79e"/>
  </linearGradient>
  <linearGradient id="gLav" x1="0" y1="0" x2="1" y2="1">
    <stop offset="0%" stop-color="#c9b5ff"/><stop offset="100%" stop-color="#aa92ef"/>
  </linearGradient>
</defs>
<rect x="0" y="0" width="900" height="390" fill="#fff8fb"/><g><line x1="40" y1="40" x2="40" y2="350" stroke="#f0d9e4" stroke-width="1" opacity="0.55"/><line x1="80" y1="40" x2="80" y2="350" stroke="#f0d9e4" stroke-width="1" opacity="0.55"/><line x1="120" y1="40" x2="120" y2="350" stroke="#f0d9e4" stroke-width="1" opacity="0.55"/><line x1="160" y1="40" x2="160" y2="350" stroke="#f0d9e4" stroke-width="1" opacity="0.55"/><line x1="200" y1="40" x2="200" y2="350" stroke="#f0d9e4" stroke-width="1" opacity="0.55"/><line x1="240" y1="40" x2="240" y2="350" stroke="#f0d9e4" stroke-width="1" opacity="0.55"/><line x1="280" y1="40" x2="280" y2="350" stroke="#f0d9e4" stroke-width="1" opacity="0.55"/><line x1="320" y1="40" x2="320" y2="350" stroke="#f0d9e4" stroke-width="1" opacity="0.55"/><line x1="360" y1="40" x2="360" y2="350" stroke="#f0d9e4" stroke-width="1" opacity="0.55"/><line x1="400" y1="40" x2="400" y2="350" stroke="#f0d9e4" stroke-width="1" opacity="0.55"/><line x1="440" y1="40" x2="440" y2="350" stroke="#f0d9e4" stroke-width="1" opacity="0.55"/><line x1="480" y1="40" x2="480" y2="350" stroke="#f0d9e4" stroke-width="1" opacity="0.55"/><line x1="520" y1="40" x2="520" y2="350" stroke="#f0d9e4" stroke-width="1" opacity="0.55"/><line x1="560" y1="40" x2="560" y2="350" stroke="#f0d9e4" stroke-width="1" opacity="0.55"/><line x1="600" y1="40" x2="600" y2="350" stroke="#f0d9e4" stroke-width="1" opacity="0.55"/><line x1="640" y1="40" x2="640" y2="350" stroke="#f0d9e4" stroke-width="1" opacity="0.55"/><line x1="680" y1="40" x2="680" y2="350" stroke="#f0d9e4" stroke-width="1" opacity="0.55"/><line x1="720" y1="40" x2="720" y2="350" stroke="#f0d9e4" stroke-width="1" opacity="0.55"/><line x1="760" y1="40" x2="760" y2="350" stroke="#f0d9e4" stroke-width="1" opacity="0.55"/><line x1="800" y1="40" x2="800" y2="350" stroke="#f0d9e4" stroke-width="1" opacity="0.55"/><line x1="840" y1="40" x2="840" y2="350" stroke="#f0d9e4" stroke-width="1" opacity="0.55"/><line x1="880" y1="40" x2="880" y2="350" stroke="#f0d9e4" stroke-width="1" opacity="0.55"/><line x1="40" y1="40" x2="860" y2="40" stroke="#f0d9e4" stroke-width="1" opacity="0.55"/><line x1="40" y1="80" x2="860" y2="80" stroke="#f0d9e4" stroke-width="1" opacity="0.55"/><line x1="40" y1="120" x2="860" y2="120" stroke="#f0d9e4" stroke-width="1" opacity="0.55"/><line x1="40" y1="160" x2="860" y2="160" stroke="#f0d9e4" stroke-width="1" opacity="0.55"/><line x1="40" y1="200" x2="860" y2="200" stroke="#f0d9e4" stroke-width="1" opacity="0.55"/><line x1="40" y1="240" x2="860" y2="240" stroke="#f0d9e4" stroke-width="1" opacity="0.55"/><line x1="40" y1="280" x2="860" y2="280" stroke="#f0d9e4" stroke-width="1" opacity="0.55"/><line x1="40" y1="320" x2="860" y2="320" stroke="#f0d9e4" stroke-width="1" opacity="0.55"/><line x1="40" y1="360" x2="860" y2="360" stroke="#f0d9e4" stroke-width="1" opacity="0.55"/></g><text x="450.0" y="34" font-family="Arial, sans-serif" font-size="26" font-weight="700" fill="#5c4352" text-anchor="middle">Потолочная лампа — вид сбоку / SIDE</text>
<g>
  <line x1="450" y1="42" x2="450" y2="84" stroke="#d6a47a" stroke-width="6"/>
  <rect x="430" y="84" width="40" height="12" rx="6" fill="#d6a47a" stroke="#2f2530" stroke-width="2"/>
  <rect x="442" y="96" width="16" height="40" rx="8" fill="#d6a47a" stroke="#2f2530" stroke-width="2"/>
  <path d="M 366 154 Q 450 112 534 154 L 500 254 Q 450 282 400 254 Z" fill="url(#gBlue)" stroke="#2f2530" stroke-width="4"/>
  <ellipse cx="450" cy="228" rx="38" ry="18" fill="#fff0c7" stroke="#2f2530" stroke-width="2"/>
</g>
<line x1="366" y1="332" x2="534" y2="332" stroke="#b98aa0" stroke-width="2"/><line x1="366" y1="324" x2="366" y2="340" stroke="#b98aa0" stroke-width="2"/><line x1="534" y1="324" x2="534" y2="340" stroke="#b98aa0" stroke-width="2"/><text x="450.0" y="320" font-family="Arial, sans-serif" font-size="18" fill="#5c4352" text-anchor="middle">ширина 0.42 м</text><line x1="332" y1="42" x2="332" y2="282" stroke="#b98aa0" stroke-width="2"/><line x1="324" y1="42" x2="340" y2="42" stroke="#b98aa0" stroke-width="2"/><line x1="324" y1="282" x2="340" y2="282" stroke="#b98aa0" stroke-width="2"/><text x="304" y="162.0" transform="rotate(-90 304 162.0)" font-family="Arial, sans-serif" font-size="18" fill="#5c4352" text-anchor="middle">высота 0.55 м</text></svg>