<?xml version="1.0" encoding="UTF-8"?>
<svg xmlns="http://www.w3.org/2000/svg" width="1400" height="980" viewBox="0 0 1400 980">

<defs>
  <linearGradient id="gPink" x1="0" y1="0" x2="1" y2="1">
    <stop offset="0%" stop-color="#ffd4e4"/><stop offset="100%" stop-color="#e56fa0"/>
  </linearGradient>
  <linearGradient id="gWood" x1="0" y1="0" x2="1" y2="1">
    <stop offset="0%" stop-color="#f5d4bd"/><stop offset="100%" stop-color="#d6a47a"/>
  </linearGradient>
  <linearGradient id="gBlue" x1="0" y1="0" x2="1" y2="1">
    <stop offset="0%" stop-color="#aee3ff"/><stop offset="100%" stop-color="#78c6ea"/>
  </linearGradient>
  <linearGradient id="gMint" x1="0" y1="0" x2="1" y2="1">
    <stop offset="0%" stop-color="#86d7c0"/><stop offset="100%" stop-color="#63b79e"/>
  </linearGradient>
  <linearGradient id="gLav" x1="0" y1="0" x2="1" y2="1">
    <stop offset="0%" stop-color="#c9b5ff"/><stop offset="100%" stop-color="#aa92ef"/>
  </linearGradient>
</defs>

<rect x="0" y="0" width="1400" height="980" fill="#fff8fb"/>
<text x="700" y="42" font-family="Arial, sans-serif" font-size="30" font-weight="700" fill="#5c4352" text-anchor="middle">Потолочная лампа — 3 ортографических SVG-вида</text>
<text x="700" y="72" font-family="Arial, sans-serif" font-size="17" fill="#5c4352" text-anchor="middle">v2: исправлены нелогичные проекции по замечаниям. Чистый orthographic.</text>
<g transform="translate(160,120)"><text x="320" y="-18" font-family="Arial, sans-serif" font-size="22" font-weight="700" fill="#5c4352" text-anchor="middle">TOP</text>
<g>
  <circle cx="450" cy="252" r="94" fill="url(#gBlue)" stroke="#2f2530" stroke-width="4"/>
  <circle cx="450" cy="252" r="60" fill="#fff0c7" stroke="#2f2530" stroke-width="3"/>
  <circle cx="450" cy="252" r="16" fill="#d6a47a" stroke="#2f2530" stroke-width="2"/>
</g>
</g>
<g transform="translate(160,550)"><text x="320" y="-18" font-family="Arial, sans-serif" font-size="22" font-weight="700" fill="#5c4352" text-anchor="middle">SIDE</text>
<g>
  <line x1="450" y1="42" x2="450" y2="84" stroke="#d6a47a" stroke-width="6"/>
  <rect x="430" y="84" width="40" height="12" rx="6" fill="#d6a47a" stroke="#2f2530" stroke-width="2"/>
  <rect x="442" y="96" width="16" height="40" rx="8" fill="#d6a47a" stroke="#2f2530" stroke-width="2"/>
  <path d="M 366 154 Q 450 112 534 154 L 500 254 Q 450 282 400 254 Z" fill="url(#gBlue)" stroke="#2f2530" stroke-width="4"/>
  <ellipse cx="450" cy="228" rx="38" ry="18" fill="#fff0c7" stroke="#2f2530" stroke-width="2"/>
</g>
</g>
<g transform="translate(880,550)"><text x="152" y="-18" font-family="Arial, sans-serif" font-size="22" font-weight="700" fill="#5c4352" text-anchor="middle">FRONT</text>
<g>
  <line x1="280" y1="42" x2="280" y2="84" stroke="#d6a47a" stroke-width="6"/>
  <rect x="260" y="84" width="40" height="12" rx="6" fill="#d6a47a" stroke="#2f2530" stroke-width="2"/>
  <rect x="272" y="96" width="16" height="40" rx="8" fill="#d6a47a" stroke="#2f2530" stroke-width="2"/>
  <path d="M 196 154 Q 280 112 364 154 L 330 254 Q 280 282 230 254 Z" fill="url(#gBlue)" stroke="#2f2530" stroke-width="4"/>
  <ellipse cx="280" cy="228" rx="38" ry="18" fill="#fff0c7" stroke="#2f2530" stroke-width="2"/>
</g>
</g>
</svg>