<?xml version="1.0" encoding="UTF-8"?>
<svg xmlns="http://www.w3.org/2000/svg" width="1400" height="980" viewBox="0 0 1400 980">

<defs>
  <linearGradient id="gPink" x1="0" y1="0" x2="1" y2="1">
    <stop offset="0%" stop-color="#ffd4e4"/><stop offset="100%" stop-color="#e56fa0"/>
  </linearGradient>
  <linearGradient id="gWood" x1="0" y1="0" x2="1" y2="1">
    <stop offset="0%" stop-color="#f5d4bd"/><stop offset="100%" stop-color="#d6a47a"/>
  </linearGradient>
  <linearGradient id="gBlue" x1="0" y1="0" x2="1" y2="1">
    <stop offset="0%" stop-color="#aee3ff"/><stop offset="100%" stop-color="#78c6ea"/>
  </linearGradient>
  <linearGradient id="gMint" x1="0" y1="0" x2="1" y2="1">
    <stop offset="0%" stop-color="#86d7c0"/><stop offset="100%" stop-color="#63b79e"/>
  </linearGradient>
  <linearGradient id="gLav" x1="0" y1="0" x2="1" y2="1">
    <stop offset="0%" stop-color="#c9b5ff"/><stop offset="100%" stop-color="#aa92ef"/>
  </linearGradient>
</defs>

<rect x="0" y="0" width="1400" height="980" fill="#fff8fb"/>
<text x="700" y="42" font-family="Arial, sans-serif" font-size="30" font-weight="700" fill="#5c4352" text-anchor="middle">Шкаф — 3 ортографических SVG-вида</text>
<text x="700" y="72" font-family="Arial, sans-serif" font-size="17" fill="#5c4352" text-anchor="middle">v2: исправлены нелогичные проекции по замечаниям. Чистый orthographic.</text>
<g transform="translate(160,120)"><text x="320" y="-18" font-family="Arial, sans-serif" font-size="22" font-weight="700" fill="#5c4352" text-anchor="middle">TOP</text>
<g>
  <rect x="130" y="190" width="640" height="110" rx="16" fill="url(#gWood)" stroke="#2f2530" stroke-width="4"/>
  <rect x="148" y="206" width="604" height="78" rx="10" fill="#e8c09b" stroke="#2f2530" stroke-width="2"/>
  <line x1="450" y1="206" x2="450" y2="284" stroke="#2f2530" stroke-width="2"/>
  <rect x="434" y="230" width="32" height="18" rx="7" fill="#fff2b2" stroke="#2f2530" stroke-width="2"/>
</g>
</g>
<g transform="translate(160,550)"><text x="320" y="-18" font-family="Arial, sans-serif" font-size="22" font-weight="700" fill="#5c4352" text-anchor="middle">SIDE</text>
<g>
  <line x1="90" y1="292" x2="810" y2="292" stroke="#b98aa0" stroke-width="3" stroke-dasharray="10 8"/>
  <rect x="248" y="52" width="374" height="240" rx="18" fill="url(#gWood)" stroke="#2f2530" stroke-width="4"/>
  <rect x="264" y="52" width="342" height="24" rx="8" fill="#e8c09b" stroke="#2f2530" stroke-width="2"/>
  <rect x="270" y="84" width="160" height="188" rx="12" fill="#f5d4bd" opacity="0.65" stroke="#2f2530" stroke-width="2"/>
  <rect x="440" y="84" width="160" height="188" rx="12" fill="#f5d4bd" opacity="0.65" stroke="#2f2530" stroke-width="2"/>
</g>
</g>
<g transform="translate(880,550)"><text x="152" y="-18" font-family="Arial, sans-serif" font-size="22" font-weight="700" fill="#5c4352" text-anchor="middle">FRONT</text>
<g>
  <line x1="64" y1="292" x2="496" y2="292" stroke="#b98aa0" stroke-width="3" stroke-dasharray="10 8"/>
  <rect x="92" y="52" width="376" height="240" rx="18" fill="url(#gWood)" stroke="#2f2530" stroke-width="4"/>
  <rect x="108" y="52" width="344" height="24" rx="8" fill="#e8c09b" stroke="#2f2530" stroke-width="2"/>
  <rect x="114" y="84" width="164" height="188" rx="12" fill="#f5d4bd" opacity="0.65" stroke="#2f2530" stroke-width="2"/>
  <rect x="282" y="84" width="164" height="188" rx="12" fill="#f5d4bd" opacity="0.65" stroke="#2f2530" stroke-width="2"/>
</g>
</g>
</svg>