<?xml version="1.0" encoding="UTF-8"?>
<svg xmlns="http://www.w3.org/2000/svg" width="1400" height="980" viewBox="0 0 1400 980">

<defs>
  <linearGradient id="gPink" x1="0" y1="0" x2="1" y2="1">
    <stop offset="0%" stop-color="#ffd4e4"/><stop offset="100%" stop-color="#e56fa0"/>
  </linearGradient>
  <linearGradient id="gWood" x1="0" y1="0" x2="1" y2="1">
    <stop offset="0%" stop-color="#f5d4bd"/><stop offset="100%" stop-color="#d6a47a"/>
  </linearGradient>
  <linearGradient id="gBlue" x1="0" y1="0" x2="1" y2="1">
    <stop offset="0%" stop-color="#aee3ff"/><stop offset="100%" stop-color="#78c6ea"/>
  </linearGradient>
  <linearGradient id="gMint" x1="0" y1="0" x2="1" y2="1">
    <stop offset="0%" stop-color="#86d7c0"/><stop offset="100%" stop-color="#63b79e"/>
  </linearGradient>
  <linearGradient id="gLav" x1="0" y1="0" x2="1" y2="1">
    <stop offset="0%" stop-color="#c9b5ff"/><stop offset="100%" stop-color="#aa92ef"/>
  </linearGradient>
</defs>

<rect x="0" y="0" width="1400" height="980" fill="#fff8fb"/>
<text x="700" y="42" font-family="Arial, sans-serif" font-size="30" font-weight="700" fill="#5c4352" text-anchor="middle">Книжный шкаф — 3 ортографических SVG-вида</text>
<text x="700" y="72" font-family="Arial, sans-serif" font-size="17" fill="#5c4352" text-anchor="middle">Итерация v4. Исправлены замечания пользователя.</text>
<g transform="translate(160,120)"><text x="320" y="-18" font-family="Arial, sans-serif" font-size="22" font-weight="700" fill="#5c4352" text-anchor="middle">TOP</text>
<g>
  <rect x="138" y="194" width="624" height="128" rx="12" fill="url(#gWood)" stroke="#2f2530" stroke-width="4"/>
  <rect x="154" y="210" width="592" height="96" rx="6" fill="#e8c09b" stroke="#2f2530" stroke-width="2"/>
  <rect x="164" y="220" width="572" height="76" rx="4" fill="#f5d4bd" opacity="0.35" stroke="#2f2530" stroke-width="1.5"/>
</g>
</g>
<g transform="translate(160,550)"><text x="320" y="-18" font-family="Arial, sans-serif" font-size="22" font-weight="700" fill="#5c4352" text-anchor="middle">SIDE</text>
<g>
  <line x1="100" y1="292" x2="800" y2="292" stroke="#b98aa0" stroke-width="3" stroke-dasharray="10 8"/>
  <rect x="332" y="84" width="236" height="208" rx="12" fill="url(#gWood)" stroke="#2f2530" stroke-width="4"/>
  <rect x="348" y="100" width="204" height="176" rx="6" fill="#e8c09b" stroke="#2f2530" stroke-width="2"/>
</g>
</g>
<g transform="translate(880,550)"><text x="152" y="-18" font-family="Arial, sans-serif" font-size="22" font-weight="700" fill="#5c4352" text-anchor="middle">FRONT</text>
<g>
  <line x1="64" y1="292" x2="496" y2="292" stroke="#b98aa0" stroke-width="3" stroke-dasharray="10 8"/>
  <rect x="70" y="84" width="420" height="208" rx="12" fill="url(#gWood)" stroke="#2f2530" stroke-width="4"/>
  <rect x="92" y="106" width="376" height="14" rx="4" fill="#e8c09b" stroke="#2f2530" stroke-width="2"/>
  <rect x="92" y="156" width="376" height="10" rx="4" fill="#e8c09b" stroke="#2f2530" stroke-width="2"/>
  <rect x="92" y="204" width="376" height="10" rx="4" fill="#e8c09b" stroke="#2f2530" stroke-width="2"/>
  <rect x="92" y="252" width="376" height="10" rx="4" fill="#e8c09b" stroke="#2f2530" stroke-width="2"/>
  <rect x="84" y="96" width="14" height="174" fill="#d6a47a" opacity="0.75"/>
  <rect x="462" y="96" width="14" height="174" fill="#d6a47a" opacity="0.75"/>
</g>
</g>
</svg>