<?xml version="1.0" encoding="UTF-8"?><svg xmlns="http://www.w3.org/2000/svg" width="560" height="390" viewBox="0 0 560 390">
<defs>
  <linearGradient id="gPink" x1="0" y1="0" x2="1" y2="1">
    <stop offset="0%" stop-color="#ffd4e4"/><stop offset="100%" stop-color="#e56fa0"/>
  </linearGradient>
  <linearGradient id="gWood" x1="0" y1="0" x2="1" y2="1">
    <stop offset="0%" stop-color="#f5d4bd"/><stop offset="100%" stop-color="#d6a47a"/>
  </linearGradient>
  <linearGradient id="gBlue" x1="0" y1="0" x2="1" y2="1">
    <stop offset="0%" stop-color="#aee3ff"/><stop offset="100%" stop-color="#78c6ea"/>
  </linearGradient>
  <linearGradient id="gMint" x1="0" y1="0" x2="1" y2="1">
    <stop offset="0%" stop-color="#86d7c0"/><stop offset="100%" stop-color="#63b79e"/>
  </linearGradient>
  <linearGradient id="gLav" x1="0" y1="0" x2="1" y2="1">
    <stop offset="0%" stop-color="#c9b5ff"/><stop offset="100%" stop-color="#aa92ef"/>
  </linearGradient>
</defs>
<rect x="0" y="0" width="560" height="390" fill="#fff8fb"/><g><line x1="40" y1="40" x2="40" y2="350" stroke="#f0d9e4" stroke-width="1" opacity="0.55"/><line x1="80" y1="40" x2="80" y2="350" stroke="#f0d9e4" stroke-width="1" opacity="0.55"/><line x1="120" y1="40" x2="120" y2="350" stroke="#f0d9e4" stroke-width="1" opacity="0.55"/><line x1="160" y1="40" x2="160" y2="350" stroke="#f0d9e4" stroke-width="1" opacity="0.55"/><line x1="200" y1="40" x2="200" y2="350" stroke="#f0d9e4" stroke-width="1" opacity="0.55"/><line x1="240" y1="40" x2="240" y2="350" stroke="#f0d9e4" stroke-width="1" opacity="0.55"/><line x1="280" y1="40" x2="280" y2="350" stroke="#f0d9e4" stroke-width="1" opacity="0.55"/><line x1="320" y1="40" x2="320" y2="350" stroke="#f0d9e4" stroke-width="1" opacity="0.55"/><line x1="360" y1="40" x2="360" y2="350" stroke="#f0d9e4" stroke-width="1" opacity="0.55"/><line x1="400" y1="40" x2="400" y2="350" stroke="#f0d9e4" stroke-width="1" opacity="0.55"/><line x1="440" y1="40" x2="440" y2="350" stroke="#f0d9e4" stroke-width="1" opacity="0.55"/><line x1="480" y1="40" x2="480" y2="350" stroke="#f0d9e4" stroke-width="1" opacity="0.55"/><line x1="520" y1="40" x2="520" y2="350" stroke="#f0d9e4" stroke-width="1" opacity="0.55"/><line x1="40" y1="40" x2="520" y2="40" stroke="#f0d9e4" stroke-width="1" opacity="0.55"/><line x1="40" y1="80" x2="520" y2="80" stroke="#f0d9e4" stroke-width="1" opacity="0.55"/><line x1="40" y1="120" x2="520" y2="120" stroke="#f0d9e4" stroke-width="1" opacity="0.55"/><line x1="40" y1="160" x2="520" y2="160" stroke="#f0d9e4" stroke-width="1" opacity="0.55"/><line x1="40" y1="200" x2="520" y2="200" stroke="#f0d9e4" stroke-width="1" opacity="0.55"/><line x1="40" y1="240" x2="520" y2="240" stroke="#f0d9e4" stroke-width="1" opacity="0.55"/><line x1="40" y1="280" x2="520" y2="280" stroke="#f0d9e4" stroke-width="1" opacity="0.55"/><line x1="40" y1="320" x2="520" y2="320" stroke="#f0d9e4" stroke-width="1" opacity="0.55"/><line x1="40" y1="360" x2="520" y2="360" stroke="#f0d9e4" stroke-width="1" opacity="0.55"/></g><text x="280.0" y="34" font-family="Arial, sans-serif" font-size="26" font-weight="700" fill="#5c4352" text-anchor="middle">Книги на полках — вид спереди / FRONT</text>
<g>
  <line x1="64" y1="292" x2="496" y2="292" stroke="#b98aa0" stroke-width="3" stroke-dasharray="10 8"/>
  <rect x="92" y="156" width="34" height="136" rx="6" fill="#ff9faf" stroke="#2f2530" stroke-width="2"/>
  <rect x="130" y="148" width="28" height="144" rx="6" fill="#aee3ff" stroke="#2f2530" stroke-width="2"/>
  <rect x="162" y="160" width="38" height="132" rx="6" fill="#c9b5ff" stroke="#2f2530" stroke-width="2"/>
  <rect x="204" y="152" width="26" height="140" rx="6" fill="#86d7c0" stroke="#2f2530" stroke-width="2"/>
  <rect x="236" y="164" width="34" height="128" rx="6" fill="#fff4c7" stroke="#2f2530" stroke-width="2"/>
  <rect x="274" y="150" width="32" height="142" rx="6" fill="#ffd4e4" stroke="#2f2530" stroke-width="2"/>
  <rect x="310" y="156" width="36" height="136" rx="6" fill="#ff9faf" stroke="#2f2530" stroke-width="2"/>
</g>
<line x1="92" y1="332" x2="346" y2="332" stroke="#b98aa0" stroke-width="2"/><line x1="92" y1="324" x2="92" y2="340" stroke="#b98aa0" stroke-width="2"/><line x1="346" y1="324" x2="346" y2="340" stroke="#b98aa0" stroke-width="2"/><text x="219.0" y="320" font-family="Arial, sans-serif" font-size="18" fill="#5c4352" text-anchor="middle">ширина ряда 0.36 м</text><line x1="60" y1="148" x2="60" y2="292" stroke="#b98aa0" stroke-width="2"/><line x1="52" y1="148" x2="68" y2="148" stroke="#b98aa0" stroke-width="2"/><line x1="52" y1="292" x2="68" y2="292" stroke="#b98aa0" stroke-width="2"/><text x="32" y="220.0" transform="rotate(-90 32 220.0)" font-family="Arial, sans-serif" font-size="18" fill="#5c4352" text-anchor="middle">высота 0.25 м</text></svg>