<?xml version="1.0" encoding="UTF-8"?>
<svg xmlns="http://www.w3.org/2000/svg" width="1400" height="980" viewBox="0 0 1400 980">

<defs>
  <linearGradient id="gPink" x1="0" y1="0" x2="1" y2="1">
    <stop offset="0%" stop-color="#ffd4e4"/><stop offset="100%" stop-color="#e56fa0"/>
  </linearGradient>
  <linearGradient id="gWood" x1="0" y1="0" x2="1" y2="1">
    <stop offset="0%" stop-color="#f5d4bd"/><stop offset="100%" stop-color="#d6a47a"/>
  </linearGradient>
  <linearGradient id="gBlue" x1="0" y1="0" x2="1" y2="1">
    <stop offset="0%" stop-color="#aee3ff"/><stop offset="100%" stop-color="#78c6ea"/>
  </linearGradient>
  <linearGradient id="gMint" x1="0" y1="0" x2="1" y2="1">
    <stop offset="0%" stop-color="#86d7c0"/><stop offset="100%" stop-color="#63b79e"/>
  </linearGradient>
  <linearGradient id="gLav" x1="0" y1="0" x2="1" y2="1">
    <stop offset="0%" stop-color="#c9b5ff"/><stop offset="100%" stop-color="#aa92ef"/>
  </linearGradient>
</defs>

<rect x="0" y="0" width="1400" height="980" fill="#fff8fb"/>
<text x="700" y="42" font-family="Arial, sans-serif" font-size="30" font-weight="700" fill="#5c4352" text-anchor="middle">Книги на полках — 3 ортографических SVG-вида</text>
<text x="700" y="72" font-family="Arial, sans-serif" font-size="17" fill="#5c4352" text-anchor="middle">v2: исправлены нелогичные проекции по замечаниям. Чистый orthographic.</text>
<g transform="translate(160,120)"><text x="320" y="-18" font-family="Arial, sans-serif" font-size="22" font-weight="700" fill="#5c4352" text-anchor="middle">TOP</text>
<g>
  <rect x="232" y="224" width="28" height="84" rx="5" fill="#ff9faf" stroke="#2f2530" stroke-width="2"/>
  <rect x="264" y="220" width="22" height="88" rx="5" fill="#aee3ff" stroke="#2f2530" stroke-width="2"/>
  <rect x="290" y="226" width="30" height="82" rx="5" fill="#c9b5ff" stroke="#2f2530" stroke-width="2"/>
  <rect x="326" y="222" width="20" height="86" rx="5" fill="#86d7c0" stroke="#2f2530" stroke-width="2"/>
  <rect x="352" y="228" width="26" height="80" rx="5" fill="#fff4c7" stroke="#2f2530" stroke-width="2"/>
  <rect x="386" y="220" width="24" height="88" rx="5" fill="#ffd4e4" stroke="#2f2530" stroke-width="2"/>
  <rect x="420" y="224" width="28" height="84" rx="5" fill="#ff9faf" stroke="#2f2530" stroke-width="2"/>
</g>
</g>
<g transform="translate(160,550)"><text x="320" y="-18" font-family="Arial, sans-serif" font-size="22" font-weight="700" fill="#5c4352" text-anchor="middle">SIDE</text>
<g>
  <line x1="100" y1="292" x2="800" y2="292" stroke="#b98aa0" stroke-width="3" stroke-dasharray="10 8"/>
  <rect x="408" y="124" width="84" height="168" rx="8" fill="#ff9faf" stroke="#2f2530" stroke-width="3"/>
  <rect x="420" y="136" width="60" height="144" rx="6" fill="none" stroke="#ffffff" stroke-width="2" opacity="0.28"/>
  <line x1="408" y1="150" x2="492" y2="150" stroke="#ffffff" stroke-width="2" opacity="0.22"/>
</g>
</g>
<g transform="translate(880,550)"><text x="152" y="-18" font-family="Arial, sans-serif" font-size="22" font-weight="700" fill="#5c4352" text-anchor="middle">FRONT</text>
<g>
  <line x1="64" y1="292" x2="496" y2="292" stroke="#b98aa0" stroke-width="3" stroke-dasharray="10 8"/>
  <rect x="92" y="156" width="34" height="136" rx="6" fill="#ff9faf" stroke="#2f2530" stroke-width="2"/>
  <rect x="130" y="148" width="28" height="144" rx="6" fill="#aee3ff" stroke="#2f2530" stroke-width="2"/>
  <rect x="162" y="160" width="38" height="132" rx="6" fill="#c9b5ff" stroke="#2f2530" stroke-width="2"/>
  <rect x="204" y="152" width="26" height="140" rx="6" fill="#86d7c0" stroke="#2f2530" stroke-width="2"/>
  <rect x="236" y="164" width="34" height="128" rx="6" fill="#fff4c7" stroke="#2f2530" stroke-width="2"/>
  <rect x="274" y="150" width="32" height="142" rx="6" fill="#ffd4e4" stroke="#2f2530" stroke-width="2"/>
  <rect x="310" y="156" width="36" height="136" rx="6" fill="#ff9faf" stroke="#2f2530" stroke-width="2"/>
</g>
</g>
</svg>