<?xml version="1.0" encoding="UTF-8"?>
<svg xmlns="http://www.w3.org/2000/svg" width="1400" height="980" viewBox="0 0 1400 980">

<defs>
  <linearGradient id="gPink" x1="0" y1="0" x2="1" y2="1">
    <stop offset="0%" stop-color="#ffd4e4"/><stop offset="100%" stop-color="#e56fa0"/>
  </linearGradient>
  <linearGradient id="gWood" x1="0" y1="0" x2="1" y2="1">
    <stop offset="0%" stop-color="#f5d4bd"/><stop offset="100%" stop-color="#d6a47a"/>
  </linearGradient>
  <linearGradient id="gBlue" x1="0" y1="0" x2="1" y2="1">
    <stop offset="0%" stop-color="#aee3ff"/><stop offset="100%" stop-color="#78c6ea"/>
  </linearGradient>
  <linearGradient id="gMint" x1="0" y1="0" x2="1" y2="1">
    <stop offset="0%" stop-color="#86d7c0"/><stop offset="100%" stop-color="#63b79e"/>
  </linearGradient>
  <linearGradient id="gLav" x1="0" y1="0" x2="1" y2="1">
    <stop offset="0%" stop-color="#c9b5ff"/><stop offset="100%" stop-color="#aa92ef"/>
  </linearGradient>
</defs>

<rect x="0" y="0" width="1400" height="980" fill="#fff8fb"/>
<text x="700" y="42" font-family="Arial, sans-serif" font-size="30" font-weight="700" fill="#5c4352" text-anchor="middle">Плюшевая игрушка на полке — 3 ортографических SVG-вида</text>
<text x="700" y="72" font-family="Arial, sans-serif" font-size="17" fill="#5c4352" text-anchor="middle">Итерация v4. Исправлены замечания пользователя.</text>
<g transform="translate(160,120)"><text x="320" y="-18" font-family="Arial, sans-serif" font-size="22" font-weight="700" fill="#5c4352" text-anchor="middle">TOP</text>
<g>
  <ellipse cx="450" cy="248" rx="96" ry="70" fill="url(#gBlue)" stroke="#2f2530" stroke-width="4"/>
  <circle cx="450" cy="160" r="46" fill="url(#gBlue)" stroke="#2f2530" stroke-width="4"/>
  <ellipse cx="408" cy="154" rx="28" ry="34" fill="#aee3ff" stroke="#2f2530" stroke-width="4"/>
  <ellipse cx="492" cy="154" rx="28" ry="34" fill="#aee3ff" stroke="#2f2530" stroke-width="4"/>
  <circle cx="436" cy="156" r="4.5" fill="#2f2530"/>
  <circle cx="464" cy="156" r="4.5" fill="#2f2530"/>
  <path d="M 450 166 C 460 174 460 188 450 194 C 442 198 438 206 442 214" fill="none" stroke="#2f2530" stroke-width="4" stroke-linecap="round"/>
  <ellipse cx="424" cy="250" rx="18" ry="14" fill="#aee3ff" stroke="#2f2530" stroke-width="3"/>
  <ellipse cx="476" cy="250" rx="18" ry="14" fill="#aee3ff" stroke="#2f2530" stroke-width="3"/>
  <ellipse cx="418" cy="286" rx="16" ry="12" fill="#aee3ff" stroke="#2f2530" stroke-width="3"/>
  <ellipse cx="482" cy="286" rx="16" ry="12" fill="#aee3ff" stroke="#2f2530" stroke-width="3"/>
</g>
</g>
<g transform="translate(160,550)"><text x="320" y="-18" font-family="Arial, sans-serif" font-size="22" font-weight="700" fill="#5c4352" text-anchor="middle">SIDE</text>
<g>
  <line x1="100" y1="292" x2="800" y2="292" stroke="#b98aa0" stroke-width="3" stroke-dasharray="10 8"/>
  <ellipse cx="448" cy="246" rx="82" ry="48" fill="url(#gBlue)" stroke="#2f2530" stroke-width="4"/>
  <circle cx="450" cy="164" r="42" fill="url(#gBlue)" stroke="#2f2530" stroke-width="4"/>
  <ellipse cx="416" cy="160" rx="24" ry="30" fill="#aee3ff" stroke="#2f2530" stroke-width="4"/>
  <ellipse cx="450" cy="176" rx="8" ry="16" fill="none" stroke="#2f2530" stroke-width="4"/>
  <path d="M 450 188 Q 438 204 444 216" fill="none" stroke="#2f2530" stroke-width="4" stroke-linecap="round"/>
  <circle cx="438" cy="156" r="4" fill="#2f2530"/>
</g>
</g>
<g transform="translate(880,550)"><text x="152" y="-18" font-family="Arial, sans-serif" font-size="22" font-weight="700" fill="#5c4352" text-anchor="middle">FRONT</text>
<g>
  <line x1="64" y1="292" x2="496" y2="292" stroke="#b98aa0" stroke-width="3" stroke-dasharray="10 8"/>
  <ellipse cx="280" cy="246" rx="74" ry="52" fill="url(#gBlue)" stroke="#2f2530" stroke-width="4"/>
  <circle cx="280" cy="164" r="42" fill="url(#gBlue)" stroke="#2f2530" stroke-width="4"/>
  <ellipse cx="246" cy="158" rx="22" ry="30" fill="#aee3ff" stroke="#2f2530" stroke-width="4"/>
  <ellipse cx="314" cy="158" rx="22" ry="30" fill="#aee3ff" stroke="#2f2530" stroke-width="4"/>
  <circle cx="266" cy="156" r="4" fill="#2f2530"/>
  <circle cx="294" cy="156" r="4" fill="#2f2530"/>
  <path d="M 280 170 C 292 178 292 190 282 196 C 274 200 272 208 276 214" fill="none" stroke="#2f2530" stroke-width="4" stroke-linecap="round"/>
</g>
</g>
</svg>