<?xml version="1.0" encoding="UTF-8"?><svg xmlns="http://www.w3.org/2000/svg" width="900" height="520" viewBox="0 0 900 520">
<defs>
  <linearGradient id="gPink" x1="0" y1="0" x2="1" y2="1">
    <stop offset="0%" stop-color="#ffd4e4"/><stop offset="100%" stop-color="#e56fa0"/>
  </linearGradient>
  <linearGradient id="gWood" x1="0" y1="0" x2="1" y2="1">
    <stop offset="0%" stop-color="#f5d4bd"/><stop offset="100%" stop-color="#d6a47a"/>
  </linearGradient>
  <linearGradient id="gBlue" x1="0" y1="0" x2="1" y2="1">
    <stop offset="0%" stop-color="#aee3ff"/><stop offset="100%" stop-color="#78c6ea"/>
  </linearGradient>
  <linearGradient id="gMint" x1="0" y1="0" x2="1" y2="1">
    <stop offset="0%" stop-color="#86d7c0"/><stop offset="100%" stop-color="#63b79e"/>
  </linearGradient>
  <linearGradient id="gLav" x1="0" y1="0" x2="1" y2="1">
    <stop offset="0%" stop-color="#c9b5ff"/><stop offset="100%" stop-color="#aa92ef"/>
  </linearGradient>
</defs>
<rect x="0" y="0" width="900" height="520" fill="#fff8fb"/><g><line x1="40" y1="40" x2="40" y2="480" stroke="#f0d9e4" stroke-width="1" opacity="0.55"/><line x1="80" y1="40" x2="80" y2="480" stroke="#f0d9e4" stroke-width="1" opacity="0.55"/><line x1="120" y1="40" x2="120" y2="480" stroke="#f0d9e4" stroke-width="1" opacity="0.55"/><line x1="160" y1="40" x2="160" y2="480" stroke="#f0d9e4" stroke-width="1" opacity="0.55"/><line x1="200" y1="40" x2="200" y2="480" stroke="#f0d9e4" stroke-width="1" opacity="0.55"/><line x1="240" y1="40" x2="240" y2="480" stroke="#f0d9e4" stroke-width="1" opacity="0.55"/><line x1="280" y1="40" x2="280" y2="480" stroke="#f0d9e4" stroke-width="1" opacity="0.55"/><line x1="320" y1="40" x2="320" y2="480" stroke="#f0d9e4" stroke-width="1" opacity="0.55"/><line x1="360" y1="40" x2="360" y2="480" stroke="#f0d9e4" stroke-width="1" opacity="0.55"/><line x1="400" y1="40" x2="400" y2="480" stroke="#f0d9e4" stroke-width="1" opacity="0.55"/><line x1="440" y1="40" x2="440" y2="480" stroke="#f0d9e4" stroke-width="1" opacity="0.55"/><line x1="480" y1="40" x2="480" y2="480" stroke="#f0d9e4" stroke-width="1" opacity="0.55"/><line x1="520" y1="40" x2="520" y2="480" stroke="#f0d9e4" stroke-width="1" opacity="0.55"/><line x1="560" y1="40" x2="560" y2="480" stroke="#f0d9e4" stroke-width="1" opacity="0.55"/><line x1="600" y1="40" x2="600" y2="480" stroke="#f0d9e4" stroke-width="1" opacity="0.55"/><line x1="640" y1="40" x2="640" y2="480" stroke="#f0d9e4" stroke-width="1" opacity="0.55"/><line x1="680" y1="40" x2="680" y2="480" stroke="#f0d9e4" stroke-width="1" opacity="0.55"/><line x1="720" y1="40" x2="720" y2="480" stroke="#f0d9e4" stroke-width="1" opacity="0.55"/><line x1="760" y1="40" x2="760" y2="480" stroke="#f0d9e4" stroke-width="1" opacity="0.55"/><line x1="800" y1="40" x2="800" y2="480" stroke="#f0d9e4" stroke-width="1" opacity="0.55"/><line x1="840" y1="40" x2="840" y2="480" stroke="#f0d9e4" stroke-width="1" opacity="0.55"/><line x1="880" y1="40" x2="880" y2="480" stroke="#f0d9e4" stroke-width="1" opacity="0.55"/><line x1="40" y1="40" x2="860" y2="40" stroke="#f0d9e4" stroke-width="1" opacity="0.55"/><line x1="40" y1="80" x2="860" y2="80" stroke="#f0d9e4" stroke-width="1" opacity="0.55"/><line x1="40" y1="120" x2="860" y2="120" stroke="#f0d9e4" stroke-width="1" opacity="0.55"/><line x1="40" y1="160" x2="860" y2="160" stroke="#f0d9e4" stroke-width="1" opacity="0.55"/><line x1="40" y1="200" x2="860" y2="200" stroke="#f0d9e4" stroke-width="1" opacity="0.55"/><line x1="40" y1="240" x2="860" y2="240" stroke="#f0d9e4" stroke-width="1" opacity="0.55"/><line x1="40" y1="280" x2="860" y2="280" stroke="#f0d9e4" stroke-width="1" opacity="0.55"/><line x1="40" y1="320" x2="860" y2="320" stroke="#f0d9e4" stroke-width="1" opacity="0.55"/><line x1="40" y1="360" x2="860" y2="360" stroke="#f0d9e4" stroke-width="1" opacity="0.55"/><line x1="40" y1="400" x2="860" y2="400" stroke="#f0d9e4" stroke-width="1" opacity="0.55"/><line x1="40" y1="440" x2="860" y2="440" stroke="#f0d9e4" stroke-width="1" opacity="0.55"/><line x1="40" y1="480" x2="860" y2="480" stroke="#f0d9e4" stroke-width="1" opacity="0.55"/></g><text x="450.0" y="34" font-family="Arial, sans-serif" font-size="26" font-weight="700" fill="#5c4352" text-anchor="middle">Плюшевая игрушка на полке — вид сверху / TOP</text>
<g>
  <ellipse cx="450" cy="248" rx="96" ry="70" fill="url(#gBlue)" stroke="#2f2530" stroke-width="4"/>
  <circle cx="450" cy="160" r="46" fill="url(#gBlue)" stroke="#2f2530" stroke-width="4"/>
  <ellipse cx="408" cy="154" rx="28" ry="34" fill="#aee3ff" stroke="#2f2530" stroke-width="4"/>
  <ellipse cx="492" cy="154" rx="28" ry="34" fill="#aee3ff" stroke="#2f2530" stroke-width="4"/>
  <circle cx="436" cy="156" r="4.5" fill="#2f2530"/>
  <circle cx="464" cy="156" r="4.5" fill="#2f2530"/>
  <path d="M 450 166 C 460 174 460 188 450 194 C 442 198 438 206 442 214" fill="none" stroke="#2f2530" stroke-width="4" stroke-linecap="round"/>
  <ellipse cx="424" cy="250" rx="18" ry="14" fill="#aee3ff" stroke="#2f2530" stroke-width="3"/>
  <ellipse cx="476" cy="250" rx="18" ry="14" fill="#aee3ff" stroke="#2f2530" stroke-width="3"/>
  <ellipse cx="418" cy="286" rx="16" ry="12" fill="#aee3ff" stroke="#2f2530" stroke-width="3"/>
  <ellipse cx="482" cy="286" rx="16" ry="12" fill="#aee3ff" stroke="#2f2530" stroke-width="3"/>
</g>
<line x1="354" y1="394" x2="546" y2="394" stroke="#b98aa0" stroke-width="2"/><line x1="354" y1="386" x2="354" y2="402" stroke="#b98aa0" stroke-width="2"/><line x1="546" y1="386" x2="546" y2="402" stroke="#b98aa0" stroke-width="2"/><text x="450.0" y="382" font-family="Arial, sans-serif" font-size="18" fill="#5c4352" text-anchor="middle">ширина 0.22 м</text><line x1="306" y1="114" x2="306" y2="318" stroke="#b98aa0" stroke-width="2"/><line x1="298" y1="114" x2="314" y2="114" stroke="#b98aa0" stroke-width="2"/><line x1="298" y1="318" x2="314" y2="318" stroke="#b98aa0" stroke-width="2"/><text x="278" y="216.0" transform="rotate(-90 278 216.0)" font-family="Arial, sans-serif" font-size="18" fill="#5c4352" text-anchor="middle">длина 0.18 м</text></svg>