<?xml version="1.0" encoding="UTF-8"?><svg xmlns="http://www.w3.org/2000/svg" width="900" height="390" viewBox="0 0 900 390">
<defs>
  <linearGradient id="gPink" x1="0" y1="0" x2="1" y2="1">
    <stop offset="0%" stop-color="#ffd4e4"/><stop offset="100%" stop-color="#e56fa0"/>
  </linearGradient>
  <linearGradient id="gWood" x1="0" y1="0" x2="1" y2="1">
    <stop offset="0%" stop-color="#f5d4bd"/><stop offset="100%" stop-color="#d6a47a"/>
  </linearGradient>
  <linearGradient id="gBlue" x1="0" y1="0" x2="1" y2="1">
    <stop offset="0%" stop-color="#aee3ff"/><stop offset="100%" stop-color="#78c6ea"/>
  </linearGradient>
  <linearGradient id="gMint" x1="0" y1="0" x2="1" y2="1">
    <stop offset="0%" stop-color="#86d7c0"/><stop offset="100%" stop-color="#63b79e"/>
  </linearGradient>
  <linearGradient id="gLav" x1="0" y1="0" x2="1" y2="1">
    <stop offset="0%" stop-color="#c9b5ff"/><stop offset="100%" stop-color="#aa92ef"/>
  </linearGradient>
</defs>
<rect x="0" y="0" width="900" height="390" fill="#fff8fb"/><g><line x1="40" y1="40" x2="40" y2="350" stroke="#f0d9e4" stroke-width="1" opacity="0.55"/><line x1="80" y1="40" x2="80" y2="350" stroke="#f0d9e4" stroke-width="1" opacity="0.55"/><line x1="120" y1="40" x2="120" y2="350" stroke="#f0d9e4" stroke-width="1" opacity="0.55"/><line x1="160" y1="40" x2="160" y2="350" stroke="#f0d9e4" stroke-width="1" opacity="0.55"/><line x1="200" y1="40" x2="200" y2="350" stroke="#f0d9e4" stroke-width="1" opacity="0.55"/><line x1="240" y1="40" x2="240" y2="350" stroke="#f0d9e4" stroke-width="1" opacity="0.55"/><line x1="280" y1="40" x2="280" y2="350" stroke="#f0d9e4" stroke-width="1" opacity="0.55"/><line x1="320" y1="40" x2="320" y2="350" stroke="#f0d9e4" stroke-width="1" opacity="0.55"/><line x1="360" y1="40" x2="360" y2="350" stroke="#f0d9e4" stroke-width="1" opacity="0.55"/><line x1="400" y1="40" x2="400" y2="350" stroke="#f0d9e4" stroke-width="1" opacity="0.55"/><line x1="440" y1="40" x2="440" y2="350" stroke="#f0d9e4" stroke-width="1" opacity="0.55"/><line x1="480" y1="40" x2="480" y2="350" stroke="#f0d9e4" stroke-width="1" opacity="0.55"/><line x1="520" y1="40" x2="520" y2="350" stroke="#f0d9e4" stroke-width="1" opacity="0.55"/><line x1="560" y1="40" x2="560" y2="350" stroke="#f0d9e4" stroke-width="1" opacity="0.55"/><line x1="600" y1="40" x2="600" y2="350" stroke="#f0d9e4" stroke-width="1" opacity="0.55"/><line x1="640" y1="40" x2="640" y2="350" stroke="#f0d9e4" stroke-width="1" opacity="0.55"/><line x1="680" y1="40" x2="680" y2="350" stroke="#f0d9e4" stroke-width="1" opacity="0.55"/><line x1="720" y1="40" x2="720" y2="350" stroke="#f0d9e4" stroke-width="1" opacity="0.55"/><line x1="760" y1="40" x2="760" y2="350" stroke="#f0d9e4" stroke-width="1" opacity="0.55"/><line x1="800" y1="40" x2="800" y2="350" stroke="#f0d9e4" stroke-width="1" opacity="0.55"/><line x1="840" y1="40" x2="840" y2="350" stroke="#f0d9e4" stroke-width="1" opacity="0.55"/><line x1="880" y1="40" x2="880" y2="350" stroke="#f0d9e4" stroke-width="1" opacity="0.55"/><line x1="40" y1="40" x2="860" y2="40" stroke="#f0d9e4" stroke-width="1" opacity="0.55"/><line x1="40" y1="80" x2="860" y2="80" stroke="#f0d9e4" stroke-width="1" opacity="0.55"/><line x1="40" y1="120" x2="860" y2="120" stroke="#f0d9e4" stroke-width="1" opacity="0.55"/><line x1="40" y1="160" x2="860" y2="160" stroke="#f0d9e4" stroke-width="1" opacity="0.55"/><line x1="40" y1="200" x2="860" y2="200" stroke="#f0d9e4" stroke-width="1" opacity="0.55"/><line x1="40" y1="240" x2="860" y2="240" stroke="#f0d9e4" stroke-width="1" opacity="0.55"/><line x1="40" y1="280" x2="860" y2="280" stroke="#f0d9e4" stroke-width="1" opacity="0.55"/><line x1="40" y1="320" x2="860" y2="320" stroke="#f0d9e4" stroke-width="1" opacity="0.55"/><line x1="40" y1="360" x2="860" y2="360" stroke="#f0d9e4" stroke-width="1" opacity="0.55"/></g><text x="450.0" y="34" font-family="Arial, sans-serif" font-size="26" font-weight="700" fill="#5c4352" text-anchor="middle">Плюшевая игрушка на полке — вид сбоку / SIDE</text>
<g>
  <line x1="100" y1="292" x2="800" y2="292" stroke="#b98aa0" stroke-width="3" stroke-dasharray="10 8"/>
  <ellipse cx="448" cy="246" rx="82" ry="48" fill="url(#gBlue)" stroke="#2f2530" stroke-width="4"/>
  <circle cx="450" cy="164" r="42" fill="url(#gBlue)" stroke="#2f2530" stroke-width="4"/>
  <ellipse cx="416" cy="160" rx="24" ry="30" fill="#aee3ff" stroke="#2f2530" stroke-width="4"/>
  <ellipse cx="450" cy="176" rx="8" ry="16" fill="none" stroke="#2f2530" stroke-width="4"/>
  <path d="M 450 188 Q 438 204 444 216" fill="none" stroke="#2f2530" stroke-width="4" stroke-linecap="round"/>
  <circle cx="438" cy="156" r="4" fill="#2f2530"/>
</g>
<line x1="366" y1="332" x2="530" y2="332" stroke="#b98aa0" stroke-width="2"/><line x1="366" y1="324" x2="366" y2="340" stroke="#b98aa0" stroke-width="2"/><line x1="530" y1="324" x2="530" y2="340" stroke="#b98aa0" stroke-width="2"/><text x="448.0" y="320" font-family="Arial, sans-serif" font-size="18" fill="#5c4352" text-anchor="middle">глубина 0.18 м</text><line x1="342" y1="122" x2="342" y2="292" stroke="#b98aa0" stroke-width="2"/><line x1="334" y1="122" x2="350" y2="122" stroke="#b98aa0" stroke-width="2"/><line x1="334" y1="292" x2="350" y2="292" stroke="#b98aa0" stroke-width="2"/><text x="314" y="207.0" transform="rotate(-90 314 207.0)" font-family="Arial, sans-serif" font-size="18" fill="#5c4352" text-anchor="middle">высота 0.26 м</text></svg>