<?xml version="1.0" encoding="UTF-8"?>
<svg xmlns="http://www.w3.org/2000/svg" width="1400" height="980" viewBox="0 0 1400 980">

<defs>
  <linearGradient id="gWood" x1="0" y1="0" x2="1" y2="1">
    <stop offset="0%" stop-color="#f5d4bd"/><stop offset="100%" stop-color="#d6a47a"/>
  </linearGradient>
  <linearGradient id="gPink" x1="0" y1="0" x2="1" y2="1">
    <stop offset="0%" stop-color="#ffd4e4"/><stop offset="100%" stop-color="#e56fa0"/>
  </linearGradient>
</defs>

<rect x="0" y="0" width="1400" height="980" fill="#fff8fb"/>
<text x="700" y="42" font-family="Arial, sans-serif" font-size="30" font-weight="700" fill="#5c4352" text-anchor="middle">Письменный стол — 3 ортографических SVG-вида</text>
<text x="700" y="72" font-family="Arial, sans-serif" font-size="17" fill="#5c4352" text-anchor="middle">v3: исправлены стол, монитор и кресло по замечаниям.</text>
<g transform="translate(160,120)"><text x="320" y="-18" font-family="Arial, sans-serif" font-size="22" font-weight="700" fill="#5c4352" text-anchor="middle">TOP</text>
<g>
  <rect x="164" y="176" width="572" height="152" rx="12" fill="url(#gWood)" stroke="#2f2530" stroke-width="4"/>
  <rect x="184" y="194" width="532" height="18" rx="4" fill="#e8c09b" stroke="#2f2530" stroke-width="2"/>
  <rect x="196" y="214" width="44" height="96" rx="4" fill="#d6a47a" stroke="#2f2530" stroke-width="2"/>
  <rect x="660" y="214" width="44" height="96" rx="4" fill="#d6a47a" stroke="#2f2530" stroke-width="2"/>
</g>
</g>
<g transform="translate(160,550)"><text x="320" y="-18" font-family="Arial, sans-serif" font-size="22" font-weight="700" fill="#5c4352" text-anchor="middle">SIDE</text>
<g>
  <line x1="100" y1="292" x2="800" y2="292" stroke="#b98aa0" stroke-width="3" stroke-dasharray="10 8"/>
  <rect x="190" y="138" width="520" height="18" rx="5" fill="url(#gWood)" stroke="#2f2530" stroke-width="3"/>
  <rect x="206" y="156" width="488" height="136" rx="4" fill="#d6a47a" stroke="#2f2530" stroke-width="2"/>
</g>
</g>
<g transform="translate(880,550)"><text x="152" y="-18" font-family="Arial, sans-serif" font-size="22" font-weight="700" fill="#5c4352" text-anchor="middle">FRONT</text>
<g>
  <line x1="64" y1="292" x2="496" y2="292" stroke="#b98aa0" stroke-width="3" stroke-dasharray="10 8"/>
  <rect x="94" y="138" width="372" height="18" rx="5" fill="url(#gWood)" stroke="#2f2530" stroke-width="3"/>
  <rect x="110" y="156" width="22" height="136" rx="4" fill="#d6a47a" stroke="#2f2530" stroke-width="2"/>
  <rect x="428" y="156" width="22" height="136" rx="4" fill="#d6a47a" stroke="#2f2530" stroke-width="2"/>
</g>
</g>
</svg>