<?xml version="1.0" encoding="UTF-8"?>
<svg xmlns="http://www.w3.org/2000/svg" width="1400" height="980" viewBox="0 0 1400 980">

<defs>
  <linearGradient id="gPink" x1="0" y1="0" x2="1" y2="1">
    <stop offset="0%" stop-color="#ffd4e4"/><stop offset="100%" stop-color="#e56fa0"/>
  </linearGradient>
</defs>

<rect x="0" y="0" width="1400" height="980" fill="#fff8fb"/>
<text x="700" y="42" font-family="Arial, sans-serif" font-size="30" font-weight="700" fill="#5c4352" text-anchor="middle">Монитор — 3 ортографических SVG-вида</text>
<text x="700" y="72" font-family="Arial, sans-serif" font-size="17" fill="#5c4352" text-anchor="middle">v4: точечная правка логики вида сверху.</text>
<g transform="translate(160,120)"><text x="320" y="-18" font-family="Arial, sans-serif" font-size="22" font-weight="700" fill="#5c4352" text-anchor="middle">TOP</text>
<g>
  <!-- strict top view: only the top thickness of the monitor panel is visible -->
  <rect x="290" y="212" width="320" height="34" rx="8" fill="#677088" stroke="#2f2530" stroke-width="3"/>
  <rect x="304" y="220" width="292" height="18" rx="4" fill="#dff4ff" opacity="0.55" stroke="#2f2530" stroke-width="1.5"/>
</g>
</g>
<g transform="translate(160,550)"><text x="320" y="-18" font-family="Arial, sans-serif" font-size="22" font-weight="700" fill="#5c4352" text-anchor="middle">SIDE</text>
<g>
  <line x1="100" y1="292" x2="800" y2="292" stroke="#b98aa0" stroke-width="3" stroke-dasharray="10 8"/>
  <rect x="396" y="94" width="26" height="158" rx="8" fill="#677088" stroke="#2f2530" stroke-width="3"/>
  <rect x="406" y="252" width="8" height="30" rx="4" fill="#d7dbe6" stroke="#2f2530" stroke-width="2"/>
  <rect x="374" y="282" width="72" height="10" rx="5" fill="#d7dbe6" stroke="#2f2530" stroke-width="2"/>
</g>
</g>
<g transform="translate(880,550)"><text x="152" y="-18" font-family="Arial, sans-serif" font-size="22" font-weight="700" fill="#5c4352" text-anchor="middle">FRONT</text>
<g>
  <line x1="64" y1="292" x2="496" y2="292" stroke="#b98aa0" stroke-width="3" stroke-dasharray="10 8"/>
  <rect x="118" y="108" width="324" height="146" rx="14" fill="#677088" stroke="#2f2530" stroke-width="4"/>
  <rect x="136" y="126" width="288" height="110" rx="10" fill="#dff4ff" stroke="#2f2530" stroke-width="2"/>
  <rect x="272" y="254" width="16" height="24" rx="5" fill="#d7dbe6" stroke="#2f2530" stroke-width="2"/>
  <rect x="232" y="278" width="96" height="14" rx="6" fill="#d7dbe6" stroke="#2f2530" stroke-width="2"/>
</g>
</g>
</svg>