<?xml version="1.0" encoding="UTF-8"?>
<svg xmlns="http://www.w3.org/2000/svg" width="1400" height="980" viewBox="0 0 1400 980">

<defs>
  <linearGradient id="gPink" x1="0" y1="0" x2="1" y2="1">
    <stop offset="0%" stop-color="#ffd4e4"/><stop offset="100%" stop-color="#e56fa0"/>
  </linearGradient>
  <linearGradient id="gWood" x1="0" y1="0" x2="1" y2="1">
    <stop offset="0%" stop-color="#f5d4bd"/><stop offset="100%" stop-color="#d6a47a"/>
  </linearGradient>
  <linearGradient id="gBlue" x1="0" y1="0" x2="1" y2="1">
    <stop offset="0%" stop-color="#aee3ff"/><stop offset="100%" stop-color="#78c6ea"/>
  </linearGradient>
  <linearGradient id="gMint" x1="0" y1="0" x2="1" y2="1">
    <stop offset="0%" stop-color="#86d7c0"/><stop offset="100%" stop-color="#63b79e"/>
  </linearGradient>
  <linearGradient id="gLav" x1="0" y1="0" x2="1" y2="1">
    <stop offset="0%" stop-color="#c9b5ff"/><stop offset="100%" stop-color="#aa92ef"/>
  </linearGradient>
</defs>

<rect x="0" y="0" width="1400" height="980" fill="#fff8fb"/>
<text x="700" y="42" font-family="Arial, sans-serif" font-size="30" font-weight="700" fill="#5c4352" text-anchor="middle">Клавиатура — 3 ортографических SVG-вида</text>
<text x="700" y="72" font-family="Arial, sans-serif" font-size="17" fill="#5c4352" text-anchor="middle">Итерация v2 для проблемных предметов 21–30. Исправлена логика проекций.</text>
<g transform="translate(160,120)"><text x="320" y="-18" font-family="Arial, sans-serif" font-size="22" font-weight="700" fill="#5c4352" text-anchor="middle">TOP</text>
<g>
  <polygon points="276,220 620,220 586,300 310,300" fill="#ffffff" stroke="#2f2530" stroke-width="4"/>
  <polygon points="292,234 606,234 580,288 318,288" fill="#faf7ff" stroke="#2f2530" stroke-width="1.5"/>
  <g fill="#d7dbe6" opacity="0.8">
    <rect x="314" y="244" width="22" height="12" rx="2"/>
    <rect x="340" y="244" width="22" height="12" rx="2"/>
    <rect x="366" y="244" width="22" height="12" rx="2"/>
    <rect x="392" y="244" width="22" height="12" rx="2"/>
    <rect x="418" y="244" width="22" height="12" rx="2"/>
    <rect x="444" y="244" width="22" height="12" rx="2"/>
    <rect x="470" y="244" width="22" height="12" rx="2"/>
    <rect x="496" y="244" width="22" height="12" rx="2"/>
    <rect x="522" y="244" width="22" height="12" rx="2"/>
    <rect x="548" y="244" width="22" height="12" rx="2"/>
    <rect x="318" y="260" width="200" height="12" rx="2"/>
    <rect x="524" y="260" width="50" height="12" rx="2"/>
  </g>
</g>
</g>
<g transform="translate(160,550)"><text x="320" y="-18" font-family="Arial, sans-serif" font-size="22" font-weight="700" fill="#5c4352" text-anchor="middle">SIDE</text>
<g>
  <line x1="100" y1="292" x2="800" y2="292" stroke="#b98aa0" stroke-width="3" stroke-dasharray="10 8"/>
  <polygon points="328,270 584,270 544,292 368,292" fill="#ffffff" stroke="#2f2530" stroke-width="3"/>
</g>
</g>
<g transform="translate(880,550)"><text x="152" y="-18" font-family="Arial, sans-serif" font-size="22" font-weight="700" fill="#5c4352" text-anchor="middle">FRONT</text>
<g>
  <line x1="64" y1="292" x2="496" y2="292" stroke="#b98aa0" stroke-width="3" stroke-dasharray="10 8"/>
  <rect x="120" y="258" width="320" height="34" rx="8" fill="#ffffff" stroke="#2f2530" stroke-width="3"/>
  <rect x="132" y="268" width="296" height="12" rx="4" fill="#d7dbe6" opacity="0.55"/>
</g>
</g>
</svg>