<?xml version="1.0" encoding="UTF-8"?>
<svg xmlns="http://www.w3.org/2000/svg" width="1400" height="980" viewBox="0 0 1400 980">

<defs>
  <linearGradient id="gPink" x1="0" y1="0" x2="1" y2="1">
    <stop offset="0%" stop-color="#ffd4e4"/><stop offset="100%" stop-color="#e56fa0"/>
  </linearGradient>
  <linearGradient id="gWood" x1="0" y1="0" x2="1" y2="1">
    <stop offset="0%" stop-color="#f5d4bd"/><stop offset="100%" stop-color="#d6a47a"/>
  </linearGradient>
  <linearGradient id="gBlue" x1="0" y1="0" x2="1" y2="1">
    <stop offset="0%" stop-color="#aee3ff"/><stop offset="100%" stop-color="#78c6ea"/>
  </linearGradient>
  <linearGradient id="gMint" x1="0" y1="0" x2="1" y2="1">
    <stop offset="0%" stop-color="#86d7c0"/><stop offset="100%" stop-color="#63b79e"/>
  </linearGradient>
  <linearGradient id="gLav" x1="0" y1="0" x2="1" y2="1">
    <stop offset="0%" stop-color="#c9b5ff"/><stop offset="100%" stop-color="#aa92ef"/>
  </linearGradient>
</defs>

<rect x="0" y="0" width="1400" height="980" fill="#fff8fb"/>
<text x="700" y="42" font-family="Arial, sans-serif" font-size="30" font-weight="700" fill="#5c4352" text-anchor="middle">Блокнот — 3 ортографических SVG-вида</text>
<text x="700" y="72" font-family="Arial, sans-serif" font-size="17" fill="#5c4352" text-anchor="middle">Итерация v2 для проблемных предметов 21–30. Исправлена логика проекций.</text>
<g transform="translate(160,120)"><text x="320" y="-18" font-family="Arial, sans-serif" font-size="22" font-weight="700" fill="#5c4352" text-anchor="middle">TOP</text>
<g>
  <rect x="324" y="176" width="252" height="164" rx="10" fill="#faf7ff" stroke="#2f2530" stroke-width="4"/>
  <rect x="334" y="186" width="232" height="144" rx="8" fill="#ffffff" stroke="#ead1dc" stroke-width="2"/>
  <rect x="334" y="186" width="24" height="144" fill="#ffd4e4" opacity="0.8"/>
  <g fill="#d7dbe6" opacity="0.7">
    <circle cx="346" cy="200" r="4"/><circle cx="346" cy="220" r="4"/><circle cx="346" cy="240" r="4"/>
    <circle cx="346" cy="260" r="4"/><circle cx="346" cy="280" r="4"/><circle cx="346" cy="300" r="4"/>
  </g>
  <line x1="372" y1="212" x2="548" y2="212" stroke="#ead1dc" stroke-width="2"/>
  <line x1="372" y1="234" x2="548" y2="234" stroke="#ead1dc" stroke-width="2"/>
  <line x1="372" y1="256" x2="548" y2="256" stroke="#ead1dc" stroke-width="2"/>
</g>
</g>
<g transform="translate(160,550)"><text x="320" y="-18" font-family="Arial, sans-serif" font-size="22" font-weight="700" fill="#5c4352" text-anchor="middle">SIDE</text>
<g>
  <line x1="100" y1="292" x2="800" y2="292" stroke="#b98aa0" stroke-width="3" stroke-dasharray="10 8"/>
  <polygon points="352,252 560,252 550,292 362,292" fill="#faf7ff" stroke="#2f2530" stroke-width="3"/>
  <polygon points="352,252 364,252 354,292 342,292" fill="#ffd4e4" stroke="#2f2530" stroke-width="1.5"/>
</g>
</g>
<g transform="translate(880,550)"><text x="152" y="-18" font-family="Arial, sans-serif" font-size="22" font-weight="700" fill="#5c4352" text-anchor="middle">FRONT</text>
<g>
  <line x1="64" y1="292" x2="496" y2="292" stroke="#b98aa0" stroke-width="3" stroke-dasharray="10 8"/>
  <rect x="134" y="100" width="292" height="192" rx="10" fill="#faf7ff" stroke="#2f2530" stroke-width="4"/>
  <rect x="146" y="112" width="268" height="168" rx="8" fill="#ffffff" stroke="#ead1dc" stroke-width="2"/>
  <rect x="146" y="112" width="22" height="168" fill="#ffd4e4" opacity="0.8"/>
  <g fill="#d7dbe6" opacity="0.7">
    <circle cx="158" cy="126" r="3.5"/><circle cx="158" cy="144" r="3.5"/><circle cx="158" cy="162" r="3.5"/>
    <circle cx="158" cy="180" r="3.5"/><circle cx="158" cy="198" r="3.5"/>
  </g>
  <line x1="182" y1="136" x2="392" y2="136" stroke="#ead1dc" stroke-width="2"/>
  <line x1="182" y1="156" x2="392" y2="156" stroke="#ead1dc" stroke-width="2"/>
  <line x1="182" y1="176" x2="392" y2="176" stroke="#ead1dc" stroke-width="2"/>
</g>
</g>
</svg>