<?xml version="1.0" encoding="UTF-8"?>
<svg xmlns="http://www.w3.org/2000/svg" width="1400" height="980" viewBox="0 0 1400 980">

<defs>
  <linearGradient id="gPink" x1="0" y1="0" x2="1" y2="1">
    <stop offset="0%" stop-color="#ffd4e4"/><stop offset="100%" stop-color="#e56fa0"/>
  </linearGradient>
  <linearGradient id="gWood" x1="0" y1="0" x2="1" y2="1">
    <stop offset="0%" stop-color="#f5d4bd"/><stop offset="100%" stop-color="#d6a47a"/>
  </linearGradient>
  <linearGradient id="gBlue" x1="0" y1="0" x2="1" y2="1">
    <stop offset="0%" stop-color="#aee3ff"/><stop offset="100%" stop-color="#78c6ea"/>
  </linearGradient>
  <linearGradient id="gMint" x1="0" y1="0" x2="1" y2="1">
    <stop offset="0%" stop-color="#86d7c0"/><stop offset="100%" stop-color="#63b79e"/>
  </linearGradient>
  <linearGradient id="gLav" x1="0" y1="0" x2="1" y2="1">
    <stop offset="0%" stop-color="#c9b5ff"/><stop offset="100%" stop-color="#aa92ef"/>
  </linearGradient>
</defs>

<rect x="0" y="0" width="1400" height="980" fill="#fff8fb"/>
<text x="700" y="42" font-family="Arial, sans-serif" font-size="30" font-weight="700" fill="#5c4352" text-anchor="middle">Настольный светильник — 3 ортографических SVG-вида</text>
<text x="700" y="72" font-family="Arial, sans-serif" font-size="17" fill="#5c4352" text-anchor="middle">Предметы 21–30. Пастельный SVG-лист. Чистый orthographic.</text>
<g transform="translate(160,120)"><text x="320" y="-18" font-family="Arial, sans-serif" font-size="22" font-weight="700" fill="#5c4352" text-anchor="middle">TOP</text>
<g>
  <circle cx="450" cy="258" r="62" fill="#ffd4e4" stroke="#2f2530" stroke-width="4"/>
  <circle cx="450" cy="258" r="40" fill="none" stroke="#ffffff" stroke-width="2" opacity="0.35"/>
  <circle cx="450" cy="258" r="14" fill="#d6a47a" stroke="#2f2530" stroke-width="2"/>
</g>
</g>
<g transform="translate(160,550)"><text x="320" y="-18" font-family="Arial, sans-serif" font-size="22" font-weight="700" fill="#5c4352" text-anchor="middle">SIDE</text>
<g>
  <line x1="100" y1="292" x2="800" y2="292" stroke="#b98aa0" stroke-width="3" stroke-dasharray="10 8"/>
  <ellipse cx="450" cy="278" rx="68" ry="14" fill="#ffd4e4" stroke="#2f2530" stroke-width="4"/>
  <rect x="444" y="192" width="12" height="74" rx="6" fill="#677088" stroke="#2f2530" stroke-width="2"/>
  <path d="M 412 172 Q 450 144 488 172 L 470 224 Q 450 236 430 224 Z" fill="url(#gPink)" stroke="#2f2530" stroke-width="4"/>
  <ellipse cx="450" cy="210" rx="18" ry="12" fill="#fff0c7" stroke="#2f2530" stroke-width="2"/>
</g>
</g>
<g transform="translate(880,550)"><text x="152" y="-18" font-family="Arial, sans-serif" font-size="22" font-weight="700" fill="#5c4352" text-anchor="middle">FRONT</text>
<g>
  <line x1="64" y1="292" x2="496" y2="292" stroke="#b98aa0" stroke-width="3" stroke-dasharray="10 8"/>
  <ellipse cx="280" cy="278" rx="68" ry="14" fill="#ffd4e4" stroke="#2f2530" stroke-width="4"/>
  <rect x="274" y="192" width="12" height="74" rx="6" fill="#677088" stroke="#2f2530" stroke-width="2"/>
  <path d="M 242 172 Q 280 144 318 172 L 300 224 Q 280 236 260 224 Z" fill="url(#gPink)" stroke="#2f2530" stroke-width="4"/>
  <ellipse cx="280" cy="210" rx="18" ry="12" fill="#fff0c7" stroke="#2f2530" stroke-width="2"/>
</g>
</g>
</svg>