<?xml version="1.0" encoding="UTF-8"?><svg xmlns="http://www.w3.org/2000/svg" width="560" height="390" viewBox="0 0 560 390">
<defs>
  <linearGradient id="gPink" x1="0" y1="0" x2="1" y2="1">
    <stop offset="0%" stop-color="#ffd4e4"/><stop offset="100%" stop-color="#e56fa0"/>
  </linearGradient>
</defs>
<rect x="0" y="0" width="560" height="390" fill="#fff8fb"/><g><line x1="40" y1="40" x2="40" y2="350" stroke="#f0d9e4" stroke-width="1" opacity="0.55"/><line x1="80" y1="40" x2="80" y2="350" stroke="#f0d9e4" stroke-width="1" opacity="0.55"/><line x1="120" y1="40" x2="120" y2="350" stroke="#f0d9e4" stroke-width="1" opacity="0.55"/><line x1="160" y1="40" x2="160" y2="350" stroke="#f0d9e4" stroke-width="1" opacity="0.55"/><line x1="200" y1="40" x2="200" y2="350" stroke="#f0d9e4" stroke-width="1" opacity="0.55"/><line x1="240" y1="40" x2="240" y2="350" stroke="#f0d9e4" stroke-width="1" opacity="0.55"/><line x1="280" y1="40" x2="280" y2="350" stroke="#f0d9e4" stroke-width="1" opacity="0.55"/><line x1="320" y1="40" x2="320" y2="350" stroke="#f0d9e4" stroke-width="1" opacity="0.55"/><line x1="360" y1="40" x2="360" y2="350" stroke="#f0d9e4" stroke-width="1" opacity="0.55"/><line x1="400" y1="40" x2="400" y2="350" stroke="#f0d9e4" stroke-width="1" opacity="0.55"/><line x1="440" y1="40" x2="440" y2="350" stroke="#f0d9e4" stroke-width="1" opacity="0.55"/><line x1="480" y1="40" x2="480" y2="350" stroke="#f0d9e4" stroke-width="1" opacity="0.55"/><line x1="520" y1="40" x2="520" y2="350" stroke="#f0d9e4" stroke-width="1" opacity="0.55"/><line x1="40" y1="40" x2="520" y2="40" stroke="#f0d9e4" stroke-width="1" opacity="0.55"/><line x1="40" y1="80" x2="520" y2="80" stroke="#f0d9e4" stroke-width="1" opacity="0.55"/><line x1="40" y1="120" x2="520" y2="120" stroke="#f0d9e4" stroke-width="1" opacity="0.55"/><line x1="40" y1="160" x2="520" y2="160" stroke="#f0d9e4" stroke-width="1" opacity="0.55"/><line x1="40" y1="200" x2="520" y2="200" stroke="#f0d9e4" stroke-width="1" opacity="0.55"/><line x1="40" y1="240" x2="520" y2="240" stroke="#f0d9e4" stroke-width="1" opacity="0.55"/><line x1="40" y1="280" x2="520" y2="280" stroke="#f0d9e4" stroke-width="1" opacity="0.55"/><line x1="40" y1="320" x2="520" y2="320" stroke="#f0d9e4" stroke-width="1" opacity="0.55"/><line x1="40" y1="360" x2="520" y2="360" stroke="#f0d9e4" stroke-width="1" opacity="0.55"/></g><text x="280.0" y="34" font-family="Arial, sans-serif" font-size="26" font-weight="700" fill="#5c4352" text-anchor="middle">Стул на колёсиках — вид спереди / FRONT</text>
<g>
  <line x1="64" y1="292" x2="496" y2="292" stroke="#b98aa0" stroke-width="3" stroke-dasharray="10 8"/>
  <rect x="196" y="108" width="168" height="116" rx="22" fill="url(#gPink)" stroke="#2f2530" stroke-width="4"/>
  <rect x="212" y="230" width="136" height="32" rx="12" fill="url(#gPink)" stroke="#2f2530" stroke-width="4"/>
  <rect x="274" y="262" width="12" height="44" rx="5" fill="#d7dbe6" stroke="#2f2530" stroke-width="2"/>
  <line x1="280" y1="306" x2="232" y2="330" stroke="#677088" stroke-width="6" stroke-linecap="round"/>
  <line x1="280" y1="306" x2="328" y2="330" stroke="#677088" stroke-width="6" stroke-linecap="round"/>
  <line x1="280" y1="306" x2="280" y2="340" stroke="#677088" stroke-width="6" stroke-linecap="round"/>
  <circle cx="232" cy="330" r="8" fill="#d7dbe6" stroke="#2f2530" stroke-width="2"/>
  <circle cx="328" cy="330" r="8" fill="#d7dbe6" stroke="#2f2530" stroke-width="2"/>
  <circle cx="280" cy="340" r="8" fill="#d7dbe6" stroke="#2f2530" stroke-width="2"/>
</g>
<line x1="196" y1="332" x2="364" y2="332" stroke="#b98aa0" stroke-width="2"/><line x1="196" y1="324" x2="196" y2="340" stroke="#b98aa0" stroke-width="2"/><line x1="364" y1="324" x2="364" y2="340" stroke="#b98aa0" stroke-width="2"/><text x="280.0" y="320" font-family="Arial, sans-serif" font-size="18" fill="#5c4352" text-anchor="middle">ширина 0.46 м</text><line x1="172" y1="108" x2="172" y2="340" stroke="#b98aa0" stroke-width="2"/><line x1="164" y1="108" x2="180" y2="108" stroke="#b98aa0" stroke-width="2"/><line x1="164" y1="340" x2="180" y2="340" stroke="#b98aa0" stroke-width="2"/><text x="144" y="224.0" transform="rotate(-90 144 224.0)" font-family="Arial, sans-serif" font-size="18" fill="#5c4352" text-anchor="middle">высота 0.88 м</text></svg>