<?xml version="1.0" encoding="UTF-8"?><svg xmlns="http://www.w3.org/2000/svg" width="900" height="520" viewBox="0 0 900 520">
<defs>
  <linearGradient id="gPink" x1="0" y1="0" x2="1" y2="1">
    <stop offset="0%" stop-color="#ffd4e4"/><stop offset="100%" stop-color="#e56fa0"/>
  </linearGradient>
</defs>
<rect x="0" y="0" width="900" height="520" fill="#fff8fb"/><g><line x1="40" y1="40" x2="40" y2="480" stroke="#f0d9e4" stroke-width="1" opacity="0.55"/><line x1="80" y1="40" x2="80" y2="480" stroke="#f0d9e4" stroke-width="1" opacity="0.55"/><line x1="120" y1="40" x2="120" y2="480" stroke="#f0d9e4" stroke-width="1" opacity="0.55"/><line x1="160" y1="40" x2="160" y2="480" stroke="#f0d9e4" stroke-width="1" opacity="0.55"/><line x1="200" y1="40" x2="200" y2="480" stroke="#f0d9e4" stroke-width="1" opacity="0.55"/><line x1="240" y1="40" x2="240" y2="480" stroke="#f0d9e4" stroke-width="1" opacity="0.55"/><line x1="280" y1="40" x2="280" y2="480" stroke="#f0d9e4" stroke-width="1" opacity="0.55"/><line x1="320" y1="40" x2="320" y2="480" stroke="#f0d9e4" stroke-width="1" opacity="0.55"/><line x1="360" y1="40" x2="360" y2="480" stroke="#f0d9e4" stroke-width="1" opacity="0.55"/><line x1="400" y1="40" x2="400" y2="480" stroke="#f0d9e4" stroke-width="1" opacity="0.55"/><line x1="440" y1="40" x2="440" y2="480" stroke="#f0d9e4" stroke-width="1" opacity="0.55"/><line x1="480" y1="40" x2="480" y2="480" stroke="#f0d9e4" stroke-width="1" opacity="0.55"/><line x1="520" y1="40" x2="520" y2="480" stroke="#f0d9e4" stroke-width="1" opacity="0.55"/><line x1="560" y1="40" x2="560" y2="480" stroke="#f0d9e4" stroke-width="1" opacity="0.55"/><line x1="600" y1="40" x2="600" y2="480" stroke="#f0d9e4" stroke-width="1" opacity="0.55"/><line x1="640" y1="40" x2="640" y2="480" stroke="#f0d9e4" stroke-width="1" opacity="0.55"/><line x1="680" y1="40" x2="680" y2="480" stroke="#f0d9e4" stroke-width="1" opacity="0.55"/><line x1="720" y1="40" x2="720" y2="480" stroke="#f0d9e4" stroke-width="1" opacity="0.55"/><line x1="760" y1="40" x2="760" y2="480" stroke="#f0d9e4" stroke-width="1" opacity="0.55"/><line x1="800" y1="40" x2="800" y2="480" stroke="#f0d9e4" stroke-width="1" opacity="0.55"/><line x1="840" y1="40" x2="840" y2="480" stroke="#f0d9e4" stroke-width="1" opacity="0.55"/><line x1="880" y1="40" x2="880" y2="480" stroke="#f0d9e4" stroke-width="1" opacity="0.55"/><line x1="40" y1="40" x2="860" y2="40" stroke="#f0d9e4" stroke-width="1" opacity="0.55"/><line x1="40" y1="80" x2="860" y2="80" stroke="#f0d9e4" stroke-width="1" opacity="0.55"/><line x1="40" y1="120" x2="860" y2="120" stroke="#f0d9e4" stroke-width="1" opacity="0.55"/><line x1="40" y1="160" x2="860" y2="160" stroke="#f0d9e4" stroke-width="1" opacity="0.55"/><line x1="40" y1="200" x2="860" y2="200" stroke="#f0d9e4" stroke-width="1" opacity="0.55"/><line x1="40" y1="240" x2="860" y2="240" stroke="#f0d9e4" stroke-width="1" opacity="0.55"/><line x1="40" y1="280" x2="860" y2="280" stroke="#f0d9e4" stroke-width="1" opacity="0.55"/><line x1="40" y1="320" x2="860" y2="320" stroke="#f0d9e4" stroke-width="1" opacity="0.55"/><line x1="40" y1="360" x2="860" y2="360" stroke="#f0d9e4" stroke-width="1" opacity="0.55"/><line x1="40" y1="400" x2="860" y2="400" stroke="#f0d9e4" stroke-width="1" opacity="0.55"/><line x1="40" y1="440" x2="860" y2="440" stroke="#f0d9e4" stroke-width="1" opacity="0.55"/><line x1="40" y1="480" x2="860" y2="480" stroke="#f0d9e4" stroke-width="1" opacity="0.55"/></g><text x="450.0" y="34" font-family="Arial, sans-serif" font-size="26" font-weight="700" fill="#5c4352" text-anchor="middle">Стул на колёсиках — вид сверху / TOP</text>
<g>
  <!-- base first, partially hidden by seat -->
  <circle cx="450" cy="336" r="12" fill="#d7dbe6" stroke="#2f2530" stroke-width="2"/>
  <line x1="450" y1="336" x2="398" y2="384" stroke="#677088" stroke-width="6" stroke-linecap="round"/>
  <line x1="450" y1="336" x2="502" y2="384" stroke="#677088" stroke-width="6" stroke-linecap="round"/>
  <line x1="450" y1="336" x2="386" y2="330" stroke="#677088" stroke-width="6" stroke-linecap="round"/>
  <line x1="450" y1="336" x2="514" y2="330" stroke="#677088" stroke-width="6" stroke-linecap="round"/>
  <line x1="450" y1="336" x2="450" y2="402" stroke="#677088" stroke-width="6" stroke-linecap="round"/>
  <circle cx="398" cy="384" r="9" fill="#d7dbe6" stroke="#2f2530" stroke-width="2"/>
  <circle cx="502" cy="384" r="9" fill="#d7dbe6" stroke="#2f2530" stroke-width="2"/>
  <circle cx="386" cy="330" r="9" fill="#d7dbe6" stroke="#2f2530" stroke-width="2"/>
  <circle cx="514" cy="330" r="9" fill="#d7dbe6" stroke="#2f2530" stroke-width="2"/>
  <circle cx="450" cy="402" r="9" fill="#d7dbe6" stroke="#2f2530" stroke-width="2"/>

  <!-- seat over base -->
  <rect x="372" y="248" width="156" height="104" rx="26" fill="url(#gPink)" stroke="#2f2530" stroke-width="4"/>

  <!-- backrest over top edge of seat -->
  <rect x="356" y="136" width="188" height="128" rx="30" fill="url(#gPink)" stroke="#2f2530" stroke-width="4"/>
</g>
<line x1="356" y1="442" x2="544" y2="442" stroke="#b98aa0" stroke-width="2"/><line x1="356" y1="434" x2="356" y2="450" stroke="#b98aa0" stroke-width="2"/><line x1="544" y1="434" x2="544" y2="450" stroke="#b98aa0" stroke-width="2"/><text x="450.0" y="430" font-family="Arial, sans-serif" font-size="18" fill="#5c4352" text-anchor="middle">спинка шире сидушки</text><line x1="300" y1="136" x2="300" y2="411" stroke="#b98aa0" stroke-width="2"/><line x1="292" y1="136" x2="308" y2="136" stroke="#b98aa0" stroke-width="2"/><line x1="292" y1="411" x2="308" y2="411" stroke="#b98aa0" stroke-width="2"/><text x="272" y="273.5" transform="rotate(-90 272 273.5)" font-family="Arial, sans-serif" font-size="18" fill="#5c4352" text-anchor="middle">спинка перекрывает сиденье</text></svg>