<?xml version="1.0" encoding="UTF-8"?><svg xmlns="http://www.w3.org/2000/svg" width="900" height="390" viewBox="0 0 900 390">
<defs>
  <linearGradient id="gPink" x1="0" y1="0" x2="1" y2="1">
    <stop offset="0%" stop-color="#ffd4e4"/><stop offset="100%" stop-color="#e56fa0"/>
  </linearGradient>
</defs>
<rect x="0" y="0" width="900" height="390" fill="#fff8fb"/><g><line x1="40" y1="40" x2="40" y2="350" stroke="#f0d9e4" stroke-width="1" opacity="0.55"/><line x1="80" y1="40" x2="80" y2="350" stroke="#f0d9e4" stroke-width="1" opacity="0.55"/><line x1="120" y1="40" x2="120" y2="350" stroke="#f0d9e4" stroke-width="1" opacity="0.55"/><line x1="160" y1="40" x2="160" y2="350" stroke="#f0d9e4" stroke-width="1" opacity="0.55"/><line x1="200" y1="40" x2="200" y2="350" stroke="#f0d9e4" stroke-width="1" opacity="0.55"/><line x1="240" y1="40" x2="240" y2="350" stroke="#f0d9e4" stroke-width="1" opacity="0.55"/><line x1="280" y1="40" x2="280" y2="350" stroke="#f0d9e4" stroke-width="1" opacity="0.55"/><line x1="320" y1="40" x2="320" y2="350" stroke="#f0d9e4" stroke-width="1" opacity="0.55"/><line x1="360" y1="40" x2="360" y2="350" stroke="#f0d9e4" stroke-width="1" opacity="0.55"/><line x1="400" y1="40" x2="400" y2="350" stroke="#f0d9e4" stroke-width="1" opacity="0.55"/><line x1="440" y1="40" x2="440" y2="350" stroke="#f0d9e4" stroke-width="1" opacity="0.55"/><line x1="480" y1="40" x2="480" y2="350" stroke="#f0d9e4" stroke-width="1" opacity="0.55"/><line x1="520" y1="40" x2="520" y2="350" stroke="#f0d9e4" stroke-width="1" opacity="0.55"/><line x1="560" y1="40" x2="560" y2="350" stroke="#f0d9e4" stroke-width="1" opacity="0.55"/><line x1="600" y1="40" x2="600" y2="350" stroke="#f0d9e4" stroke-width="1" opacity="0.55"/><line x1="640" y1="40" x2="640" y2="350" stroke="#f0d9e4" stroke-width="1" opacity="0.55"/><line x1="680" y1="40" x2="680" y2="350" stroke="#f0d9e4" stroke-width="1" opacity="0.55"/><line x1="720" y1="40" x2="720" y2="350" stroke="#f0d9e4" stroke-width="1" opacity="0.55"/><line x1="760" y1="40" x2="760" y2="350" stroke="#f0d9e4" stroke-width="1" opacity="0.55"/><line x1="800" y1="40" x2="800" y2="350" stroke="#f0d9e4" stroke-width="1" opacity="0.55"/><line x1="840" y1="40" x2="840" y2="350" stroke="#f0d9e4" stroke-width="1" opacity="0.55"/><line x1="880" y1="40" x2="880" y2="350" stroke="#f0d9e4" stroke-width="1" opacity="0.55"/><line x1="40" y1="40" x2="860" y2="40" stroke="#f0d9e4" stroke-width="1" opacity="0.55"/><line x1="40" y1="80" x2="860" y2="80" stroke="#f0d9e4" stroke-width="1" opacity="0.55"/><line x1="40" y1="120" x2="860" y2="120" stroke="#f0d9e4" stroke-width="1" opacity="0.55"/><line x1="40" y1="160" x2="860" y2="160" stroke="#f0d9e4" stroke-width="1" opacity="0.55"/><line x1="40" y1="200" x2="860" y2="200" stroke="#f0d9e4" stroke-width="1" opacity="0.55"/><line x1="40" y1="240" x2="860" y2="240" stroke="#f0d9e4" stroke-width="1" opacity="0.55"/><line x1="40" y1="280" x2="860" y2="280" stroke="#f0d9e4" stroke-width="1" opacity="0.55"/><line x1="40" y1="320" x2="860" y2="320" stroke="#f0d9e4" stroke-width="1" opacity="0.55"/><line x1="40" y1="360" x2="860" y2="360" stroke="#f0d9e4" stroke-width="1" opacity="0.55"/></g><text x="450.0" y="34" font-family="Arial, sans-serif" font-size="26" font-weight="700" fill="#5c4352" text-anchor="middle">Стул на колёсиках — вид сбоку / SIDE</text>
<g>
  <line x1="100" y1="292" x2="800" y2="292" stroke="#b98aa0" stroke-width="3" stroke-dasharray="10 8"/>
  <rect x="352" y="108" width="64" height="124" rx="18" fill="url(#gPink)" stroke="#2f2530" stroke-width="4"/>
  <rect x="404" y="224" width="116" height="34" rx="12" fill="url(#gPink)" stroke="#2f2530" stroke-width="4"/>
  <rect x="450" y="258" width="12" height="50" rx="5" fill="#d7dbe6" stroke="#2f2530" stroke-width="2"/>
  <line x1="456" y1="308" x2="410" y2="334" stroke="#677088" stroke-width="6" stroke-linecap="round"/>
  <line x1="456" y1="308" x2="504" y2="332" stroke="#677088" stroke-width="6" stroke-linecap="round"/>
  <line x1="456" y1="308" x2="456" y2="344" stroke="#677088" stroke-width="6" stroke-linecap="round"/>
  <circle cx="410" cy="334" r="9" fill="#d7dbe6" stroke="#2f2530" stroke-width="2"/>
  <circle cx="504" cy="332" r="9" fill="#d7dbe6" stroke="#2f2530" stroke-width="2"/>
  <circle cx="456" cy="344" r="9" fill="#d7dbe6" stroke="#2f2530" stroke-width="2"/>
</g>
<line x1="352" y1="332" x2="520" y2="332" stroke="#b98aa0" stroke-width="2"/><line x1="352" y1="324" x2="352" y2="340" stroke="#b98aa0" stroke-width="2"/><line x1="520" y1="324" x2="520" y2="340" stroke="#b98aa0" stroke-width="2"/><text x="436.0" y="320" font-family="Arial, sans-serif" font-size="18" fill="#5c4352" text-anchor="middle">глубина 0.52 м</text><line x1="334" y1="108" x2="334" y2="344" stroke="#b98aa0" stroke-width="2"/><line x1="326" y1="108" x2="342" y2="108" stroke="#b98aa0" stroke-width="2"/><line x1="326" y1="344" x2="342" y2="344" stroke="#b98aa0" stroke-width="2"/><text x="306" y="226.0" transform="rotate(-90 306 226.0)" font-family="Arial, sans-serif" font-size="18" fill="#5c4352" text-anchor="middle">высота 0.88 м</text></svg>