<?xml version="1.0" encoding="UTF-8"?>
<svg xmlns="http://www.w3.org/2000/svg" width="1400" height="980" viewBox="0 0 1400 980">

<defs>
  <linearGradient id="gPink" x1="0" y1="0" x2="1" y2="1">
    <stop offset="0%" stop-color="#ffd4e4"/><stop offset="100%" stop-color="#e56fa0"/>
  </linearGradient>
  <linearGradient id="gWood" x1="0" y1="0" x2="1" y2="1">
    <stop offset="0%" stop-color="#f5d4bd"/><stop offset="100%" stop-color="#d6a47a"/>
  </linearGradient>
  <linearGradient id="gBlue" x1="0" y1="0" x2="1" y2="1">
    <stop offset="0%" stop-color="#aee3ff"/><stop offset="100%" stop-color="#78c6ea"/>
  </linearGradient>
  <linearGradient id="gMint" x1="0" y1="0" x2="1" y2="1">
    <stop offset="0%" stop-color="#86d7c0"/><stop offset="100%" stop-color="#63b79e"/>
  </linearGradient>
  <linearGradient id="gLav" x1="0" y1="0" x2="1" y2="1">
    <stop offset="0%" stop-color="#c9b5ff"/><stop offset="100%" stop-color="#aa92ef"/>
  </linearGradient>
</defs>

<rect x="0" y="0" width="1400" height="980" fill="#fff8fb"/>
<text x="700" y="42" font-family="Arial, sans-serif" font-size="30" font-weight="700" fill="#5c4352" text-anchor="middle">Игрушечный чайник/чашка — 3 ортографических SVG-вида</text>
<text x="700" y="72" font-family="Arial, sans-serif" font-size="17" fill="#5c4352" text-anchor="middle">Предметы 31–40. Пастельный SVG-лист. Чистый orthographic.</text>
<g transform="translate(160,120)"><text x="320" y="-18" font-family="Arial, sans-serif" font-size="22" font-weight="700" fill="#5c4352" text-anchor="middle">TOP</text><g><circle cx="450" cy="252" r="46" fill="url(#gPink)" stroke="#2f2530" stroke-width="4"/><rect x="432" y="206" width="36" height="14" rx="7" fill="#ffd4e4" stroke="#2f2530" stroke-width="2"/><path d="M 492 236 Q 522 252 492 268" fill="none" stroke="#2f2530" stroke-width="4"/><path d="M 410 236 Q 380 252 402 274" fill="none" stroke="#2f2530" stroke-width="4"/><circle cx="450" cy="252" r="14" fill="none" stroke="#ffffff" stroke-width="2" opacity="0.35"/></g></g>
<g transform="translate(160,550)"><text x="320" y="-18" font-family="Arial, sans-serif" font-size="22" font-weight="700" fill="#5c4352" text-anchor="middle">SIDE</text><g><line x1="100" y1="292" x2="800" y2="292" stroke="#b98aa0" stroke-width="3" stroke-dasharray="10 8"/><path d="M 414 286 Q 402 268 406 246 Q 412 210 430 192 L 470 192 Q 488 210 494 246 Q 498 268 486 286 Z" fill="url(#gPink)" stroke="#2f2530" stroke-width="4"/><rect x="434" y="174" width="32" height="18" rx="8" fill="#ffd4e4" stroke="#2f2530" stroke-width="2"/><path d="M 490 232 Q 518 238 516 258 Q 514 278 490 278" fill="none" stroke="#2f2530" stroke-width="4"/><path d="M 414 224 Q 388 232 384 242 Q 380 252 394 258" fill="none" stroke="#2f2530" stroke-width="4"/></g></g>
<g transform="translate(880,550)"><text x="152" y="-18" font-family="Arial, sans-serif" font-size="22" font-weight="700" fill="#5c4352" text-anchor="middle">FRONT</text><g><line x1="64" y1="292" x2="496" y2="292" stroke="#b98aa0" stroke-width="3" stroke-dasharray="10 8"/><path d="M 244 286 Q 232 268 236 246 Q 242 210 260 192 L 300 192 Q 318 210 324 246 Q 328 268 316 286 Z" fill="url(#gPink)" stroke="#2f2530" stroke-width="4"/><rect x="264" y="174" width="32" height="18" rx="8" fill="#ffd4e4" stroke="#2f2530" stroke-width="2"/><path d="M 320 232 Q 346 238 344 258 Q 342 278 320 278" fill="none" stroke="#2f2530" stroke-width="4"/><path d="M 244 224 Q 218 232 214 242 Q 210 252 224 258" fill="none" stroke="#2f2530" stroke-width="4"/></g></g>
</svg>