<?xml version="1.0" encoding="UTF-8"?>
<svg xmlns="http://www.w3.org/2000/svg" width="1400" height="980" viewBox="0 0 1400 980">

<defs>
  <linearGradient id="gPink" x1="0" y1="0" x2="1" y2="1">
    <stop offset="0%" stop-color="#ffd4e4"/><stop offset="100%" stop-color="#e56fa0"/>
  </linearGradient>
  <linearGradient id="gWood" x1="0" y1="0" x2="1" y2="1">
    <stop offset="0%" stop-color="#f5d4bd"/><stop offset="100%" stop-color="#d6a47a"/>
  </linearGradient>
  <linearGradient id="gMint" x1="0" y1="0" x2="1" y2="1">
    <stop offset="0%" stop-color="#86d7c0"/><stop offset="100%" stop-color="#63b79e"/>
  </linearGradient>
  <linearGradient id="gLav" x1="0" y1="0" x2="1" y2="1">
    <stop offset="0%" stop-color="#c9b5ff"/><stop offset="100%" stop-color="#aa92ef"/>
  </linearGradient>
</defs>

<rect x="0" y="0" width="1400" height="980" fill="#fff8fb"/>
<text x="700" y="42" font-family="Arial, sans-serif" font-size="30" font-weight="700" fill="#5c4352" text-anchor="middle">Левый пуфик — 3 ортографических SVG-вида</text>
<text x="700" y="72" font-family="Arial, sans-serif" font-size="17" fill="#5c4352" text-anchor="middle">v2: исправлены характерные формы и логика плоских/подвесных предметов.</text>
<g transform="translate(160,120)"><text x="320" y="-18" font-family="Arial, sans-serif" font-size="22" font-weight="700" fill="#5c4352" text-anchor="middle">TOP</text>
<g>
  <path d="M 344 210 C 368 166, 440 146, 516 164 C 584 180, 622 230, 610 282 C 596 338, 536 372, 456 374 C 378 376, 316 342, 300 286 C 286 244, 302 224, 344 210 Z"
        fill="url(#gLav)" stroke="#2f2530" stroke-width="4"/>
  <path d="M 354 230 C 392 212, 442 206, 492 214 C 546 224, 582 256, 578 288 C 574 324, 528 346, 464 346 C 402 346, 352 322, 338 286"
        fill="none" stroke="#ead1dc" stroke-width="5" opacity="0.7"/>
  <path d="M 388 184 C 400 226, 400 316, 392 354 M 438 170 C 444 226, 444 322, 440 372 M 492 176 C 490 228, 492 320, 504 366 M 548 198 C 536 238, 548 304, 568 338"
        fill="none" stroke="#ead1dc" stroke-width="4" opacity="0.55"/>
</g>
</g>
<g transform="translate(160,550)"><text x="320" y="-18" font-family="Arial, sans-serif" font-size="22" font-weight="700" fill="#5c4352" text-anchor="middle">SIDE</text>
<g>
  <line x1="110" y1="292" x2="790" y2="292" stroke="#b98aa0" stroke-width="3" stroke-dasharray="10 8"/>
  <path d="M 258 286 C 252 238 278 182 328 158 C 382 132 468 128 542 144 C 606 160 656 212 662 286 Z"
        fill="url(#gLav)" stroke="#2f2530" stroke-width="4"/>
  <path d="M 324 186 C 350 170 392 162 440 164 C 494 166 550 184 592 214" fill="none" stroke="#ead1dc" stroke-width="5" opacity="0.65"/>
  <path d="M 344 168 C 358 220 358 258 352 286 M 408 154 C 416 214 418 254 416 286 M 474 156 C 474 218 480 252 488 286 M 548 174 C 548 224 560 252 574 286"
        fill="none" stroke="#ead1dc" stroke-width="4" opacity="0.55"/>
</g>
</g>
<g transform="translate(880,550)"><text x="152" y="-18" font-family="Arial, sans-serif" font-size="22" font-weight="700" fill="#5c4352" text-anchor="middle">FRONT</text>
<g>
  <line x1="64" y1="292" x2="496" y2="292" stroke="#b98aa0" stroke-width="3" stroke-dasharray="10 8"/>
  <path d="M 110 286 C 108 236 136 182 188 156 C 238 132 322 128 380 144 C 438 160 452 212 450 286 Z"
        fill="url(#gLav)" stroke="#2f2530" stroke-width="4"/>
  <path d="M 184 178 C 220 160 278 158 326 170 C 368 180 406 208 416 232" fill="none" stroke="#ead1dc" stroke-width="5" opacity="0.65"/>
  <path d="M 188 160 C 194 208 192 252 188 286 M 248 148 C 254 206 252 254 250 286 M 308 150 C 308 210 312 252 318 286 M 372 164 C 372 214 384 252 392 286"
        fill="none" stroke="#ead1dc" stroke-width="4" opacity="0.55"/>
</g>
</g>
</svg>