<?xml version="1.0" encoding="UTF-8"?>
<svg xmlns="http://www.w3.org/2000/svg" width="1400" height="980" viewBox="0 0 1400 980">

<defs>
  <linearGradient id="gPink" x1="0" y1="0" x2="1" y2="1">
    <stop offset="0%" stop-color="#ffd4e4"/><stop offset="100%" stop-color="#e56fa0"/>
  </linearGradient>
  <linearGradient id="gWood" x1="0" y1="0" x2="1" y2="1">
    <stop offset="0%" stop-color="#f5d4bd"/><stop offset="100%" stop-color="#d6a47a"/>
  </linearGradient>
  <linearGradient id="gMint" x1="0" y1="0" x2="1" y2="1">
    <stop offset="0%" stop-color="#86d7c0"/><stop offset="100%" stop-color="#63b79e"/>
  </linearGradient>
  <linearGradient id="gLav" x1="0" y1="0" x2="1" y2="1">
    <stop offset="0%" stop-color="#c9b5ff"/><stop offset="100%" stop-color="#aa92ef"/>
  </linearGradient>
</defs>

<rect x="0" y="0" width="1400" height="980" fill="#fff8fb"/>
<text x="700" y="42" font-family="Arial, sans-serif" font-size="30" font-weight="700" fill="#5c4352" text-anchor="middle">Кресло-мешок — 3 ортографических SVG-вида</text>
<text x="700" y="72" font-family="Arial, sans-serif" font-size="17" fill="#5c4352" text-anchor="middle">v2: исправлены характерные формы и логика плоских/подвесных предметов.</text>
<g transform="translate(160,120)"><text x="320" y="-18" font-family="Arial, sans-serif" font-size="22" font-weight="700" fill="#5c4352" text-anchor="middle">TOP</text>
<g>
  <path d="M 250 322 C 206 260 238 168 338 142 C 434 116 564 130 628 200 C 684 262 678 350 590 386 C 508 418 316 406 250 322 Z"
        fill="url(#gPink)" stroke="#2f2530" stroke-width="4"/>
  <path d="M 344 174 C 392 154 462 154 524 170 C 572 182 610 208 620 244 C 632 286 610 320 570 342 C 528 366 446 370 382 350 C 320 332 286 294 286 248 C 286 214 308 190 344 174 Z"
        fill="none" stroke="#ead1dc" stroke-width="5" opacity="0.65"/>
  <path d="M 328 184 C 346 236 356 312 352 368 M 404 160 C 424 224 432 310 430 378 M 494 166 C 502 228 510 302 526 364 M 572 196 C 564 238 576 300 596 340"
        fill="none" stroke="#ead1dc" stroke-width="4" opacity="0.55"/>
</g>
</g>
<g transform="translate(160,550)"><text x="320" y="-18" font-family="Arial, sans-serif" font-size="22" font-weight="700" fill="#5c4352" text-anchor="middle">SIDE</text>
<g>
  <line x1="90" y1="292" x2="810" y2="292" stroke="#b98aa0" stroke-width="3" stroke-dasharray="10 8"/>
  <path d="M 210 286 C 212 220 256 154 336 128 C 432 98 556 118 630 170 C 676 202 704 240 698 286 Z"
        fill="url(#gPink)" stroke="#2f2530" stroke-width="4"/>
  <path d="M 334 158 C 396 138 480 142 552 172 C 604 194 634 222 648 254" fill="none" stroke="#ead1dc" stroke-width="5" opacity="0.65"/>
  <path d="M 334 140 C 352 190 360 240 358 286 M 420 128 C 434 192 438 240 438 286 M 516 140 C 518 198 530 244 544 286"
        fill="none" stroke="#ead1dc" stroke-width="4" opacity="0.55"/>
</g>
</g>
<g transform="translate(880,550)"><text x="152" y="-18" font-family="Arial, sans-serif" font-size="22" font-weight="700" fill="#5c4352" text-anchor="middle">FRONT</text>
<g>
  <line x1="64" y1="292" x2="496" y2="292" stroke="#b98aa0" stroke-width="3" stroke-dasharray="10 8"/>
  <path d="M 74 286 C 84 220 132 154 212 128 C 302 100 408 116 466 168 C 500 198 512 240 506 286 Z"
        fill="url(#gPink)" stroke="#2f2530" stroke-width="4"/>
  <path d="M 180 156 C 238 140 314 144 368 170 C 408 190 434 220 444 252" fill="none" stroke="#ead1dc" stroke-width="5" opacity="0.65"/>
  <path d="M 176 138 C 192 190 196 240 194 286 M 256 128 C 268 192 270 242 270 286 M 336 140 C 338 198 348 244 360 286"
        fill="none" stroke="#ead1dc" stroke-width="4" opacity="0.55"/>
</g>
</g>
</svg>