<?xml version="1.0" encoding="UTF-8"?><svg xmlns="http://www.w3.org/2000/svg" width="900" height="520" viewBox="0 0 900 520">
<defs>
  <linearGradient id="gPink" x1="0" y1="0" x2="1" y2="1">
    <stop offset="0%" stop-color="#ffd4e4"/><stop offset="100%" stop-color="#e56fa0"/>
  </linearGradient>
  <linearGradient id="gWood" x1="0" y1="0" x2="1" y2="1">
    <stop offset="0%" stop-color="#f5d4bd"/><stop offset="100%" stop-color="#d6a47a"/>
  </linearGradient>
  <linearGradient id="gMint" x1="0" y1="0" x2="1" y2="1">
    <stop offset="0%" stop-color="#86d7c0"/><stop offset="100%" stop-color="#63b79e"/>
  </linearGradient>
  <linearGradient id="gLav" x1="0" y1="0" x2="1" y2="1">
    <stop offset="0%" stop-color="#c9b5ff"/><stop offset="100%" stop-color="#aa92ef"/>
  </linearGradient>
</defs>
<rect x="0" y="0" width="900" height="520" fill="#fff8fb"/><g><line x1="40" y1="40" x2="40" y2="480" stroke="#f0d9e4" stroke-width="1" opacity="0.55"/><line x1="80" y1="40" x2="80" y2="480" stroke="#f0d9e4" stroke-width="1" opacity="0.55"/><line x1="120" y1="40" x2="120" y2="480" stroke="#f0d9e4" stroke-width="1" opacity="0.55"/><line x1="160" y1="40" x2="160" y2="480" stroke="#f0d9e4" stroke-width="1" opacity="0.55"/><line x1="200" y1="40" x2="200" y2="480" stroke="#f0d9e4" stroke-width="1" opacity="0.55"/><line x1="240" y1="40" x2="240" y2="480" stroke="#f0d9e4" stroke-width="1" opacity="0.55"/><line x1="280" y1="40" x2="280" y2="480" stroke="#f0d9e4" stroke-width="1" opacity="0.55"/><line x1="320" y1="40" x2="320" y2="480" stroke="#f0d9e4" stroke-width="1" opacity="0.55"/><line x1="360" y1="40" x2="360" y2="480" stroke="#f0d9e4" stroke-width="1" opacity="0.55"/><line x1="400" y1="40" x2="400" y2="480" stroke="#f0d9e4" stroke-width="1" opacity="0.55"/><line x1="440" y1="40" x2="440" y2="480" stroke="#f0d9e4" stroke-width="1" opacity="0.55"/><line x1="480" y1="40" x2="480" y2="480" stroke="#f0d9e4" stroke-width="1" opacity="0.55"/><line x1="520" y1="40" x2="520" y2="480" stroke="#f0d9e4" stroke-width="1" opacity="0.55"/><line x1="560" y1="40" x2="560" y2="480" stroke="#f0d9e4" stroke-width="1" opacity="0.55"/><line x1="600" y1="40" x2="600" y2="480" stroke="#f0d9e4" stroke-width="1" opacity="0.55"/><line x1="640" y1="40" x2="640" y2="480" stroke="#f0d9e4" stroke-width="1" opacity="0.55"/><line x1="680" y1="40" x2="680" y2="480" stroke="#f0d9e4" stroke-width="1" opacity="0.55"/><line x1="720" y1="40" x2="720" y2="480" stroke="#f0d9e4" stroke-width="1" opacity="0.55"/><line x1="760" y1="40" x2="760" y2="480" stroke="#f0d9e4" stroke-width="1" opacity="0.55"/><line x1="800" y1="40" x2="800" y2="480" stroke="#f0d9e4" stroke-width="1" opacity="0.55"/><line x1="840" y1="40" x2="840" y2="480" stroke="#f0d9e4" stroke-width="1" opacity="0.55"/><line x1="880" y1="40" x2="880" y2="480" stroke="#f0d9e4" stroke-width="1" opacity="0.55"/><line x1="40" y1="40" x2="860" y2="40" stroke="#f0d9e4" stroke-width="1" opacity="0.55"/><line x1="40" y1="80" x2="860" y2="80" stroke="#f0d9e4" stroke-width="1" opacity="0.55"/><line x1="40" y1="120" x2="860" y2="120" stroke="#f0d9e4" stroke-width="1" opacity="0.55"/><line x1="40" y1="160" x2="860" y2="160" stroke="#f0d9e4" stroke-width="1" opacity="0.55"/><line x1="40" y1="200" x2="860" y2="200" stroke="#f0d9e4" stroke-width="1" opacity="0.55"/><line x1="40" y1="240" x2="860" y2="240" stroke="#f0d9e4" stroke-width="1" opacity="0.55"/><line x1="40" y1="280" x2="860" y2="280" stroke="#f0d9e4" stroke-width="1" opacity="0.55"/><line x1="40" y1="320" x2="860" y2="320" stroke="#f0d9e4" stroke-width="1" opacity="0.55"/><line x1="40" y1="360" x2="860" y2="360" stroke="#f0d9e4" stroke-width="1" opacity="0.55"/><line x1="40" y1="400" x2="860" y2="400" stroke="#f0d9e4" stroke-width="1" opacity="0.55"/><line x1="40" y1="440" x2="860" y2="440" stroke="#f0d9e4" stroke-width="1" opacity="0.55"/><line x1="40" y1="480" x2="860" y2="480" stroke="#f0d9e4" stroke-width="1" opacity="0.55"/></g><text x="450.0" y="34" font-family="Arial, sans-serif" font-size="26" font-weight="700" fill="#5c4352" text-anchor="middle">Кресло-мешок — вид сверху / TOP</text>
<g>
  <path d="M 250 322 C 206 260 238 168 338 142 C 434 116 564 130 628 200 C 684 262 678 350 590 386 C 508 418 316 406 250 322 Z"
        fill="url(#gPink)" stroke="#2f2530" stroke-width="4"/>
  <path d="M 344 174 C 392 154 462 154 524 170 C 572 182 610 208 620 244 C 632 286 610 320 570 342 C 528 366 446 370 382 350 C 320 332 286 294 286 248 C 286 214 308 190 344 174 Z"
        fill="none" stroke="#ead1dc" stroke-width="5" opacity="0.65"/>
  <path d="M 328 184 C 346 236 356 312 352 368 M 404 160 C 424 224 432 310 430 378 M 494 166 C 502 228 510 302 526 364 M 572 196 C 564 238 576 300 596 340"
        fill="none" stroke="#ead1dc" stroke-width="4" opacity="0.55"/>
</g>
<line x1="250" y1="414" x2="678" y2="414" stroke="#b98aa0" stroke-width="2"/><line x1="250" y1="406" x2="250" y2="422" stroke="#b98aa0" stroke-width="2"/><line x1="678" y1="406" x2="678" y2="422" stroke="#b98aa0" stroke-width="2"/><text x="464.0" y="402" font-family="Arial, sans-serif" font-size="18" fill="#5c4352" text-anchor="middle">мешок с выраженными складками</text><line x1="220" y1="142" x2="220" y2="386" stroke="#b98aa0" stroke-width="2"/><line x1="212" y1="142" x2="228" y2="142" stroke="#b98aa0" stroke-width="2"/><line x1="212" y1="386" x2="228" y2="386" stroke="#b98aa0" stroke-width="2"/><text x="192" y="264.0" transform="rotate(-90 192 264.0)" font-family="Arial, sans-serif" font-size="18" fill="#5c4352" text-anchor="middle">объемная мягкая форма</text></svg>