<?xml version="1.0" encoding="UTF-8"?><svg xmlns="http://www.w3.org/2000/svg" width="900" height="520" viewBox="0 0 900 520">
<defs>
  <linearGradient id="gWood" x1="0" y1="0" x2="1" y2="1">
    <stop offset="0%" stop-color="#f5d4bd"/>
    <stop offset="100%" stop-color="#d6a47a"/>
  </linearGradient>
</defs>
<rect x="0" y="0" width="900" height="520" fill="#fff8fb"/><g><line x1="40" y1="40" x2="40" y2="480" stroke="#f0d9e4" stroke-width="1" opacity="0.55"/><line x1="80" y1="40" x2="80" y2="480" stroke="#f0d9e4" stroke-width="1" opacity="0.55"/><line x1="120" y1="40" x2="120" y2="480" stroke="#f0d9e4" stroke-width="1" opacity="0.55"/><line x1="160" y1="40" x2="160" y2="480" stroke="#f0d9e4" stroke-width="1" opacity="0.55"/><line x1="200" y1="40" x2="200" y2="480" stroke="#f0d9e4" stroke-width="1" opacity="0.55"/><line x1="240" y1="40" x2="240" y2="480" stroke="#f0d9e4" stroke-width="1" opacity="0.55"/><line x1="280" y1="40" x2="280" y2="480" stroke="#f0d9e4" stroke-width="1" opacity="0.55"/><line x1="320" y1="40" x2="320" y2="480" stroke="#f0d9e4" stroke-width="1" opacity="0.55"/><line x1="360" y1="40" x2="360" y2="480" stroke="#f0d9e4" stroke-width="1" opacity="0.55"/><line x1="400" y1="40" x2="400" y2="480" stroke="#f0d9e4" stroke-width="1" opacity="0.55"/><line x1="440" y1="40" x2="440" y2="480" stroke="#f0d9e4" stroke-width="1" opacity="0.55"/><line x1="480" y1="40" x2="480" y2="480" stroke="#f0d9e4" stroke-width="1" opacity="0.55"/><line x1="520" y1="40" x2="520" y2="480" stroke="#f0d9e4" stroke-width="1" opacity="0.55"/><line x1="560" y1="40" x2="560" y2="480" stroke="#f0d9e4" stroke-width="1" opacity="0.55"/><line x1="600" y1="40" x2="600" y2="480" stroke="#f0d9e4" stroke-width="1" opacity="0.55"/><line x1="640" y1="40" x2="640" y2="480" stroke="#f0d9e4" stroke-width="1" opacity="0.55"/><line x1="680" y1="40" x2="680" y2="480" stroke="#f0d9e4" stroke-width="1" opacity="0.55"/><line x1="720" y1="40" x2="720" y2="480" stroke="#f0d9e4" stroke-width="1" opacity="0.55"/><line x1="760" y1="40" x2="760" y2="480" stroke="#f0d9e4" stroke-width="1" opacity="0.55"/><line x1="800" y1="40" x2="800" y2="480" stroke="#f0d9e4" stroke-width="1" opacity="0.55"/><line x1="840" y1="40" x2="840" y2="480" stroke="#f0d9e4" stroke-width="1" opacity="0.55"/><line x1="880" y1="40" x2="880" y2="480" stroke="#f0d9e4" stroke-width="1" opacity="0.55"/><line x1="40" y1="40" x2="860" y2="40" stroke="#f0d9e4" stroke-width="1" opacity="0.55"/><line x1="40" y1="80" x2="860" y2="80" stroke="#f0d9e4" stroke-width="1" opacity="0.55"/><line x1="40" y1="120" x2="860" y2="120" stroke="#f0d9e4" stroke-width="1" opacity="0.55"/><line x1="40" y1="160" x2="860" y2="160" stroke="#f0d9e4" stroke-width="1" opacity="0.55"/><line x1="40" y1="200" x2="860" y2="200" stroke="#f0d9e4" stroke-width="1" opacity="0.55"/><line x1="40" y1="240" x2="860" y2="240" stroke="#f0d9e4" stroke-width="1" opacity="0.55"/><line x1="40" y1="280" x2="860" y2="280" stroke="#f0d9e4" stroke-width="1" opacity="0.55"/><line x1="40" y1="320" x2="860" y2="320" stroke="#f0d9e4" stroke-width="1" opacity="0.55"/><line x1="40" y1="360" x2="860" y2="360" stroke="#f0d9e4" stroke-width="1" opacity="0.55"/><line x1="40" y1="400" x2="860" y2="400" stroke="#f0d9e4" stroke-width="1" opacity="0.55"/><line x1="40" y1="440" x2="860" y2="440" stroke="#f0d9e4" stroke-width="1" opacity="0.55"/><line x1="40" y1="480" x2="860" y2="480" stroke="#f0d9e4" stroke-width="1" opacity="0.55"/></g><text x="450.0" y="34" font-family="Arial, sans-serif" font-size="26" font-weight="700" fill="#5c4352" text-anchor="middle">Мольберт — вид сверху / TOP</text>
<g>
  <!-- top head / clamp -->
  <circle cx="450" cy="112" r="16" fill="#e8c09b" stroke="#2f2530" stroke-width="3"/>

  <!-- three beams from the top node -->
  <line x1="450" y1="128" x2="450" y2="356" stroke="#d6a47a" stroke-width="14" stroke-linecap="round"/>
  <line x1="446" y1="124" x2="350" y2="330" stroke="#d6a47a" stroke-width="14" stroke-linecap="round"/>
  <line x1="454" y1="124" x2="550" y2="330" stroke="#d6a47a" stroke-width="14" stroke-linecap="round"/>

  <!-- holder / canvas tray between beams -->
  <rect x="386" y="222" width="128" height="22" rx="8" fill="url(#gWood)" stroke="#2f2530" stroke-width="3"/>

  <!-- small upright holder block -->
  <rect x="438" y="196" width="24" height="24" rx="6" fill="#e8c09b" stroke="#2f2530" stroke-width="2"/>

  <!-- feet hints -->
  <circle cx="350" cy="330" r="7" fill="#d6a47a" stroke="#2f2530" stroke-width="2"/>
  <circle cx="550" cy="330" r="7" fill="#d6a47a" stroke="#2f2530" stroke-width="2"/>
  <circle cx="450" cy="356" r="7" fill="#d6a47a" stroke="#2f2530" stroke-width="2"/>
</g>
<line x1="350" y1="390" x2="550" y2="390" stroke="#b98aa0" stroke-width="2"/><line x1="350" y1="382" x2="350" y2="398" stroke="#b98aa0" stroke-width="2"/><line x1="550" y1="382" x2="550" y2="398" stroke="#b98aa0" stroke-width="2"/><text x="450.0" y="378" font-family="Arial, sans-serif" font-size="18" fill="#5c4352" text-anchor="middle">три балки сходятся в верхней точке</text><line x1="316" y1="112" x2="316" y2="356" stroke="#b98aa0" stroke-width="2"/><line x1="308" y1="112" x2="324" y2="112" stroke="#b98aa0" stroke-width="2"/><line x1="308" y1="356" x2="324" y2="356" stroke="#b98aa0" stroke-width="2"/><text x="288" y="234.0" transform="rotate(-90 288 234.0)" font-family="Arial, sans-serif" font-size="18" fill="#5c4352" text-anchor="middle">держатель между балками</text></svg>