<?xml version="1.0" encoding="UTF-8"?><svg xmlns="http://www.w3.org/2000/svg" width="900" height="520" viewBox="0 0 900 520">
<defs>
  <linearGradient id="gPink" x1="0" y1="0" x2="1" y2="1">
    <stop offset="0%" stop-color="#ffd4e4"/><stop offset="100%" stop-color="#e56fa0"/>
  </linearGradient>
  <linearGradient id="gMint" x1="0" y1="0" x2="1" y2="1">
    <stop offset="0%" stop-color="#86d7c0"/><stop offset="100%" stop-color="#63b79e"/>
  </linearGradient>
  <linearGradient id="gLav" x1="0" y1="0" x2="1" y2="1">
    <stop offset="0%" stop-color="#c9b5ff"/><stop offset="100%" stop-color="#aa92ef"/>
  </linearGradient>
  <linearGradient id="gWood" x1="0" y1="0" x2="1" y2="1">
    <stop offset="0%" stop-color="#f5d4bd"/><stop offset="100%" stop-color="#d6a47a"/>
  </linearGradient>
</defs>
<rect x="0" y="0" width="900" height="520" fill="#fff8fb"/><g><line x1="40" y1="40" x2="40" y2="480" stroke="#f0d9e4" stroke-width="1" opacity="0.55"/><line x1="80" y1="40" x2="80" y2="480" stroke="#f0d9e4" stroke-width="1" opacity="0.55"/><line x1="120" y1="40" x2="120" y2="480" stroke="#f0d9e4" stroke-width="1" opacity="0.55"/><line x1="160" y1="40" x2="160" y2="480" stroke="#f0d9e4" stroke-width="1" opacity="0.55"/><line x1="200" y1="40" x2="200" y2="480" stroke="#f0d9e4" stroke-width="1" opacity="0.55"/><line x1="240" y1="40" x2="240" y2="480" stroke="#f0d9e4" stroke-width="1" opacity="0.55"/><line x1="280" y1="40" x2="280" y2="480" stroke="#f0d9e4" stroke-width="1" opacity="0.55"/><line x1="320" y1="40" x2="320" y2="480" stroke="#f0d9e4" stroke-width="1" opacity="0.55"/><line x1="360" y1="40" x2="360" y2="480" stroke="#f0d9e4" stroke-width="1" opacity="0.55"/><line x1="400" y1="40" x2="400" y2="480" stroke="#f0d9e4" stroke-width="1" opacity="0.55"/><line x1="440" y1="40" x2="440" y2="480" stroke="#f0d9e4" stroke-width="1" opacity="0.55"/><line x1="480" y1="40" x2="480" y2="480" stroke="#f0d9e4" stroke-width="1" opacity="0.55"/><line x1="520" y1="40" x2="520" y2="480" stroke="#f0d9e4" stroke-width="1" opacity="0.55"/><line x1="560" y1="40" x2="560" y2="480" stroke="#f0d9e4" stroke-width="1" opacity="0.55"/><line x1="600" y1="40" x2="600" y2="480" stroke="#f0d9e4" stroke-width="1" opacity="0.55"/><line x1="640" y1="40" x2="640" y2="480" stroke="#f0d9e4" stroke-width="1" opacity="0.55"/><line x1="680" y1="40" x2="680" y2="480" stroke="#f0d9e4" stroke-width="1" opacity="0.55"/><line x1="720" y1="40" x2="720" y2="480" stroke="#f0d9e4" stroke-width="1" opacity="0.55"/><line x1="760" y1="40" x2="760" y2="480" stroke="#f0d9e4" stroke-width="1" opacity="0.55"/><line x1="800" y1="40" x2="800" y2="480" stroke="#f0d9e4" stroke-width="1" opacity="0.55"/><line x1="840" y1="40" x2="840" y2="480" stroke="#f0d9e4" stroke-width="1" opacity="0.55"/><line x1="880" y1="40" x2="880" y2="480" stroke="#f0d9e4" stroke-width="1" opacity="0.55"/><line x1="40" y1="40" x2="860" y2="40" stroke="#f0d9e4" stroke-width="1" opacity="0.55"/><line x1="40" y1="80" x2="860" y2="80" stroke="#f0d9e4" stroke-width="1" opacity="0.55"/><line x1="40" y1="120" x2="860" y2="120" stroke="#f0d9e4" stroke-width="1" opacity="0.55"/><line x1="40" y1="160" x2="860" y2="160" stroke="#f0d9e4" stroke-width="1" opacity="0.55"/><line x1="40" y1="200" x2="860" y2="200" stroke="#f0d9e4" stroke-width="1" opacity="0.55"/><line x1="40" y1="240" x2="860" y2="240" stroke="#f0d9e4" stroke-width="1" opacity="0.55"/><line x1="40" y1="280" x2="860" y2="280" stroke="#f0d9e4" stroke-width="1" opacity="0.55"/><line x1="40" y1="320" x2="860" y2="320" stroke="#f0d9e4" stroke-width="1" opacity="0.55"/><line x1="40" y1="360" x2="860" y2="360" stroke="#f0d9e4" stroke-width="1" opacity="0.55"/><line x1="40" y1="400" x2="860" y2="400" stroke="#f0d9e4" stroke-width="1" opacity="0.55"/><line x1="40" y1="440" x2="860" y2="440" stroke="#f0d9e4" stroke-width="1" opacity="0.55"/><line x1="40" y1="480" x2="860" y2="480" stroke="#f0d9e4" stroke-width="1" opacity="0.55"/></g><text x="450.0" y="34" font-family="Arial, sans-serif" font-size="26" font-weight="700" fill="#5c4352" text-anchor="middle">Мобиль со звёздами — вид сверху / TOP</text>
<g>
  <!-- hanging point -->
  <circle cx="450" cy="88" r="10" fill="#d7dbe6" stroke="#2f2530" stroke-width="2"/>
  <line x1="450" y1="98" x2="450" y2="142" stroke="#677088" stroke-width="3"/>
  <!-- outer ring stars first -->
  <line x1="450" y1="142" x2="450" y2="176" stroke="#677088" stroke-width="3"/>
  <line x1="450" y1="176" x2="380" y2="176" stroke="#677088" stroke-width="2.5"/>
  <line x1="450" y1="176" x2="520" y2="176" stroke="#677088" stroke-width="2.5"/>
  <line x1="450" y1="176" x2="450" y2="250" stroke="#677088" stroke-width="2.5"/>
  <line x1="450" y1="176" x2="398" y2="232" stroke="#677088" stroke-width="2.5"/>
  <line x1="450" y1="176" x2="502" y2="232" stroke="#677088" stroke-width="2.5"/>

  <line x1="380" y1="176" x2="348" y2="222" stroke="#677088" stroke-width="2"/>
  <line x1="520" y1="176" x2="552" y2="222" stroke="#677088" stroke-width="2"/>
  <line x1="398" y1="232" x2="376" y2="292" stroke="#677088" stroke-width="2"/>
  <line x1="502" y1="232" x2="524" y2="292" stroke="#677088" stroke-width="2"/>
  <line x1="450" y1="250" x2="450" y2="312" stroke="#677088" stroke-width="2"/>

  <polygon points="348,222 356,236 372,238 360,248 364,264 348,256 334,264 338,248 326,238 342,236" fill="#fff4c7" stroke="#2f2530" stroke-width="2"/>
  <polygon points="552,222 560,236 576,238 564,248 568,264 552,256 538,264 542,248 530,238 546,236" fill="#c9b5ff" stroke="#2f2530" stroke-width="2"/>
  <polygon points="376,292 384,306 400,308 388,318 392,334 376,326 362,334 366,318 354,308 370,306" fill="#aee3ff" stroke="#2f2530" stroke-width="2"/>
  <polygon points="524,292 532,306 548,308 536,318 540,334 524,326 510,334 514,318 502,308 518,306" fill="#ffd4e4" stroke="#2f2530" stroke-width="2"/>
  <polygon points="450,312 458,326 474,328 462,338 466,354 450,346 436,354 440,338 428,328 444,326" fill="#86d7c0" stroke="#2f2530" stroke-width="2"/>

  <!-- central hub on top, visually covering central parts -->
  <circle cx="450" cy="176" r="24" fill="#d7dbe6" stroke="#2f2530" stroke-width="3"/>
</g>
<line x1="326" y1="398" x2="576" y2="398" stroke="#b98aa0" stroke-width="2"/><line x1="326" y1="390" x2="326" y2="406" stroke="#b98aa0" stroke-width="2"/><line x1="576" y1="390" x2="576" y2="406" stroke="#b98aa0" stroke-width="2"/><text x="451.0" y="386" font-family="Arial, sans-serif" font-size="18" fill="#5c4352" text-anchor="middle">центр держит композицию</text></svg>