<?xml version="1.0" encoding="UTF-8"?><svg xmlns="http://www.w3.org/2000/svg" width="560" height="390" viewBox="0 0 560 390">
<defs>
  <linearGradient id="gPink" x1="0" y1="0" x2="1" y2="1">
    <stop offset="0%" stop-color="#ffd4e4"/><stop offset="100%" stop-color="#e56fa0"/>
  </linearGradient>
  <linearGradient id="gMint" x1="0" y1="0" x2="1" y2="1">
    <stop offset="0%" stop-color="#86d7c0"/><stop offset="100%" stop-color="#63b79e"/>
  </linearGradient>
  <linearGradient id="gLav" x1="0" y1="0" x2="1" y2="1">
    <stop offset="0%" stop-color="#c9b5ff"/><stop offset="100%" stop-color="#aa92ef"/>
  </linearGradient>
  <linearGradient id="gWood" x1="0" y1="0" x2="1" y2="1">
    <stop offset="0%" stop-color="#f5d4bd"/><stop offset="100%" stop-color="#d6a47a"/>
  </linearGradient>
</defs>
<rect x="0" y="0" width="560" height="390" fill="#fff8fb"/><g><line x1="40" y1="40" x2="40" y2="350" stroke="#f0d9e4" stroke-width="1" opacity="0.55"/><line x1="80" y1="40" x2="80" y2="350" stroke="#f0d9e4" stroke-width="1" opacity="0.55"/><line x1="120" y1="40" x2="120" y2="350" stroke="#f0d9e4" stroke-width="1" opacity="0.55"/><line x1="160" y1="40" x2="160" y2="350" stroke="#f0d9e4" stroke-width="1" opacity="0.55"/><line x1="200" y1="40" x2="200" y2="350" stroke="#f0d9e4" stroke-width="1" opacity="0.55"/><line x1="240" y1="40" x2="240" y2="350" stroke="#f0d9e4" stroke-width="1" opacity="0.55"/><line x1="280" y1="40" x2="280" y2="350" stroke="#f0d9e4" stroke-width="1" opacity="0.55"/><line x1="320" y1="40" x2="320" y2="350" stroke="#f0d9e4" stroke-width="1" opacity="0.55"/><line x1="360" y1="40" x2="360" y2="350" stroke="#f0d9e4" stroke-width="1" opacity="0.55"/><line x1="400" y1="40" x2="400" y2="350" stroke="#f0d9e4" stroke-width="1" opacity="0.55"/><line x1="440" y1="40" x2="440" y2="350" stroke="#f0d9e4" stroke-width="1" opacity="0.55"/><line x1="480" y1="40" x2="480" y2="350" stroke="#f0d9e4" stroke-width="1" opacity="0.55"/><line x1="520" y1="40" x2="520" y2="350" stroke="#f0d9e4" stroke-width="1" opacity="0.55"/><line x1="40" y1="40" x2="520" y2="40" stroke="#f0d9e4" stroke-width="1" opacity="0.55"/><line x1="40" y1="80" x2="520" y2="80" stroke="#f0d9e4" stroke-width="1" opacity="0.55"/><line x1="40" y1="120" x2="520" y2="120" stroke="#f0d9e4" stroke-width="1" opacity="0.55"/><line x1="40" y1="160" x2="520" y2="160" stroke="#f0d9e4" stroke-width="1" opacity="0.55"/><line x1="40" y1="200" x2="520" y2="200" stroke="#f0d9e4" stroke-width="1" opacity="0.55"/><line x1="40" y1="240" x2="520" y2="240" stroke="#f0d9e4" stroke-width="1" opacity="0.55"/><line x1="40" y1="280" x2="520" y2="280" stroke="#f0d9e4" stroke-width="1" opacity="0.55"/><line x1="40" y1="320" x2="520" y2="320" stroke="#f0d9e4" stroke-width="1" opacity="0.55"/><line x1="40" y1="360" x2="520" y2="360" stroke="#f0d9e4" stroke-width="1" opacity="0.55"/></g><text x="280.0" y="34" font-family="Arial, sans-serif" font-size="26" font-weight="700" fill="#5c4352" text-anchor="middle">Мобиль со звёздами — вид спереди / FRONT</text>
<g>
  <line x1="280" y1="44" x2="280" y2="86" stroke="#677088" stroke-width="3"/>
  <circle cx="280" cy="92" r="14" fill="#d7dbe6" stroke="#2f2530" stroke-width="2"/>
  <line x1="280" y1="106" x2="280" y2="140" stroke="#677088" stroke-width="3"/>
  <line x1="208" y1="140" x2="352" y2="140" stroke="#677088" stroke-width="3"/>
  <line x1="280" y1="140" x2="280" y2="180" stroke="#677088" stroke-width="3"/>
  <line x1="208" y1="140" x2="208" y2="212" stroke="#677088" stroke-width="2"/>
  <line x1="352" y1="140" x2="352" y2="212" stroke="#677088" stroke-width="2"/>
  <line x1="280" y1="180" x2="248" y2="252" stroke="#677088" stroke-width="2"/>
  <line x1="280" y1="180" x2="312" y2="252" stroke="#677088" stroke-width="2"/>
  <polygon points="208,212 216,226 232,228 220,238 224,254 208,246 194,254 198,238 186,228 202,226" fill="#fff4c7" stroke="#2f2530" stroke-width="2"/>
  <polygon points="352,212 360,226 376,228 364,238 368,254 352,246 338,254 342,238 330,228 346,226" fill="#c9b5ff" stroke="#2f2530" stroke-width="2"/>
  <polygon points="248,252 256,266 272,268 260,278 264,294 248,286 234,294 238,278 226,268 242,266" fill="#aee3ff" stroke="#2f2530" stroke-width="2"/>
  <polygon points="312,252 320,266 336,268 324,278 328,294 312,286 298,294 302,278 290,268 306,266" fill="#ffd4e4" stroke="#2f2530" stroke-width="2"/>
</g>
<line x1="186" y1="332" x2="376" y2="332" stroke="#b98aa0" stroke-width="2"/><line x1="186" y1="324" x2="186" y2="340" stroke="#b98aa0" stroke-width="2"/><line x1="376" y1="324" x2="376" y2="340" stroke="#b98aa0" stroke-width="2"/><text x="281.0" y="320" font-family="Arial, sans-serif" font-size="18" fill="#5c4352" text-anchor="middle">ширина 0.42 м</text><line x1="172" y1="44" x2="172" y2="294" stroke="#b98aa0" stroke-width="2"/><line x1="164" y1="44" x2="180" y2="44" stroke="#b98aa0" stroke-width="2"/><line x1="164" y1="294" x2="180" y2="294" stroke="#b98aa0" stroke-width="2"/><text x="144" y="169.0" transform="rotate(-90 144 169.0)" font-family="Arial, sans-serif" font-size="18" fill="#5c4352" text-anchor="middle">высота 0.42 м</text></svg>