<?xml version="1.0" encoding="UTF-8"?>
<svg xmlns="http://www.w3.org/2000/svg" width="1400" height="980" viewBox="0 0 1400 980">

<defs>
  <linearGradient id="gPink" x1="0" y1="0" x2="1" y2="1">
    <stop offset="0%" stop-color="#ffd4e4"/><stop offset="100%" stop-color="#e56fa0"/>
  </linearGradient>
  <linearGradient id="gMint" x1="0" y1="0" x2="1" y2="1">
    <stop offset="0%" stop-color="#86d7c0"/><stop offset="100%" stop-color="#63b79e"/>
  </linearGradient>
  <linearGradient id="gLav" x1="0" y1="0" x2="1" y2="1">
    <stop offset="0%" stop-color="#c9b5ff"/><stop offset="100%" stop-color="#aa92ef"/>
  </linearGradient>
  <linearGradient id="gWood" x1="0" y1="0" x2="1" y2="1">
    <stop offset="0%" stop-color="#f5d4bd"/><stop offset="100%" stop-color="#d6a47a"/>
  </linearGradient>
</defs>

<rect x="0" y="0" width="1400" height="980" fill="#fff8fb"/>
<text x="700" y="42" font-family="Arial, sans-serif" font-size="30" font-weight="700" fill="#5c4352" text-anchor="middle">Мобиль со звёздами — 3 ортографических SVG-вида</text>
<text x="700" y="72" font-family="Arial, sans-serif" font-size="17" fill="#5c4352" text-anchor="middle">v3: пересобраны проблемные top/side по замечаниям.</text>
<g transform="translate(160,120)"><text x="320" y="-18" font-family="Arial, sans-serif" font-size="22" font-weight="700" fill="#5c4352" text-anchor="middle">TOP</text>
<g>
  <!-- hanging point -->
  <circle cx="450" cy="88" r="10" fill="#d7dbe6" stroke="#2f2530" stroke-width="2"/>
  <line x1="450" y1="98" x2="450" y2="142" stroke="#677088" stroke-width="3"/>
  <!-- outer ring stars first -->
  <line x1="450" y1="142" x2="450" y2="176" stroke="#677088" stroke-width="3"/>
  <line x1="450" y1="176" x2="380" y2="176" stroke="#677088" stroke-width="2.5"/>
  <line x1="450" y1="176" x2="520" y2="176" stroke="#677088" stroke-width="2.5"/>
  <line x1="450" y1="176" x2="450" y2="250" stroke="#677088" stroke-width="2.5"/>
  <line x1="450" y1="176" x2="398" y2="232" stroke="#677088" stroke-width="2.5"/>
  <line x1="450" y1="176" x2="502" y2="232" stroke="#677088" stroke-width="2.5"/>

  <line x1="380" y1="176" x2="348" y2="222" stroke="#677088" stroke-width="2"/>
  <line x1="520" y1="176" x2="552" y2="222" stroke="#677088" stroke-width="2"/>
  <line x1="398" y1="232" x2="376" y2="292" stroke="#677088" stroke-width="2"/>
  <line x1="502" y1="232" x2="524" y2="292" stroke="#677088" stroke-width="2"/>
  <line x1="450" y1="250" x2="450" y2="312" stroke="#677088" stroke-width="2"/>

  <polygon points="348,222 356,236 372,238 360,248 364,264 348,256 334,264 338,248 326,238 342,236" fill="#fff4c7" stroke="#2f2530" stroke-width="2"/>
  <polygon points="552,222 560,236 576,238 564,248 568,264 552,256 538,264 542,248 530,238 546,236" fill="#c9b5ff" stroke="#2f2530" stroke-width="2"/>
  <polygon points="376,292 384,306 400,308 388,318 392,334 376,326 362,334 366,318 354,308 370,306" fill="#aee3ff" stroke="#2f2530" stroke-width="2"/>
  <polygon points="524,292 532,306 548,308 536,318 540,334 524,326 510,334 514,318 502,308 518,306" fill="#ffd4e4" stroke="#2f2530" stroke-width="2"/>
  <polygon points="450,312 458,326 474,328 462,338 466,354 450,346 436,354 440,338 428,328 444,326" fill="#86d7c0" stroke="#2f2530" stroke-width="2"/>

  <!-- central hub on top, visually covering central parts -->
  <circle cx="450" cy="176" r="24" fill="#d7dbe6" stroke="#2f2530" stroke-width="3"/>
</g>
</g>
<g transform="translate(160,550)"><text x="320" y="-18" font-family="Arial, sans-serif" font-size="22" font-weight="700" fill="#5c4352" text-anchor="middle">SIDE</text>
<g>
  <!-- true side view: stacked bars and stars seen from side, no twisted top view -->
  <line x1="450" y1="36" x2="450" y2="78" stroke="#677088" stroke-width="3"/>
  <circle cx="450" cy="88" r="10" fill="#d7dbe6" stroke="#2f2530" stroke-width="2"/>
  <line x1="450" y1="98" x2="450" y2="136" stroke="#677088" stroke-width="3"/>

  <!-- first bar seen from side -->
  <line x1="392" y1="136" x2="508" y2="136" stroke="#677088" stroke-width="3"/>
  <line x1="392" y1="136" x2="392" y2="220" stroke="#677088" stroke-width="2"/>
  <line x1="450" y1="136" x2="450" y2="240" stroke="#677088" stroke-width="2"/>
  <line x1="508" y1="136" x2="508" y2="208" stroke="#677088" stroke-width="2"/>

  <!-- stars seen edge-on / side-on -->
  <polygon points="392,220 400,234 416,236 404,246 408,262 392,254 378,262 382,246 370,236 386,234" fill="#fff4c7" stroke="#2f2530" stroke-width="2"/>
  <polygon points="450,240 458,254 474,256 462,266 466,282 450,274 436,282 440,266 428,256 444,254" fill="#aee3ff" stroke="#2f2530" stroke-width="2"/>
  <polygon points="508,208 516,222 532,224 520,234 524,250 508,242 494,250 498,234 486,224 502,222" fill="#c9b5ff" stroke="#2f2530" stroke-width="2"/>

  <!-- second lower offset bar -->
  <line x1="430" y1="168" x2="534" y2="168" stroke="#677088" stroke-width="2.5"/>
  <line x1="430" y1="168" x2="430" y2="288" stroke="#677088" stroke-width="2"/>
  <line x1="534" y1="168" x2="534" y2="272" stroke="#677088" stroke-width="2"/>
  <polygon points="430,288 438,302 454,304 442,314 446,330 430,322 416,330 420,314 408,304 424,302" fill="#86d7c0" stroke="#2f2530" stroke-width="2"/>
  <polygon points="534,272 542,286 558,288 546,298 550,314 534,306 520,314 524,298 512,288 528,286" fill="#ffd4e4" stroke="#2f2530" stroke-width="2"/>
</g>
</g>
<g transform="translate(880,550)"><text x="152" y="-18" font-family="Arial, sans-serif" font-size="22" font-weight="700" fill="#5c4352" text-anchor="middle">FRONT</text>
<g>
  <line x1="280" y1="44" x2="280" y2="86" stroke="#677088" stroke-width="3"/>
  <circle cx="280" cy="92" r="14" fill="#d7dbe6" stroke="#2f2530" stroke-width="2"/>
  <line x1="280" y1="106" x2="280" y2="140" stroke="#677088" stroke-width="3"/>
  <line x1="208" y1="140" x2="352" y2="140" stroke="#677088" stroke-width="3"/>
  <line x1="280" y1="140" x2="280" y2="180" stroke="#677088" stroke-width="3"/>
  <line x1="208" y1="140" x2="208" y2="212" stroke="#677088" stroke-width="2"/>
  <line x1="352" y1="140" x2="352" y2="212" stroke="#677088" stroke-width="2"/>
  <line x1="280" y1="180" x2="248" y2="252" stroke="#677088" stroke-width="2"/>
  <line x1="280" y1="180" x2="312" y2="252" stroke="#677088" stroke-width="2"/>
  <polygon points="208,212 216,226 232,228 220,238 224,254 208,246 194,254 198,238 186,228 202,226" fill="#fff4c7" stroke="#2f2530" stroke-width="2"/>
  <polygon points="352,212 360,226 376,228 364,238 368,254 352,246 338,254 342,238 330,228 346,226" fill="#c9b5ff" stroke="#2f2530" stroke-width="2"/>
  <polygon points="248,252 256,266 272,268 260,278 264,294 248,286 234,294 238,278 226,268 242,266" fill="#aee3ff" stroke="#2f2530" stroke-width="2"/>
  <polygon points="312,252 320,266 336,268 324,278 328,294 312,286 298,294 302,278 290,268 306,266" fill="#ffd4e4" stroke="#2f2530" stroke-width="2"/>
</g>
</g>
</svg>