<?xml version="1.0" encoding="UTF-8"?>
<svg xmlns="http://www.w3.org/2000/svg" width="1400" height="980" viewBox="0 0 1400 980">

<defs>
  <linearGradient id="gPink" x1="0" y1="0" x2="1" y2="1">
    <stop offset="0%" stop-color="#ffd4e4"/><stop offset="100%" stop-color="#e56fa0"/>
  </linearGradient>
  <linearGradient id="gWood" x1="0" y1="0" x2="1" y2="1">
    <stop offset="0%" stop-color="#f5d4bd"/><stop offset="100%" stop-color="#d6a47a"/>
  </linearGradient>
  <linearGradient id="gMint" x1="0" y1="0" x2="1" y2="1">
    <stop offset="0%" stop-color="#86d7c0"/><stop offset="100%" stop-color="#63b79e"/>
  </linearGradient>
  <linearGradient id="gLav" x1="0" y1="0" x2="1" y2="1">
    <stop offset="0%" stop-color="#c9b5ff"/><stop offset="100%" stop-color="#aa92ef"/>
  </linearGradient>
</defs>

<rect x="0" y="0" width="1400" height="980" fill="#fff8fb"/>
<text x="700" y="42" font-family="Arial, sans-serif" font-size="30" font-weight="700" fill="#5c4352" text-anchor="middle">Настенные часы — 3 ортографических SVG-вида</text>
<text x="700" y="72" font-family="Arial, sans-serif" font-size="17" fill="#5c4352" text-anchor="middle">v2: исправлены характерные формы и логика плоских/подвесных предметов.</text>
<g transform="translate(160,120)"><text x="320" y="-18" font-family="Arial, sans-serif" font-size="22" font-weight="700" fill="#5c4352" text-anchor="middle">TOP</text>
<g>
  <circle cx="450" cy="252" r="112" fill="#faf7ff" stroke="#2f2530" stroke-width="4"/>
  <circle cx="450" cy="252" r="96" fill="none" stroke="#ead1dc" stroke-width="3" opacity="0.55"/>
</g>
</g>
<g transform="translate(160,550)"><text x="320" y="-18" font-family="Arial, sans-serif" font-size="22" font-weight="700" fill="#5c4352" text-anchor="middle">SIDE</text>
<g>
  <line x1="100" y1="292" x2="800" y2="292" stroke="#b98aa0" stroke-width="3" stroke-dasharray="10 8"/>
  <rect x="402" y="188" width="96" height="104" rx="48" fill="#faf7ff" stroke="#2f2530" stroke-width="4"/>
</g>
</g>
<g transform="translate(880,550)"><text x="152" y="-18" font-family="Arial, sans-serif" font-size="22" font-weight="700" fill="#5c4352" text-anchor="middle">FRONT</text>
<g>
  <line x1="64" y1="292" x2="496" y2="292" stroke="#b98aa0" stroke-width="3" stroke-dasharray="10 8"/>
  <circle cx="280" cy="192" r="112" fill="#faf7ff" stroke="#2f2530" stroke-width="4"/>
  <circle cx="280" cy="192" r="96" fill="none" stroke="#ead1dc" stroke-width="3" opacity="0.55"/>
  <circle cx="280" cy="192" r="8" fill="#677088" stroke="#2f2530" stroke-width="2"/>
  <line x1="280" y1="192" x2="280" y2="130" stroke="#677088" stroke-width="5" stroke-linecap="round"/>
  <line x1="280" y1="192" x2="330" y2="192" stroke="#677088" stroke-width="4" stroke-linecap="round"/>
  <g fill="#677088" font-family="Arial, sans-serif" font-size="18" font-weight="700" text-anchor="middle">
    <text x="280" y="102">12</text><text x="370" y="198">3</text><text x="280" y="294">6</text><text x="190" y="198">9</text>
  </g>
</g>
</g>
</svg>