<?xml version="1.0" encoding="UTF-8"?>
<svg xmlns="http://www.w3.org/2000/svg" width="1400" height="980" viewBox="0 0 1400 980">

<defs>
  <linearGradient id="gPink" x1="0" y1="0" x2="1" y2="1">
    <stop offset="0%" stop-color="#ffd4e4"/><stop offset="100%" stop-color="#e56fa0"/>
  </linearGradient>
  <linearGradient id="gWood" x1="0" y1="0" x2="1" y2="1">
    <stop offset="0%" stop-color="#f5d4bd"/><stop offset="100%" stop-color="#d6a47a"/>
  </linearGradient>
  <linearGradient id="gMint" x1="0" y1="0" x2="1" y2="1">
    <stop offset="0%" stop-color="#86d7c0"/><stop offset="100%" stop-color="#63b79e"/>
  </linearGradient>
  <linearGradient id="gLav" x1="0" y1="0" x2="1" y2="1">
    <stop offset="0%" stop-color="#c9b5ff"/><stop offset="100%" stop-color="#aa92ef"/>
  </linearGradient>
  <linearGradient id="gBlue" x1="0" y1="0" x2="1" y2="1">
    <stop offset="0%" stop-color="#aee3ff"/><stop offset="100%" stop-color="#78c6ea"/>
  </linearGradient>
</defs>

<rect x="0" y="0" width="1400" height="980" fill="#fff8fb"/>
<text x="700" y="42" font-family="Arial, sans-serif" font-size="30" font-weight="700" fill="#5c4352" text-anchor="middle">Плакат 1 — 3 ортографических SVG-вида</text>
<text x="700" y="72" font-family="Arial, sans-serif" font-size="17" fill="#5c4352" text-anchor="middle">Исправленная итерация по замечаниям пользователя.</text>
<g transform="translate(160,120)"><text x="320" y="-18" font-family="Arial, sans-serif" font-size="22" font-weight="700" fill="#5c4352" text-anchor="middle">TOP</text>
<g>
  <rect x="292" y="212" width="316" height="24" rx="8" fill="#faf7ff" stroke="#2f2530" stroke-width="3"/>
  <rect x="306" y="218" width="288" height="10" rx="4" fill="#ffd4e4" opacity="0.8"/>
</g>
</g>
<g transform="translate(160,550)"><text x="320" y="-18" font-family="Arial, sans-serif" font-size="22" font-weight="700" fill="#5c4352" text-anchor="middle">SIDE</text>
<g>
  <line x1="90" y1="292" x2="810" y2="292" stroke="#b98aa0" stroke-width="3" stroke-dasharray="10 8"/>
  <rect x="430" y="86" width="18" height="206" rx="6" fill="#faf7ff" stroke="#2f2530" stroke-width="3"/>
  <rect x="434" y="98" width="10" height="182" rx="4" fill="#ffd4e4" opacity="0.8"/>
</g>
</g>
<g transform="translate(880,550)"><text x="152" y="-18" font-family="Arial, sans-serif" font-size="22" font-weight="700" fill="#5c4352" text-anchor="middle">FRONT</text>
<g>
  <rect x="154" y="62" width="252" height="230" rx="8" fill="#faf7ff" stroke="#2f2530" stroke-width="4"/>
  <rect x="170" y="78" width="220" height="198" rx="6" fill="#ffd4e4" stroke="#ead1dc" stroke-width="2"/>
  <circle cx="280" cy="134" r="34" fill="#fff4c7" stroke="#2f2530" stroke-width="2"/>
  <path d="M 212 228 C 240 182 320 182 348 228" fill="none" stroke="#ffffff" stroke-width="10" stroke-linecap="round"/>
  <path d="M 210 248 C 236 216 262 202 280 198 C 300 202 326 216 350 248" fill="none" stroke="#aa92ef" stroke-width="6" stroke-linecap="round"/>
</g>
</g>
</svg>