<?xml version="1.0" encoding="UTF-8"?>
<svg xmlns="http://www.w3.org/2000/svg" width="1400" height="980" viewBox="0 0 1400 980">

<defs>
  <linearGradient id="gPink" x1="0" y1="0" x2="1" y2="1">
    <stop offset="0%" stop-color="#ffd4e4"/><stop offset="100%" stop-color="#e56fa0"/>
  </linearGradient>
  <linearGradient id="gWood" x1="0" y1="0" x2="1" y2="1">
    <stop offset="0%" stop-color="#f5d4bd"/><stop offset="100%" stop-color="#d6a47a"/>
  </linearGradient>
  <linearGradient id="gMint" x1="0" y1="0" x2="1" y2="1">
    <stop offset="0%" stop-color="#86d7c0"/><stop offset="100%" stop-color="#63b79e"/>
  </linearGradient>
  <linearGradient id="gLav" x1="0" y1="0" x2="1" y2="1">
    <stop offset="0%" stop-color="#c9b5ff"/><stop offset="100%" stop-color="#aa92ef"/>
  </linearGradient>
  <linearGradient id="gBlue" x1="0" y1="0" x2="1" y2="1">
    <stop offset="0%" stop-color="#aee3ff"/><stop offset="100%" stop-color="#78c6ea"/>
  </linearGradient>
</defs>

<rect x="0" y="0" width="1400" height="980" fill="#fff8fb"/>
<text x="700" y="42" font-family="Arial, sans-serif" font-size="30" font-weight="700" fill="#5c4352" text-anchor="middle">Тапочки — 3 ортографических SVG-вида</text>
<text x="700" y="72" font-family="Arial, sans-serif" font-size="17" fill="#5c4352" text-anchor="middle">Исправленная итерация по замечаниям пользователя.</text>
<g transform="translate(160,120)"><text x="320" y="-18" font-family="Arial, sans-serif" font-size="22" font-weight="700" fill="#5c4352" text-anchor="middle">TOP</text>
<g>
  <path d="M 282 188 C 242 190 220 226 220 276 C 220 324 242 354 282 354 C 326 354 356 320 356 270 C 356 220 326 186 282 188 Z" fill="#fff3dc" stroke="#2f2530" stroke-width="4"/>
  <path d="M 246 238 C 264 214 304 212 328 230 C 336 236 338 252 334 268 C 308 274 270 274 240 268 C 236 254 238 244 246 238 Z" fill="url(#gPink)" stroke="#2f2530" stroke-width="3"/>
  <path d="M 618 188 C 578 190 556 226 556 276 C 556 324 578 354 618 354 C 662 354 692 320 692 270 C 692 220 662 186 618 188 Z" fill="#fff3dc" stroke="#2f2530" stroke-width="4"/>
  <path d="M 582 238 C 600 214 640 212 664 230 C 672 236 674 252 670 268 C 644 274 606 274 576 268 C 572 254 574 244 582 238 Z" fill="url(#gMint)" stroke="#2f2530" stroke-width="3"/>
</g>
</g>
<g transform="translate(160,550)"><text x="320" y="-18" font-family="Arial, sans-serif" font-size="22" font-weight="700" fill="#5c4352" text-anchor="middle">SIDE</text>
<g>
  <line x1="90" y1="292" x2="810" y2="292" stroke="#b98aa0" stroke-width="3" stroke-dasharray="10 8"/>
  <path d="M 282 272 C 316 272 366 272 424 272 C 450 272 472 278 486 292 L 250 292 C 256 278 266 272 282 272 Z" fill="#fff3dc" stroke="#2f2530" stroke-width="3"/>
  <path d="M 300 236 C 332 214 384 214 418 230 C 438 240 450 256 452 272 C 404 276 350 276 294 270 C 292 256 294 244 300 236 Z" fill="url(#gPink)" stroke="#2f2530" stroke-width="3"/>
</g>
</g>
<g transform="translate(880,550)"><text x="152" y="-18" font-family="Arial, sans-serif" font-size="22" font-weight="700" fill="#5c4352" text-anchor="middle">FRONT</text>
<g>
  <line x1="64" y1="292" x2="496" y2="292" stroke="#b98aa0" stroke-width="3" stroke-dasharray="10 8"/>
  <path d="M 106 292 C 108 244 138 220 188 220 C 236 220 266 244 268 292 Z" fill="#fff3dc" stroke="#2f2530" stroke-width="3"/>
  <path d="M 130 248 C 148 236 172 232 188 232 C 204 232 228 236 246 248 C 248 260 248 274 244 286 L 132 286 C 128 274 128 260 130 248 Z" fill="url(#gPink)" stroke="#2f2530" stroke-width="3"/>
  <path d="M 292 292 C 294 244 324 220 374 220 C 422 220 452 244 454 292 Z" fill="#fff3dc" stroke="#2f2530" stroke-width="3"/>
  <path d="M 316 248 C 334 236 358 232 374 232 C 390 232 414 236 432 248 C 434 260 434 274 430 286 L 318 286 C 314 274 314 260 316 248 Z" fill="url(#gMint)" stroke="#2f2530" stroke-width="3"/>
</g>
</g>
</svg>