<svg xmlns="http://www.w3.org/2000/svg" width="1800" height="1200" viewBox="0 0 1800 1200"><rect x="0" y="0" width="1800" height="1200" fill="#f6f4ef" stroke="#f6f4ef" stroke-width="0" rx="0" ry="0" opacity="1.0"/><line x1="0" y1="0" x2="0" y2="1200" stroke="#e4e0d7" stroke-width="1"/><line x1="40" y1="0" x2="40" y2="1200" stroke="#e4e0d7" stroke-width="1"/><line x1="80" y1="0" x2="80" y2="1200" stroke="#e4e0d7" stroke-width="1"/><line x1="120" y1="0" x2="120" y2="1200" stroke="#e4e0d7" stroke-width="1"/><line x1="160" y1="0" x2="160" y2="1200" stroke="#e4e0d7" stroke-width="1"/><line x1="200" y1="0" x2="200" y2="1200" stroke="#e4e0d7" stroke-width="1"/><line x1="240" y1="0" x2="240" y2="1200" stroke="#e4e0d7" stroke-width="1"/><line x1="280" y1="0" x2="280" y2="1200" stroke="#e4e0d7" stroke-width="1"/><line x1="320" y1="0" x2="320" y2="1200" stroke="#e4e0d7" stroke-width="1"/><line x1="360" y1="0" x2="360" y2="1200" stroke="#e4e0d7" stroke-width="1"/><line x1="400" y1="0" x2="400" y2="1200" stroke="#e4e0d7" stroke-width="1"/><line x1="440" y1="0" x2="440" y2="1200" stroke="#e4e0d7" stroke-width="1"/><line x1="480" y1="0" x2="480" y2="1200" stroke="#e4e0d7" stroke-width="1"/><line x1="520" y1="0" x2="520" y2="1200" stroke="#e4e0d7" stroke-width="1"/><line x1="560" y1="0" x2="560" y2="1200" stroke="#e4e0d7" stroke-width="1"/><line x1="600" y1="0" x2="600" y2="1200" stroke="#e4e0d7" stroke-width="1"/><line x1="640" y1="0" x2="640" y2="1200" stroke="#e4e0d7" stroke-width="1"/><line x1="680" y1="0" x2="680" y2="1200" stroke="#e4e0d7" stroke-width="1"/><line x1="720" y1="0" x2="720" y2="1200" stroke="#e4e0d7" stroke-width="1"/><line x1="760" y1="0" x2="760" y2="1200" stroke="#e4e0d7" stroke-width="1"/><line x1="800" y1="0" x2="800" y2="1200" stroke="#e4e0d7" stroke-width="1"/><line x1="840" y1="0" x2="840" y2="1200" stroke="#e4e0d7" stroke-width="1"/><line x1="880" y1="0" x2="880" y2="1200" stroke="#e4e0d7" stroke-width="1"/><line x1="920" y1="0" x2="920" y2="1200" stroke="#e4e0d7" stroke-width="1"/><line x1="960" y1="0" x2="960" y2="1200" stroke="#e4e0d7" stroke-width="1"/><line x1="1000" y1="0" x2="1000" y2="1200" stroke="#e4e0d7" stroke-width="1"/><line x1="1040" y1="0" x2="1040" y2="1200" stroke="#e4e0d7" stroke-width="1"/><line x1="1080" y1="0" x2="1080" y2="1200" stroke="#e4e0d7" stroke-width="1"/><line x1="1120" y1="0" x2="1120" y2="1200" stroke="#e4e0d7" stroke-width="1"/><line x1="1160" y1="0" x2="1160" y2="1200" stroke="#e4e0d7" stroke-width="1"/><line x1="1200" y1="0" x2="1200" y2="1200" stroke="#e4e0d7" stroke-width="1"/><line x1="1240" y1="0" x2="1240" y2="1200" stroke="#e4e0d7" stroke-width="1"/><line x1="1280" y1="0" x2="1280" y2="1200" stroke="#e4e0d7" stroke-width="1"/><line x1="1320" y1="0" x2="1320" y2="1200" stroke="#e4e0d7" stroke-width="1"/><line x1="1360" y1="0" x2="1360" y2="1200" stroke="#e4e0d7" stroke-width="1"/><line x1="1400" y1="0" x2="1400" y2="1200" stroke="#e4e0d7" stroke-width="1"/><line x1="1440" y1="0" x2="1440" y2="1200" stroke="#e4e0d7" stroke-width="1"/><line x1="1480" y1="0" x2="1480" y2="1200" stroke="#e4e0d7" stroke-width="1"/><line x1="1520" y1="0" x2="1520" y2="1200" stroke="#e4e0d7" stroke-width="1"/><line x1="1560" y1="0" x2="1560" y2="1200" stroke="#e4e0d7" stroke-width="1"/><line x1="1600" y1="0" x2="1600" y2="1200" stroke="#e4e0d7" stroke-width="1"/><line x1="1640" y1="0" x2="1640" y2="1200" stroke="#e4e0d7" stroke-width="1"/><line x1="1680" y1="0" x2="1680" y2="1200" stroke="#e4e0d7" stroke-width="1"/><line x1="1720" y1="0" x2="1720" y2="1200" stroke="#e4e0d7" stroke-width="1"/><line x1="1760" y1="0" x2="1760" y2="1200" stroke="#e4e0d7" stroke-width="1"/><line x1="1800" y1="0" x2="1800" y2="1200" stroke="#e4e0d7" stroke-width="1"/><line x1="0" y1="0" x2="1800" y2="0" stroke="#e4e0d7" stroke-width="1"/><line x1="0" y1="40" x2="1800" y2="40" stroke="#e4e0d7" stroke-width="1"/><line x1="0" y1="80" x2="1800" y2="80" stroke="#e4e0d7" stroke-width="1"/><line x1="0" y1="120" x2="1800" y2="120" stroke="#e4e0d7" stroke-width="1"/><line x1="0" y1="160" x2="1800" y2="160" stroke="#e4e0d7" stroke-width="1"/><line x1="0" y1="200" x2="1800" y2="200" stroke="#e4e0d7" stroke-width="1"/><line x1="0" y1="240" x2="1800" y2="240" stroke="#e4e0d7" stroke-width="1"/><line x1="0" y1="280" x2="1800" y2="280" stroke="#e4e0d7" stroke-width="1"/><line x1="0" y1="320" x2="1800" y2="320" stroke="#e4e0d7" stroke-width="1"/><line x1="0" y1="360" x2="1800" y2="360" stroke="#e4e0d7" stroke-width="1"/><line x1="0" y1="400" x2="1800" y2="400" stroke="#e4e0d7" stroke-width="1"/><line x1="0" y1="440" x2="1800" y2="440" stroke="#e4e0d7" stroke-width="1"/><line x1="0" y1="480" x2="1800" y2="480" stroke="#e4e0d7" stroke-width="1"/><line x1="0" y1="520" x2="1800" y2="520" stroke="#e4e0d7" stroke-width="1"/><line x1="0" y1="560" x2="1800" y2="560" stroke="#e4e0d7" stroke-width="1"/><line x1="0" y1="600" x2="1800" y2="600" stroke="#e4e0d7" stroke-width="1"/><line x1="0" y1="640" x2="1800" y2="640" stroke="#e4e0d7" stroke-width="1"/><line x1="0" y1="680" x2="1800" y2="680" stroke="#e4e0d7" stroke-width="1"/><line x1="0" y1="720" x2="1800" y2="720" stroke="#e4e0d7" stroke-width="1"/><line x1="0" y1="760" x2="1800" y2="760" stroke="#e4e0d7" stroke-width="1"/><line x1="0" y1="800" x2="1800" y2="800" stroke="#e4e0d7" stroke-width="1"/><line x1="0" y1="840" x2="1800" y2="840" stroke="#e4e0d7" stroke-width="1"/><line x1="0" y1="880" x2="1800" y2="880" stroke="#e4e0d7" stroke-width="1"/><line x1="0" y1="920" x2="1800" y2="920" stroke="#e4e0d7" stroke-width="1"/><line x1="0" y1="960" x2="1800" y2="960" stroke="#e4e0d7" stroke-width="1"/><line x1="0" y1="1000" x2="1800" y2="1000" stroke="#e4e0d7" stroke-width="1"/><line x1="0" y1="1040" x2="1800" y2="1040" stroke="#e4e0d7" stroke-width="1"/><line x1="0" y1="1080" x2="1800" y2="1080" stroke="#e4e0d7" stroke-width="1"/><line x1="0" y1="1120" x2="1800" y2="1120" stroke="#e4e0d7" stroke-width="1"/><line x1="0" y1="1160" x2="1800" y2="1160" stroke="#e4e0d7" stroke-width="1"/><line x1="0" y1="1200" x2="1800" y2="1200" stroke="#e4e0d7" stroke-width="1"/><rect x="1400" y="40" width="340" height="1060" fill="#f8f7f3" stroke="#2a2a2a" stroke-width="3" rx="10" ry="10" opacity="1.0"/><text x="1570" y="76" font-family="Arial, sans-serif" font-size="28" font-weight="700" fill="#222" text-anchor="middle">2.5D ROOM PLAN</text><text x="1570" y="102" font-family="Arial, sans-serif" font-size="14" font-weight="400" fill="#555" text-anchor="middle">SVG redraw based on the source plan</text><text x="1420" y="142" font-family="Arial, sans-serif" font-size="16" font-weight="700" fill="#333333" text-anchor="start">3 rooms + corridor</text><text x="1420" y="166" font-family="Arial, sans-serif" font-size="14" font-weight="400" fill="#333333" text-anchor="start">All 51 objects are shown.</text><text x="1420" y="188" font-family="Arial, sans-serif" font-size="14" font-weight="400" fill="#333333" text-anchor="start">Top footprints follow the plan.</text><text x="1420" y="210" font-family="Arial, sans-serif" font-size="14" font-weight="400" fill="#333333" text-anchor="start">Extrusion shows approximate height.</text><text x="1420" y="244" font-family="Arial, sans-serif" font-size="18" font-weight="700" fill="#333333" text-anchor="start">ROOMS</text><rect x="1420" y="260" width="18" height="18" fill="#f8e1ea" stroke="#2a2a2a" stroke-width="2" rx="2" ry="2" opacity="1.0"/><text x="1450" y="276" font-family="Arial, sans-serif" font-size="15" font-weight="400" fill="#333333" text-anchor="start">Sleeping room</text><rect x="1420" y="290" width="18" height="18" fill="#f7edd0" stroke="#2a2a2a" stroke-width="2" rx="2" ry="2" opacity="1.0"/><text x="1450" y="306" font-family="Arial, sans-serif" font-size="15" font-weight="400" fill="#333333" text-anchor="start">Study / creative room</text><rect x="1420" y="320" width="18" height="18" fill="#dcebdc" stroke="#2a2a2a" stroke-width="2" rx="2" ry="2" opacity="1.0"/><text x="1450" y="336" font-family="Arial, sans-serif" font-size="15" font-weight="400" fill="#333333" text-anchor="start">Play / storage room</text><rect x="1420" y="350" width="18" height="18" fill="#efe6d4" stroke="#2a2a2a" stroke-width="2" rx="2" ry="2" opacity="1.0"/><text x="1450" y="366" font-family="Arial, sans-serif" font-size="15" font-weight="400" fill="#333333" text-anchor="start">Corridor</text><text x="1420" y="410" font-family="Arial, sans-serif" font-size="18" font-weight="700" fill="#333333" text-anchor="start">GROUPS</text><text x="1420" y="438" font-family="Arial, sans-serif" font-size="14" font-weight="400" fill="#333333" text-anchor="start">• 1–20 sleeping room items</text><text x="1420" y="462" font-family="Arial, sans-serif" font-size="14" font-weight="400" fill="#333333" text-anchor="start">• 21–27 study items</text><text x="1420" y="486" font-family="Arial, sans-serif" font-size="14" font-weight="400" fill="#333333" text-anchor="start">• 28–48 play / storage items</text><text x="1420" y="510" font-family="Arial, sans-serif" font-size="14" font-weight="400" fill="#333333" text-anchor="start">• 49 slippers</text><text x="1420" y="534" font-family="Arial, sans-serif" font-size="14" font-weight="400" fill="#333333" text-anchor="start">• 50 plant in pot</text><text x="1420" y="558" font-family="Arial, sans-serif" font-size="14" font-weight="400" fill="#333333" text-anchor="start">• 51 laundry basket</text><text x="1420" y="602" font-family="Arial, sans-serif" font-size="18" font-weight="700" fill="#333333" text-anchor="start">NOTE</text><text x="1420" y="628" font-family="Arial, sans-serif" font-size="14" font-weight="400" fill="#333333" text-anchor="start">Presentation-style 2.5D SVG.</text><text x="1420" y="650" font-family="Arial, sans-serif" font-size="14" font-weight="400" fill="#333333" text-anchor="start">Made to show placement, depth,</text><text x="1420" y="672" font-family="Arial, sans-serif" font-size="14" font-weight="400" fill="#333333" text-anchor="start">and height hierarchy clearly.</text><polygon points="694,94 722,116 722,646 694,624" fill="#dac6cd" stroke="#2a2a2a" stroke-width="3" opacity="1.0"/><polygon points="94,624 694,624 722,646 122,646" fill="#c1afb6" stroke="#2a2a2a" stroke-width="3" opacity="1.0"/><rect x="94" y="94" width="600" height="530" fill="#f8e1ea" stroke="#2a2a2a" stroke-width="3" rx="0" ry="0" opacity="1.0"/><text x="114" y="124" font-family="Arial, sans-serif" font-size="20" font-weight="700" fill="#4a3a3a" text-anchor="start">SLEEPING ROOM</text><polygon points="1306,94 1334,116 1334,646 1306,624" fill="#d9d0b7" stroke="#2a2a2a" stroke-width="3" opacity="1.0"/><polygon points="694,624 1306,624 1334,646 722,646" fill="#c0b8a2" stroke="#2a2a2a" stroke-width="3" opacity="1.0"/><rect x="694" y="94" width="612" height="530" fill="#f7edd0" stroke="#2a2a2a" stroke-width="3" rx="0" ry="0" opacity="1.0"/><text x="714" y="124" font-family="Arial, sans-serif" font-size="20" font-weight="700" fill="#4a3a3a" text-anchor="start">STUDY / CREATIVE ROOM</text><polygon points="1306,640 1334,662 1334,1108 1306,1086" fill="#c1cec1" stroke="#2a2a2a" stroke-width="3" opacity="1.0"/><polygon points="94,1086 1306,1086 1334,1108 122,1108" fill="#abb7ab" stroke="#2a2a2a" stroke-width="3" opacity="1.0"/><rect x="94" y="640" width="1212" height="446" fill="#dcebdc" stroke="#2a2a2a" stroke-width="3" rx="0" ry="0" opacity="1.0"/><text x="114" y="670" font-family="Arial, sans-serif" font-size="20" font-weight="700" fill="#4a3a3a" text-anchor="start">PLAY / STORAGE ROOM</text><polygon points="820,560 848,582 848,677 820,655" fill="#d2caba" stroke="#2a2a2a" stroke-width="3" opacity="1.0"/><polygon points="600,655 820,655 848,677 628,677" fill="#bab3a5" stroke="#2a2a2a" stroke-width="3" opacity="1.0"/><rect x="600" y="560" width="220" height="95" fill="#efe6d4" stroke="#2a2a2a" stroke-width="3" rx="0" ry="0" opacity="1.0"/><text x="620" y="590" font-family="Arial, sans-serif" font-size="20" font-weight="700" fill="#4a3a3a" text-anchor="start">CORRIDOR</text><rect x="610" y="584" width="80" height="18" fill="#ffffff" stroke="#2a2a2a" stroke-width="2" rx="0" ry="0" opacity="1.0"/><rect x="730" y="624" width="18" height="65" fill="#ffffff" stroke="#2a2a2a" stroke-width="2" rx="0" ry="0" opacity="1.0"/><polygon points="278,112 290,129 290,409 278,392" fill="#b18856" stroke="#2a2a2a" stroke-width="2" opacity="1.0"/><polygon points="108,392 278,392 290,409 120,409" fill="#937048" stroke="#2a2a2a" stroke-width="2" opacity="1.0"/><rect x="108" y="112" width="170" height="280" fill="#d9a66a" stroke="#2a2a2a" stroke-width="2" rx="10" ry="10" opacity="1.0"/><rect x="116" y="120" width="154" height="264" fill="#fffaf2" stroke="#2a2a2a" stroke-width="2" rx="8" ry="8" opacity="1.0"/><rect x="118" y="210" width="150" height="254" fill="#f48ab0" stroke="#2a2a2a" stroke-width="2" rx="6" ry="6" opacity="1.0"/><rect x="124" y="128" width="62" height="56" fill="#fffaf2" stroke="#2a2a2a" stroke-width="2" rx="10" ry="10" opacity="1.0"/><rect x="194" y="128" width="62" height="56" fill="#fff0a6" stroke="#2a2a2a" stroke-width="2" rx="10" ry="10" opacity="1.0"/><circle cx="300" cy="411" r="12" fill="#ffffff" stroke="#2a2a2a" stroke-width="2"/><text x="300" y="416" font-family="Arial, sans-serif" font-size="12" font-weight="700" fill="#111" text-anchor="middle">1</text><rect x="118" y="228" width="150" height="146" fill="#f48ab0" stroke="#2a2a2a" stroke-width="2" rx="6" ry="6" opacity="1.0"/><circle cx="276" cy="382" r="12" fill="#ffffff" stroke="#2a2a2a" stroke-width="2"/><text x="276" y="387" font-family="Arial, sans-serif" font-size="12" font-weight="700" fill="#111" text-anchor="middle">2</text><rect x="124" y="130" width="64" height="56" fill="#fffaf2" stroke="#2a2a2a" stroke-width="2" rx="10" ry="10" opacity="1.0"/><circle cx="196" cy="194" r="12" fill="#ffffff" stroke="#2a2a2a" stroke-width="2"/><text x="196" y="199" font-family="Arial, sans-serif" font-size="12" font-weight="700" fill="#111" text-anchor="middle">3</text><rect x="194" y="130" width="64" height="56" fill="#fff0a6" stroke="#2a2a2a" stroke-width="2" rx="10" ry="10" opacity="1.0"/><circle cx="266" cy="194" r="12" fill="#ffffff" stroke="#2a2a2a" stroke-width="2"/><text x="266" y="199" font-family="Arial, sans-serif" font-size="12" font-weight="700" fill="#111" text-anchor="middle">4</text><ellipse cx="237.0" cy="324.0" rx="9.0" ry="14.0" fill="#c58b4e" stroke="#2a2a2a" stroke-width="2" opacity="1"/><polygon points="246,324.0 254,330.0 254,346.8 246,340.8" fill="#a1713f" stroke="#2a2a2a" stroke-width="2" opacity="1.0"/><polygon points="228,338 246,338 254,344 236,344" fill="#855e35" stroke="#2a2a2a" stroke-width="2" opacity="1.0"/><circle cx="264" cy="346" r="12" fill="#ffffff" stroke="#2a2a2a" stroke-width="2"/><text x="264" y="351" font-family="Arial, sans-serif" font-size="12" font-weight="700" fill="#111" text-anchor="middle">5</text><polygon points="362,122 371,135 371,209 362,196" fill="#a1713f" stroke="#2a2a2a" stroke-width="2" opacity="1.0"/><polygon points="300,196 362,196 371,209 309,209" fill="#855e35" stroke="#2a2a2a" stroke-width="2" opacity="1.0"/><rect x="300" y="122" width="62" height="74" fill="#c58b4e" stroke="#2a2a2a" stroke-width="2" rx="6" ry="6" opacity="1.0"/><rect x="310" y="136" width="42" height="52" fill="#d9a66a" stroke="#2a2a2a" stroke-width="2" rx="6" ry="6" opacity="1.0"/><circle cx="344" cy="159.0" r="4" fill="#fffaf2" stroke="#2a2a2a" stroke-width="1"/><circle cx="381" cy="211" r="12" fill="#ffffff" stroke="#2a2a2a" stroke-width="2"/><text x="381" y="216" font-family="Arial, sans-serif" font-size="12" font-weight="700" fill="#111" text-anchor="middle">6</text><polygon points="342,110 356,129 356,145 342,126" fill="#d1cdc6" stroke="#2a2a2a" stroke-width="2" opacity="1.0"/><polygon points="326,126 342,126 356,145 340,145" fill="#adaaa4" stroke="#2a2a2a" stroke-width="2" opacity="1.0"/><rect x="326" y="110" width="16" height="16" fill="#fffaf2" stroke="#2a2a2a" stroke-width="2" rx="4" ry="4" opacity="1.0"/><circle cx="366" cy="147" r="12" fill="#ffffff" stroke="#2a2a2a" stroke-width="2"/><text x="366" y="152" font-family="Arial, sans-serif" font-size="12" font-weight="700" fill="#111" text-anchor="middle">7</text><rect x="300" y="78" width="240" height="16" fill="#bfe7ff" stroke="#2a2a2a" stroke-width="2" rx="0" ry="0" opacity="1.0"/><circle cx="548" cy="102" r="12" fill="#ffffff" stroke="#2a2a2a" stroke-width="2"/><text x="548" y="107" font-family="Arial, sans-serif" font-size="12" font-weight="700" fill="#111" text-anchor="middle">8</text><polygon points="298,78 306,89 306,133 298,122" fill="#c87190" stroke="#2a2a2a" stroke-width="2" opacity="1.0"/><polygon points="256,122 298,122 306,133 264,133" fill="#a55d77" stroke="#2a2a2a" stroke-width="2" opacity="1.0"/><rect x="256" y="78" width="42" height="44" fill="#f48ab0" stroke="#2a2a2a" stroke-width="2" rx="8" ry="8" opacity="1.0"/><circle cx="316" cy="135" r="12" fill="#ffffff" stroke="#2a2a2a" stroke-width="2"/><text x="316" y="140" font-family="Arial, sans-serif" font-size="12" font-weight="700" fill="#111" text-anchor="middle">9</text><polygon points="584,78 592,89 592,133 584,122" fill="#c87190" stroke="#2a2a2a" stroke-width="2" opacity="1.0"/><polygon points="542,122 584,122 592,133 550,133" fill="#a55d77" stroke="#2a2a2a" stroke-width="2" opacity="1.0"/><rect x="542" y="78" width="42" height="44" fill="#f48ab0" stroke="#2a2a2a" stroke-width="2" rx="8" ry="8" opacity="1.0"/><circle cx="602" cy="135" r="12" fill="#ffffff" stroke="#2a2a2a" stroke-width="2"/><text x="602" y="140" font-family="Arial, sans-serif" font-size="12" font-weight="700" fill="#111" text-anchor="middle">10</text><polygon points="628,624 636,630 636,706 628,700" fill="#a1713f" stroke="#2a2a2a" stroke-width="2" opacity="1.0"/><polygon points="610,700 628,700 636,706 618,706" fill="#855e35" stroke="#2a2a2a" stroke-width="2" opacity="1.0"/><rect x="610" y="624" width="18" height="76" fill="#c58b4e" stroke="#2a2a2a" stroke-width="2" rx="2" ry="2" opacity="1.0"/><circle cx="646" cy="708" r="12" fill="#ffffff" stroke="#2a2a2a" stroke-width="2"/><text x="646" y="713" font-family="Arial, sans-serif" font-size="12" font-weight="700" fill="#111" text-anchor="middle">11</text><ellipse cx="454.0" cy="284.0" rx="30.0" ry="30.0" fill="#fff0a6" stroke="#2a2a2a" stroke-width="2" opacity="1"/><polygon points="484,284.0 492,290.0 492,326.0 484,320.0" fill="#d1c488" stroke="#2a2a2a" stroke-width="2" opacity="1.0"/><polygon points="424,314 484,314 492,320 432,320" fill="#ada370" stroke="#2a2a2a" stroke-width="2" opacity="1.0"/><circle cx="502" cy="322" r="12" fill="#ffffff" stroke="#2a2a2a" stroke-width="2"/><text x="502" y="327" font-family="Arial, sans-serif" font-size="12" font-weight="700" fill="#111" text-anchor="middle">12</text><rect x="330" y="240" width="220" height="200" fill="#f6c1cb" stroke="#2a2a2a" stroke-width="2" rx="18" ry="18" opacity="1.0"/><circle cx="558" cy="448" r="12" fill="#ffffff" stroke="#2a2a2a" stroke-width="2"/><text x="558" y="453" font-family="Arial, sans-serif" font-size="12" font-weight="700" fill="#111" text-anchor="middle">13</text><polygon points="668,132 709,189 709,409 668,352" fill="#c87190" stroke="#2a2a2a" stroke-width="2" opacity="1.0"/><polygon points="576,352 668,352 709,409 617,409" fill="#a55d77" stroke="#2a2a2a" stroke-width="2" opacity="1.0"/><rect x="576" y="132" width="92" height="220" fill="#f48ab0" stroke="#2a2a2a" stroke-width="2" rx="10" ry="10" opacity="1.0"/><rect x="586" y="142" width="72" height="200" fill="#f3a9c2" stroke="#2a2a2a" stroke-width="2" rx="6" ry="6" opacity="1.0"/><line x1="622.0" y1="142" x2="622.0" y2="342" stroke="#2a2a2a" stroke-width="2"/><circle cx="719" cy="411" r="12" fill="#ffffff" stroke="#2a2a2a" stroke-width="2"/><text x="719" y="416" font-family="Arial, sans-serif" font-size="12" font-weight="700" fill="#111" text-anchor="middle">14</text><polygon points="424,500 455,543 455,665 424,622" fill="#a1713f" stroke="#2a2a2a" stroke-width="2" opacity="1.0"/><polygon points="104,622 424,622 455,665 135,665" fill="#855e35" stroke="#2a2a2a" stroke-width="2" opacity="1.0"/><rect x="104" y="500" width="320" height="122" fill="#c58b4e" stroke="#2a2a2a" stroke-width="2" rx="4" ry="4" opacity="1.0"/><rect x="114" y="510" width="300" height="102" fill="#d9a66a" stroke="#2a2a2a" stroke-width="2" rx="4" ry="4" opacity="1.0"/><circle cx="465" cy="667" r="12" fill="#ffffff" stroke="#2a2a2a" stroke-width="2"/><text x="465" y="672" font-family="Arial, sans-serif" font-size="12" font-weight="700" fill="#111" text-anchor="middle">15</text><polygon points="125,520 133,527 133,555 125,548" fill="#c36868" stroke="#2a2a2a" stroke-width="2" opacity="1.0"/><polygon points="115,548 125,548 133,555 123,555" fill="#a25656" stroke="#2a2a2a" stroke-width="2" opacity="1.0"/><rect x="115" y="520" width="10" height="28" fill="#ef7f7f" stroke="#2a2a2a" stroke-width="2" rx="0" ry="0" opacity="1.0"/><circle cx="143" cy="557" r="12" fill="#ffffff" stroke="#2a2a2a" stroke-width="2"/><text x="143" y="562" font-family="Arial, sans-serif" font-size="12" font-weight="700" fill="#111" text-anchor="middle">16</text><polygon points="138,520 146,527 146,555 138,548" fill="#d1c488" stroke="#2a2a2a" stroke-width="2" opacity="1.0"/><polygon points="128,548 138,548 146,555 136,555" fill="#ada370" stroke="#2a2a2a" stroke-width="2" opacity="1.0"/><rect x="128" y="520" width="10" height="28" fill="#fff0a6" stroke="#2a2a2a" stroke-width="2" rx="0" ry="0" opacity="1.0"/><polygon points="151,520 159,527 159,555 151,548" fill="#9cbdd1" stroke="#2a2a2a" stroke-width="2" opacity="1.0"/><polygon points="141,548 151,548 159,555 149,555" fill="#819dad" stroke="#2a2a2a" stroke-width="2" opacity="1.0"/><rect x="141" y="520" width="10" height="28" fill="#bfe7ff" stroke="#2a2a2a" stroke-width="2" rx="0" ry="0" opacity="1.0"/><polygon points="166,520 174,527 174,555 166,548" fill="#75b19e" stroke="#2a2a2a" stroke-width="2" opacity="1.0"/><polygon points="156,548 166,548 174,555 164,555" fill="#619283" stroke="#2a2a2a" stroke-width="2" opacity="1.0"/><rect x="156" y="520" width="10" height="28" fill="#8fd8c1" stroke="#2a2a2a" stroke-width="2" rx="0" ry="0" opacity="1.0"/><polygon points="182,520 190,527 190,555 182,548" fill="#9683d1" stroke="#2a2a2a" stroke-width="2" opacity="1.0"/><polygon points="172,548 182,548 190,555 180,555" fill="#7d6cad" stroke="#2a2a2a" stroke-width="2" opacity="1.0"/><rect x="172" y="520" width="10" height="28" fill="#b8a0ff" stroke="#2a2a2a" stroke-width="2" rx="0" ry="0" opacity="1.0"/><ellipse cx="262.0" cy="555.0" rx="10.0" ry="10.0" fill="#ffd4e4" stroke="#2a2a2a" stroke-width="2" opacity="1"/><polygon points="272,555.0 280,563.0 280,575.0 272,567.0" fill="#d1adba" stroke="#2a2a2a" stroke-width="2" opacity="1.0"/><polygon points="252,565 272,565 280,573 260,573" fill="#ad909b" stroke="#2a2a2a" stroke-width="2" opacity="1.0"/><circle cx="290" cy="575" r="12" fill="#ffffff" stroke="#2a2a2a" stroke-width="2"/><text x="290" y="580" font-family="Arial, sans-serif" font-size="12" font-weight="700" fill="#111" text-anchor="middle">17</text><polygon points="369,520 377,529 377,539 369,530" fill="#d1cdc6" stroke="#2a2a2a" stroke-width="2" opacity="1.0"/><polygon points="357,530 369,530 377,539 365,539" fill="#adaaa4" stroke="#2a2a2a" stroke-width="2" opacity="1.0"/><rect x="357" y="520" width="12" height="10" fill="#fffaf2" stroke="#2a2a2a" stroke-width="2" rx="3" ry="3" opacity="1.0"/><circle cx="387" cy="541" r="12" fill="#ffffff" stroke="#2a2a2a" stroke-width="2"/><text x="387" y="546" font-family="Arial, sans-serif" font-size="12" font-weight="700" fill="#111" text-anchor="middle">18</text><polygon points="216,574 224,585 224,611 216,600" fill="#c87190" stroke="#2a2a2a" stroke-width="2" opacity="1.0"/><polygon points="166,600 216,600 224,611 174,611" fill="#a55d77" stroke="#2a2a2a" stroke-width="2" opacity="1.0"/><rect x="166" y="574" width="50" height="26" fill="#f48ab0" stroke="#2a2a2a" stroke-width="2" rx="5" ry="5" opacity="1.0"/><circle cx="234" cy="613" r="12" fill="#ffffff" stroke="#2a2a2a" stroke-width="2"/><text x="234" y="618" font-family="Arial, sans-serif" font-size="12" font-weight="700" fill="#111" text-anchor="middle">19</text><polygon points="380,600 388,609 388,627 380,618" fill="#9683d1" stroke="#2a2a2a" stroke-width="2" opacity="1.0"/><polygon points="344,618 380,618 388,627 352,627" fill="#7d6cad" stroke="#2a2a2a" stroke-width="2" opacity="1.0"/><rect x="344" y="600" width="36" height="18" fill="#b8a0ff" stroke="#2a2a2a" stroke-width="2" rx="2" ry="2" opacity="1.0"/><circle cx="398" cy="629" r="12" fill="#ffffff" stroke="#2a2a2a" stroke-width="2"/><text x="398" y="634" font-family="Arial, sans-serif" font-size="12" font-weight="700" fill="#111" text-anchor="middle">20</text><line x1="346" y1="603" x2="378" y2="603" stroke="#d46d97" stroke-width="2"/><line x1="362" y1="600" x2="362" y2="617" stroke="#d46d97" stroke-width="2"/><polygon points="1160,104 1187,141 1187,261 1160,224" fill="#a1713f" stroke="#2a2a2a" stroke-width="2" opacity="1.0"/><polygon points="830,224 1160,224 1187,261 857,261" fill="#855e35" stroke="#2a2a2a" stroke-width="2" opacity="1.0"/><rect x="830" y="104" width="330" height="120" fill="#c58b4e" stroke="#2a2a2a" stroke-width="2" rx="6" ry="6" opacity="1.0"/><rect x="842" y="116" width="306" height="96" fill="#d9a66a" stroke="#2a2a2a" stroke-width="2" rx="4" ry="4" opacity="1.0"/><rect x="952.1" y="122" width="85.8" height="42.0" fill="#cfd3da" stroke="#2a2a2a" stroke-width="2" rx="4" ry="4" opacity="1.0"/><rect x="965.3" y="128" width="59.4" height="26.4" fill="#555b68" stroke="#2a2a2a" stroke-width="2" rx="2" ry="2" opacity="1.0"/><circle cx="1197" cy="263" r="12" fill="#ffffff" stroke="#2a2a2a" stroke-width="2"/><text x="1197" y="268" font-family="Arial, sans-serif" font-size="12" font-weight="700" fill="#111" text-anchor="middle">21</text><polygon points="1038,118 1050,135 1050,177 1038,160" fill="#a9adb2" stroke="#2a2a2a" stroke-width="2" opacity="1.0"/><polygon points="954,160 1038,160 1050,177 966,177" fill="#8c8f94" stroke="#2a2a2a" stroke-width="2" opacity="1.0"/><rect x="954" y="118" width="84" height="42" fill="#cfd3da" stroke="#2a2a2a" stroke-width="2" rx="4" ry="4" opacity="1.0"/><circle cx="1060" cy="179" r="12" fill="#ffffff" stroke="#2a2a2a" stroke-width="2"/><text x="1060" y="184" font-family="Arial, sans-serif" font-size="12" font-weight="700" fill="#111" text-anchor="middle">22</text><rect x="978" y="170" width="36" height="8" fill="#cfd3da" stroke="#2a2a2a" stroke-width="2" rx="2" ry="2" opacity="1.0"/><circle cx="1022" cy="186" r="12" fill="#ffffff" stroke="#2a2a2a" stroke-width="2"/><text x="1022" y="191" font-family="Arial, sans-serif" font-size="12" font-weight="700" fill="#111" text-anchor="middle">23</text><rect x="942" y="176" width="76" height="24" fill="#fffaf2" stroke="#2a2a2a" stroke-width="2" rx="3" ry="3" opacity="1.0"/><circle cx="1026" cy="208" r="12" fill="#ffffff" stroke="#2a2a2a" stroke-width="2"/><text x="1026" y="213" font-family="Arial, sans-serif" font-size="12" font-weight="700" fill="#111" text-anchor="middle">24</text><rect x="1060" y="182" width="56" height="38" fill="#fffaf2" stroke="#2a2a2a" stroke-width="2" rx="4" ry="4" opacity="1.0"/><circle cx="1124" cy="228" r="12" fill="#ffffff" stroke="#2a2a2a" stroke-width="2"/><text x="1124" y="233" font-family="Arial, sans-serif" font-size="12" font-weight="700" fill="#111" text-anchor="middle">25</text><polygon points="864,146 873,159 873,193 864,180" fill="#454a55" stroke="#2a2a2a" stroke-width="2" opacity="1.0"/><polygon points="856,180 864,180 873,193 865,193" fill="#393d46" stroke="#2a2a2a" stroke-width="2" opacity="1.0"/><rect x="856" y="146" width="8" height="34" fill="#555b68" stroke="#2a2a2a" stroke-width="2" rx="3" ry="3" opacity="1.0"/><circle cx="883" cy="195" r="12" fill="#ffffff" stroke="#2a2a2a" stroke-width="2"/><text x="883" y="200" font-family="Arial, sans-serif" font-size="12" font-weight="700" fill="#111" text-anchor="middle">26</text><ellipse cx="947.0" cy="250.0" rx="35.0" ry="24.0" fill="#f48ab0" stroke="#2a2a2a" stroke-width="2" opacity="1"/><polygon points="982,250.0 991,263.0 991,291.8 982,278.8" fill="#c87190" stroke="#2a2a2a" stroke-width="2" opacity="1.0"/><polygon points="912,274 982,274 991,287 921,287" fill="#a55d77" stroke="#2a2a2a" stroke-width="2" opacity="1.0"/><circle cx="1001" cy="289" r="12" fill="#ffffff" stroke="#2a2a2a" stroke-width="2"/><text x="1001" y="294" font-family="Arial, sans-serif" font-size="12" font-weight="700" fill="#111" text-anchor="middle">27</text><polygon points="952,274 960,284 960,320 952,310" fill="#454a55" stroke="#2a2a2a" stroke-width="2" opacity="1.0"/><polygon points="944,310 952,310 960,320 952,320" fill="#393d46" stroke="#2a2a2a" stroke-width="2" opacity="1.0"/><rect x="944" y="274" width="8" height="36" fill="#555b68" stroke="#2a2a2a" stroke-width="2" rx="0" ry="0" opacity="1.0"/><polygon points="1174,348 1208,394 1208,504 1174,458" fill="#a1713f" stroke="#2a2a2a" stroke-width="2" opacity="1.0"/><polygon points="1154,458 1174,458 1208,504 1188,504" fill="#855e35" stroke="#2a2a2a" stroke-width="2" opacity="1.0"/><rect x="1154" y="348" width="20" height="110" fill="#c58b4e" stroke="#2a2a2a" stroke-width="2" rx="4" ry="4" opacity="1.0"/><circle cx="1218" cy="506" r="12" fill="#ffffff" stroke="#2a2a2a" stroke-width="2"/><text x="1218" y="511" font-family="Arial, sans-serif" font-size="12" font-weight="700" fill="#111" text-anchor="middle">37</text><polygon points="1244,350 1252,356 1252,446 1244,440" fill="#d1cdc6" stroke="#2a2a2a" stroke-width="2" opacity="1.0"/><polygon points="1184,440 1244,440 1252,446 1192,446" fill="#adaaa4" stroke="#2a2a2a" stroke-width="2" opacity="1.0"/><rect x="1184" y="350" width="60" height="90" fill="#fffaf2" stroke="#2a2a2a" stroke-width="2" rx="3" ry="3" opacity="1.0"/><circle cx="1262" cy="448" r="12" fill="#ffffff" stroke="#2a2a2a" stroke-width="2"/><text x="1262" y="453" font-family="Arial, sans-serif" font-size="12" font-weight="700" fill="#111" text-anchor="middle">38</text><rect x="1082" y="94" width="18" height="18" fill="#fff0a6" stroke="#2a2a2a" stroke-width="2" rx="9" ry="9" opacity="1.0"/><circle cx="1108" cy="120" r="12" fill="#ffffff" stroke="#2a2a2a" stroke-width="2"/><text x="1108" y="125" font-family="Arial, sans-serif" font-size="12" font-weight="700" fill="#111" text-anchor="middle">39</text><rect x="1200" y="236" width="36" height="78" fill="#fffaf2" stroke="#2a2a2a" stroke-width="2" rx="3" ry="3" opacity="1.0"/><circle cx="1244" cy="322" r="12" fill="#ffffff" stroke="#2a2a2a" stroke-width="2"/><text x="1244" y="327" font-family="Arial, sans-serif" font-size="12" font-weight="700" fill="#111" text-anchor="middle">40</text><rect x="1064" y="432" width="102" height="76" fill="#fffaf2" stroke="#2a2a2a" stroke-width="2" rx="3" ry="3" opacity="1.0"/><circle cx="1174" cy="516" r="12" fill="#ffffff" stroke="#2a2a2a" stroke-width="2"/><text x="1174" y="521" font-family="Arial, sans-serif" font-size="12" font-weight="700" fill="#111" text-anchor="middle">41</text><rect x="1060" y="424" width="110" height="12" fill="#d9a66a" stroke="#2a2a2a" stroke-width="2" rx="3" ry="3" opacity="1.0"/><circle cx="1178" cy="444" r="12" fill="#ffffff" stroke="#2a2a2a" stroke-width="2"/><text x="1178" y="449" font-family="Arial, sans-serif" font-size="12" font-weight="700" fill="#111" text-anchor="middle">42</text><polygon points="290,700 313,732 313,832 290,800" fill="#75b19e" stroke="#2a2a2a" stroke-width="2" opacity="1.0"/><polygon points="130,800 290,800 313,832 153,832" fill="#619283" stroke="#2a2a2a" stroke-width="2" opacity="1.0"/><rect x="130" y="700" width="160" height="100" fill="#8fd8c1" stroke="#2a2a2a" stroke-width="2" rx="14" ry="14" opacity="1.0"/><rect x="140" y="710" width="140" height="80" fill="#69c3a9" stroke="#2a2a2a" stroke-width="2" rx="10" ry="10" opacity="1.0"/><rect x="224" y="722" width="20" height="20" fill="#6eba63" stroke="#2a2a2a" stroke-width="2" rx="0" ry="0" opacity="1.0"/><circle cx="323" cy="834" r="12" fill="#ffffff" stroke="#2a2a2a" stroke-width="2"/><text x="323" y="839" font-family="Arial, sans-serif" font-size="12" font-weight="700" fill="#111" text-anchor="middle">28</text><polygon points="250,850 281,892 281,992 250,950" fill="#d1adba" stroke="#2a2a2a" stroke-width="2" opacity="1.0"/><polygon points="130,950 250,950 281,992 161,992" fill="#ad909b" stroke="#2a2a2a" stroke-width="2" opacity="1.0"/><rect x="130" y="850" width="120" height="100" fill="#ffd4e4" stroke="#2a2a2a" stroke-width="2" rx="4" ry="4" opacity="1.0"/><line x1="142" y1="868" x2="238" y2="868" stroke="#d46d97" stroke-width="3"/><line x1="190.0" y1="862" x2="190.0" y2="938" stroke="#d46d97" stroke-width="3"/><rect x="180.4" y="892.0" width="30" height="36" fill="#f48ab0" stroke="#2a2a2a" stroke-width="2" rx="4" ry="4" opacity="1.0"/><circle cx="291" cy="994" r="12" fill="#ffffff" stroke="#2a2a2a" stroke-width="2"/><text x="291" y="999" font-family="Arial, sans-serif" font-size="12" font-weight="700" fill="#111" text-anchor="middle">29</text><ellipse cx="510.0" cy="825.0" rx="90.0" ry="55.0" fill="#d9a66a" stroke="#2a2a2a" stroke-width="2" opacity="1"/><polygon points="600,825.0 614,846.0 614,912.0 600,891.0" fill="#b18856" stroke="#2a2a2a" stroke-width="2" opacity="1.0"/><polygon points="420,880 600,880 614,901 434,901" fill="#937048" stroke="#2a2a2a" stroke-width="2" opacity="1.0"/><circle cx="624" cy="903" r="12" fill="#ffffff" stroke="#2a2a2a" stroke-width="2"/><text x="624" y="908" font-family="Arial, sans-serif" font-size="12" font-weight="700" fill="#111" text-anchor="middle">30</text><polygon points="492,786 500,794 500,812 492,804" fill="#c87190" stroke="#2a2a2a" stroke-width="2" opacity="1.0"/><polygon points="468,804 492,804 500,812 476,812" fill="#a55d77" stroke="#2a2a2a" stroke-width="2" opacity="1.0"/><rect x="468" y="786" width="24" height="18" fill="#f48ab0" stroke="#2a2a2a" stroke-width="2" rx="8" ry="8" opacity="1.0"/><circle cx="510" cy="814" r="12" fill="#ffffff" stroke="#2a2a2a" stroke-width="2"/><text x="510" y="819" font-family="Arial, sans-serif" font-size="12" font-weight="700" fill="#111" text-anchor="middle">31</text><polygon points="536,794 544,802 544,822 536,814" fill="#9cbdd1" stroke="#2a2a2a" stroke-width="2" opacity="1.0"/><polygon points="516,814 536,814 544,822 524,822" fill="#819dad" stroke="#2a2a2a" stroke-width="2" opacity="1.0"/><rect x="516" y="794" width="20" height="20" fill="#bfe7ff" stroke="#2a2a2a" stroke-width="2" rx="4" ry="4" opacity="1.0"/><circle cx="554" cy="824" r="12" fill="#ffffff" stroke="#2a2a2a" stroke-width="2"/><text x="554" y="829" font-family="Arial, sans-serif" font-size="12" font-weight="700" fill="#111" text-anchor="middle">32</text><ellipse cx="559.0" cy="809.0" rx="9.0" ry="9.0" fill="#8fd8c1" stroke="#2a2a2a" stroke-width="2" opacity="1"/><polygon points="568,809.0 576,815.0 576,825.8 568,819.8" fill="#75b19e" stroke="#2a2a2a" stroke-width="2" opacity="1.0"/><polygon points="550,818 568,818 576,824 558,824" fill="#619283" stroke="#2a2a2a" stroke-width="2" opacity="1.0"/><circle cx="586" cy="826" r="12" fill="#ffffff" stroke="#2a2a2a" stroke-width="2"/><text x="586" y="831" font-family="Arial, sans-serif" font-size="12" font-weight="700" fill="#111" text-anchor="middle">33</text><ellipse cx="505.0" cy="907.0" rx="35.0" ry="27.0" fill="#b8a0ff" stroke="#2a2a2a" stroke-width="2" opacity="1"/><polygon points="540,907.0 551,923.0 551,955.4 540,939.4" fill="#9683d1" stroke="#2a2a2a" stroke-width="2" opacity="1.0"/><polygon points="470,934 540,934 551,950 481,950" fill="#7d6cad" stroke="#2a2a2a" stroke-width="2" opacity="1.0"/><circle cx="561" cy="952" r="12" fill="#ffffff" stroke="#2a2a2a" stroke-width="2"/><text x="561" y="957" font-family="Arial, sans-serif" font-size="12" font-weight="700" fill="#111" text-anchor="middle">34</text><ellipse cx="601.0" cy="915.0" rx="35.0" ry="27.0" fill="#8fd8c1" stroke="#2a2a2a" stroke-width="2" opacity="1"/><polygon points="636,915.0 647,931.0 647,963.4 636,947.4" fill="#75b19e" stroke="#2a2a2a" stroke-width="2" opacity="1.0"/><polygon points="566,942 636,942 647,958 577,958" fill="#619283" stroke="#2a2a2a" stroke-width="2" opacity="1.0"/><circle cx="657" cy="960" r="12" fill="#ffffff" stroke="#2a2a2a" stroke-width="2"/><text x="657" y="965" font-family="Arial, sans-serif" font-size="12" font-weight="700" fill="#111" text-anchor="middle">35</text><polygon points="1020,760 1034,779 1034,899 1020,880" fill="#c87190" stroke="#2a2a2a" stroke-width="2" opacity="1.0"/><polygon points="840,880 1020,880 1034,899 854,899" fill="#a55d77" stroke="#2a2a2a" stroke-width="2" opacity="1.0"/><rect x="840" y="760" width="180" height="120" fill="#f48ab0" stroke="#2a2a2a" stroke-width="2" rx="20" ry="20" opacity="1.0"/><ellipse cx="930.0" cy="820.0" rx="80.0" ry="52.0" fill="#ff90b8" stroke="#2a2a2a" stroke-width="2" opacity="1"/><circle cx="1044" cy="901" r="12" fill="#ffffff" stroke="#2a2a2a" stroke-width="2"/><text x="1044" y="906" font-family="Arial, sans-serif" font-size="12" font-weight="700" fill="#111" text-anchor="middle">36</text><rect x="870" y="688" width="22" height="22" fill="#fff0a6" stroke="#2a2a2a" stroke-width="2" rx="11" ry="11" opacity="1.0"/><circle cx="900" cy="718" r="12" fill="#ffffff" stroke="#2a2a2a" stroke-width="2"/><text x="900" y="723" font-family="Arial, sans-serif" font-size="12" font-weight="700" fill="#111" text-anchor="middle">39</text><ellipse cx="591.0" cy="961.0" rx="11.0" ry="11.0" fill="#bfe7ff" stroke="#2a2a2a" stroke-width="2" opacity="1"/><polygon points="602,961.0 610,967.0 610,980.2 602,974.2" fill="#9cbdd1" stroke="#2a2a2a" stroke-width="2" opacity="1.0"/><polygon points="580,972 602,972 610,978 588,978" fill="#819dad" stroke="#2a2a2a" stroke-width="2" opacity="1.0"/><circle cx="620" cy="980" r="12" fill="#ffffff" stroke="#2a2a2a" stroke-width="2"/><text x="620" y="985" font-family="Arial, sans-serif" font-size="12" font-weight="700" fill="#111" text-anchor="middle">43</text><ellipse cx="641.0" cy="975.0" rx="11.0" ry="11.0" fill="#f48ab0" stroke="#2a2a2a" stroke-width="2" opacity="1"/><polygon points="652,975.0 660,981.0 660,994.2 652,988.2" fill="#c87190" stroke="#2a2a2a" stroke-width="2" opacity="1.0"/><polygon points="630,986 652,986 660,992 638,992" fill="#a55d77" stroke="#2a2a2a" stroke-width="2" opacity="1.0"/><circle cx="670" cy="994" r="12" fill="#ffffff" stroke="#2a2a2a" stroke-width="2"/><text x="670" y="999" font-family="Arial, sans-serif" font-size="12" font-weight="700" fill="#111" text-anchor="middle">44</text><ellipse cx="616.0" cy="1011.0" rx="11.0" ry="11.0" fill="#fff0a6" stroke="#2a2a2a" stroke-width="2" opacity="1"/><polygon points="627,1011.0 635,1017.0 635,1030.2 627,1024.2" fill="#d1c488" stroke="#2a2a2a" stroke-width="2" opacity="1.0"/><polygon points="605,1022 627,1022 635,1028 613,1028" fill="#ada370" stroke="#2a2a2a" stroke-width="2" opacity="1.0"/><circle cx="645" cy="1030" r="12" fill="#ffffff" stroke="#2a2a2a" stroke-width="2"/><text x="645" y="1035" font-family="Arial, sans-serif" font-size="12" font-weight="700" fill="#111" text-anchor="middle">45</text><polygon points="564,964 572,972 572,996 564,988" fill="#5a9851" stroke="#2a2a2a" stroke-width="2" opacity="1.0"/><polygon points="540,988 564,988 572,996 548,996" fill="#4a7e43" stroke="#2a2a2a" stroke-width="2" opacity="1.0"/><rect x="540" y="964" width="24" height="24" fill="#6eba63" stroke="#2a2a2a" stroke-width="2" rx="3" ry="3" opacity="1.0"/><circle cx="582" cy="998" r="12" fill="#ffffff" stroke="#2a2a2a" stroke-width="2"/><text x="582" y="1003" font-family="Arial, sans-serif" font-size="12" font-weight="700" fill="#111" text-anchor="middle">46</text><polygon points="728,962 736,970 736,998 728,990" fill="#9683d1" stroke="#2a2a2a" stroke-width="2" opacity="1.0"/><polygon points="700,990 728,990 736,998 708,998" fill="#7d6cad" stroke="#2a2a2a" stroke-width="2" opacity="1.0"/><rect x="700" y="962" width="28" height="28" fill="#b8a0ff" stroke="#2a2a2a" stroke-width="2" rx="4" ry="4" opacity="1.0"/><circle cx="746" cy="1000" r="12" fill="#ffffff" stroke="#2a2a2a" stroke-width="2"/><text x="746" y="1005" font-family="Arial, sans-serif" font-size="12" font-weight="700" fill="#111" text-anchor="middle">47</text><polygon points="642,992 650,1001 650,1023 642,1014" fill="#d1c488" stroke="#2a2a2a" stroke-width="2" opacity="1.0"/><polygon points="620,1014 642,1014 650,1023 628,1023" fill="#ada370" stroke="#2a2a2a" stroke-width="2" opacity="1.0"/><rect x="620" y="992" width="22" height="22" fill="#fff0a6" stroke="#2a2a2a" stroke-width="2" rx="3" ry="3" opacity="1.0"/><circle cx="660" cy="1025" r="12" fill="#ffffff" stroke="#2a2a2a" stroke-width="2"/><text x="660" y="1030" font-family="Arial, sans-serif" font-size="12" font-weight="700" fill="#111" text-anchor="middle">48</text><rect x="520" y="520" width="54" height="18" fill="#fffaf2" stroke="#2a2a2a" stroke-width="2" rx="8" ry="8" opacity="1.0"/><circle cx="582" cy="546" r="12" fill="#ffffff" stroke="#2a2a2a" stroke-width="2"/><text x="582" y="551" font-family="Arial, sans-serif" font-size="12" font-weight="700" fill="#111" text-anchor="middle">49</text><polygon points="1138,915 1148,929 1148,955 1138,941" fill="#ad9161" stroke="#2a2a2a" stroke-width="2" opacity="1.0"/><polygon points="1110,941 1138,941 1148,955 1120,955" fill="#907850" stroke="#2a2a2a" stroke-width="2" opacity="1.0"/><rect x="1110" y="915" width="28" height="26" fill="#d4b177" stroke="#2a2a2a" stroke-width="2" rx="4" ry="4" opacity="1.0"/><circle cx="1158" cy="957" r="12" fill="#ffffff" stroke="#2a2a2a" stroke-width="2"/><text x="1158" y="962" font-family="Arial, sans-serif" font-size="12" font-weight="700" fill="#111" text-anchor="middle">50</text><circle cx="1124" cy="910" r="10" fill="#6eba63" stroke="#2a2a2a" stroke-width="2"/><circle cx="1142" cy="900" r="10" fill="#6eba63" stroke="#2a2a2a" stroke-width="2"/><circle cx="1116" cy="902" r="10" fill="#6eba63" stroke="#2a2a2a" stroke-width="2"/><circle cx="1134" cy="890" r="10" fill="#6eba63" stroke="#2a2a2a" stroke-width="2"/><polygon points="1122,970 1134,987 1134,1009 1122,992" fill="#ad9161" stroke="#2a2a2a" stroke-width="2" opacity="1.0"/><polygon points="1038,992 1122,992 1134,1009 1050,1009" fill="#907850" stroke="#2a2a2a" stroke-width="2" opacity="1.0"/><rect x="1038" y="970" width="84" height="22" fill="#d4b177" stroke="#2a2a2a" stroke-width="2" rx="8" ry="8" opacity="1.0"/><circle cx="1144" cy="1011" r="12" fill="#ffffff" stroke="#2a2a2a" stroke-width="2"/><text x="1144" y="1016" font-family="Arial, sans-serif" font-size="12" font-weight="700" fill="#111" text-anchor="middle">51</text><rect x="1050" y="980" width="14" height="14" fill="#b8a0ff" stroke="#2a2a2a" stroke-width="1" rx="2" ry="2" opacity="1.0"/><rect x="1066" y="980" width="14" height="14" fill="#fffaf2" stroke="#2a2a2a" stroke-width="1" rx="2" ry="2" opacity="1.0"/><rect x="1082" y="980" width="14" height="14" fill="#fff0a6" stroke="#2a2a2a" stroke-width="1" rx="2" ry="2" opacity="1.0"/><rect x="1098" y="980" width="14" height="14" fill="#bfe7ff" stroke="#2a2a2a" stroke-width="1" rx="2" ry="2" opacity="1.0"/><circle cx="710" cy="604" r="12" fill="#ffffff" stroke="#2a2a2a" stroke-width="2"/><text x="710" y="609" font-family="Arial, sans-serif" font-size="12" font-weight="700" fill="#111" text-anchor="middle">11</text><rect x="1400" y="970" width="340" height="110" fill="#f8f7f3" stroke="#2a2a2a" stroke-width="2" rx="8" ry="8" opacity="1.0"/><text x="1420" y="1000" font-family="Arial, sans-serif" font-size="16" font-weight="700" fill="#333333" text-anchor="start">Scale bar</text><rect x="1420" y="1012" width="80" height="10" fill="#111" stroke="#2a2a2a" stroke-width="1" rx="0" ry="0" opacity="1.0"/><rect x="1500" y="1012" width="80" height="10" fill="#fff" stroke="#2a2a2a" stroke-width="1" rx="0" ry="0" opacity="1.0"/><rect x="1580" y="1012" width="80" height="10" fill="#111" stroke="#2a2a2a" stroke-width="1" rx="0" ry="0" opacity="1.0"/><text x="1420" y="1046" font-family="Arial, sans-serif" font-size="13" font-weight="400" fill="#333333" text-anchor="start">0</text><text x="1498" y="1046" font-family="Arial, sans-serif" font-size="13" font-weight="400" fill="#333333" text-anchor="start">1 m</text><text x="1578" y="1046" font-family="Arial, sans-serif" font-size="13" font-weight="400" fill="#333333" text-anchor="start">2 m</text><text x="1658" y="1046" font-family="Arial, sans-serif" font-size="13" font-weight="400" fill="#333333" text-anchor="start">3 m</text><text x="1420" y="1072" font-family="Arial, sans-serif" font-size="13" font-weight="400" fill="#333333" text-anchor="start">2.5D SVG presentation redraw of the numbered plan.</text></svg>