<?xml version="1.0" encoding="UTF-8"?>
<svg xmlns="http://www.w3.org/2000/svg" width="900" height="390" viewBox="0 0 900 390">

<defs>
  <linearGradient id="blanketGrad" x1="0" y1="0" x2="1" y2="1">
    <stop offset="0%" stop-color="#ff8fbf"/>
    <stop offset="100%" stop-color="#e56fa0"/>
  </linearGradient>
  <linearGradient id="woodGrad" x1="0" y1="0" x2="1" y2="1">
    <stop offset="0%" stop-color="#f5d4bd"/>
    <stop offset="100%" stop-color="#d6a47a"/>
  </linearGradient>
</defs>


<rect x="0" y="0" width="900" height="390" fill="#fff8fb"/>
<g><line x1="40" y1="40" x2="40" y2="350" stroke="#f0d9e4" stroke-width="1" opacity="0.5"/><line x1="80" y1="40" x2="80" y2="350" stroke="#f0d9e4" stroke-width="1" opacity="0.5"/><line x1="120" y1="40" x2="120" y2="350" stroke="#f0d9e4" stroke-width="1" opacity="0.5"/><line x1="160" y1="40" x2="160" y2="350" stroke="#f0d9e4" stroke-width="1" opacity="0.5"/><line x1="200" y1="40" x2="200" y2="350" stroke="#f0d9e4" stroke-width="1" opacity="0.5"/><line x1="240" y1="40" x2="240" y2="350" stroke="#f0d9e4" stroke-width="1" opacity="0.5"/><line x1="280" y1="40" x2="280" y2="350" stroke="#f0d9e4" stroke-width="1" opacity="0.5"/><line x1="320" y1="40" x2="320" y2="350" stroke="#f0d9e4" stroke-width="1" opacity="0.5"/><line x1="360" y1="40" x2="360" y2="350" stroke="#f0d9e4" stroke-width="1" opacity="0.5"/><line x1="400" y1="40" x2="400" y2="350" stroke="#f0d9e4" stroke-width="1" opacity="0.5"/><line x1="440" y1="40" x2="440" y2="350" stroke="#f0d9e4" stroke-width="1" opacity="0.5"/><line x1="480" y1="40" x2="480" y2="350" stroke="#f0d9e4" stroke-width="1" opacity="0.5"/><line x1="520" y1="40" x2="520" y2="350" stroke="#f0d9e4" stroke-width="1" opacity="0.5"/><line x1="560" y1="40" x2="560" y2="350" stroke="#f0d9e4" stroke-width="1" opacity="0.5"/><line x1="600" y1="40" x2="600" y2="350" stroke="#f0d9e4" stroke-width="1" opacity="0.5"/><line x1="640" y1="40" x2="640" y2="350" stroke="#f0d9e4" stroke-width="1" opacity="0.5"/><line x1="680" y1="40" x2="680" y2="350" stroke="#f0d9e4" stroke-width="1" opacity="0.5"/><line x1="720" y1="40" x2="720" y2="350" stroke="#f0d9e4" stroke-width="1" opacity="0.5"/><line x1="760" y1="40" x2="760" y2="350" stroke="#f0d9e4" stroke-width="1" opacity="0.5"/><line x1="800" y1="40" x2="800" y2="350" stroke="#f0d9e4" stroke-width="1" opacity="0.5"/><line x1="840" y1="40" x2="840" y2="350" stroke="#f0d9e4" stroke-width="1" opacity="0.5"/><line x1="880" y1="40" x2="880" y2="350" stroke="#f0d9e4" stroke-width="1" opacity="0.5"/><line x1="40" y1="40" x2="860" y2="40" stroke="#f0d9e4" stroke-width="1" opacity="0.5"/><line x1="40" y1="80" x2="860" y2="80" stroke="#f0d9e4" stroke-width="1" opacity="0.5"/><line x1="40" y1="120" x2="860" y2="120" stroke="#f0d9e4" stroke-width="1" opacity="0.5"/><line x1="40" y1="160" x2="860" y2="160" stroke="#f0d9e4" stroke-width="1" opacity="0.5"/><line x1="40" y1="200" x2="860" y2="200" stroke="#f0d9e4" stroke-width="1" opacity="0.5"/><line x1="40" y1="240" x2="860" y2="240" stroke="#f0d9e4" stroke-width="1" opacity="0.5"/><line x1="40" y1="280" x2="860" y2="280" stroke="#f0d9e4" stroke-width="1" opacity="0.5"/><line x1="40" y1="320" x2="860" y2="320" stroke="#f0d9e4" stroke-width="1" opacity="0.5"/><line x1="40" y1="360" x2="860" y2="360" stroke="#f0d9e4" stroke-width="1" opacity="0.5"/></g>
<text x="450.0" y="34" font-family="Arial, sans-serif" font-size="26" font-weight="700" fill="#5c4352" text-anchor="middle">Кровать — вид сбоку / SIDE</text>


<g id="bed_side_view">
  <line x1="80" y1="285" x2="820" y2="285" stroke="#b98aa0" stroke-width="3" stroke-dasharray="10 8"/>
  <rect x="172" y="251" width="28" height="34" rx="8" fill="#d6a47a" stroke="#2f2530" stroke-width="3"/>
  <rect x="700" y="251" width="28" height="34" rx="8" fill="#d6a47a" stroke="#2f2530" stroke-width="3"/>
  <rect x="436.0" y="251" width="28" height="34" rx="8" fill="#d6a47a" stroke="#2f2530" stroke-width="3"/>
  <rect x="130" y="135" width="68" height="150" rx="18" fill="url(#woodGrad)" stroke="#2f2530" stroke-width="4"/>
  <rect x="712" y="180" width="58" height="105" rx="16" fill="url(#woodGrad)" stroke="#2f2530" stroke-width="4"/>
  <rect x="166" y="213" width="568" height="72" rx="18" fill="url(#woodGrad)" stroke="#2f2530" stroke-width="4"/>
  <rect x="192" y="173" width="516" height="48" rx="18" fill="#fff7fb" stroke="#2f2530" stroke-width="3"/>
  <rect x="206" y="141" width="110" height="48" rx="20" fill="#ffffff" stroke="#2f2530" stroke-width="3"/>
  <rect x="320" y="161" width="364" height="38" rx="16" fill="url(#blanketGrad)" stroke="#2f2530" stroke-width="3"/>
  <path d="M 340 183 C 450 161, 590 201, 655 179" fill="none" stroke="#ffffff" stroke-width="4" opacity="0.35"/>
</g>


<line x1="130" y1="330" x2="770" y2="330" stroke="#b98aa0" stroke-width="2"/>
<line x1="130" y1="322" x2="130" y2="338" stroke="#b98aa0" stroke-width="2"/>
<line x1="770" y1="322" x2="770" y2="338" stroke="#b98aa0" stroke-width="2"/>
<text x="450.0" y="318" font-family="Arial, sans-serif" font-size="18" fill="#5c4352" text-anchor="middle">длина 2.00 м</text>


<line x1="814" y1="109" x2="814" y2="285" stroke="#b98aa0" stroke-width="2"/>
<line x1="806" y1="109" x2="822" y2="109" stroke="#b98aa0" stroke-width="2"/>
<line x1="806" y1="285" x2="822" y2="285" stroke="#b98aa0" stroke-width="2"/>
<text x="786" y="197.0" transform="rotate(-90 786 197.0)" font-family="Arial, sans-serif" font-size="18" fill="#5c4352" text-anchor="middle">рабочая высота 0.55 м</text>

<text x="450.0" y="362" font-family="Arial, sans-serif" font-size="16" fill="#5c4352" text-anchor="middle">Вид сбоку: длинная ось 2.00 м, слои рамы, матраса, одеяла и подушки.</text>
</svg>
