<?xml version="1.0" encoding="UTF-8"?>
<svg xmlns="http://www.w3.org/2000/svg" width="560" height="390" viewBox="0 0 560 390">

<defs>
  <linearGradient id="blanketGrad" x1="0" y1="0" x2="1" y2="1">
    <stop offset="0%" stop-color="#ff8fbf"/>
    <stop offset="100%" stop-color="#e56fa0"/>
  </linearGradient>
  <linearGradient id="woodGrad" x1="0" y1="0" x2="1" y2="1">
    <stop offset="0%" stop-color="#f5d4bd"/>
    <stop offset="100%" stop-color="#d6a47a"/>
  </linearGradient>
</defs>


<rect x="0" y="0" width="560" height="390" fill="#fff8fb"/>
<g><line x1="40" y1="40" x2="40" y2="350" stroke="#f0d9e4" stroke-width="1" opacity="0.5"/><line x1="80" y1="40" x2="80" y2="350" stroke="#f0d9e4" stroke-width="1" opacity="0.5"/><line x1="120" y1="40" x2="120" y2="350" stroke="#f0d9e4" stroke-width="1" opacity="0.5"/><line x1="160" y1="40" x2="160" y2="350" stroke="#f0d9e4" stroke-width="1" opacity="0.5"/><line x1="200" y1="40" x2="200" y2="350" stroke="#f0d9e4" stroke-width="1" opacity="0.5"/><line x1="240" y1="40" x2="240" y2="350" stroke="#f0d9e4" stroke-width="1" opacity="0.5"/><line x1="280" y1="40" x2="280" y2="350" stroke="#f0d9e4" stroke-width="1" opacity="0.5"/><line x1="320" y1="40" x2="320" y2="350" stroke="#f0d9e4" stroke-width="1" opacity="0.5"/><line x1="360" y1="40" x2="360" y2="350" stroke="#f0d9e4" stroke-width="1" opacity="0.5"/><line x1="400" y1="40" x2="400" y2="350" stroke="#f0d9e4" stroke-width="1" opacity="0.5"/><line x1="440" y1="40" x2="440" y2="350" stroke="#f0d9e4" stroke-width="1" opacity="0.5"/><line x1="480" y1="40" x2="480" y2="350" stroke="#f0d9e4" stroke-width="1" opacity="0.5"/><line x1="520" y1="40" x2="520" y2="350" stroke="#f0d9e4" stroke-width="1" opacity="0.5"/><line x1="40" y1="40" x2="520" y2="40" stroke="#f0d9e4" stroke-width="1" opacity="0.5"/><line x1="40" y1="80" x2="520" y2="80" stroke="#f0d9e4" stroke-width="1" opacity="0.5"/><line x1="40" y1="120" x2="520" y2="120" stroke="#f0d9e4" stroke-width="1" opacity="0.5"/><line x1="40" y1="160" x2="520" y2="160" stroke="#f0d9e4" stroke-width="1" opacity="0.5"/><line x1="40" y1="200" x2="520" y2="200" stroke="#f0d9e4" stroke-width="1" opacity="0.5"/><line x1="40" y1="240" x2="520" y2="240" stroke="#f0d9e4" stroke-width="1" opacity="0.5"/><line x1="40" y1="280" x2="520" y2="280" stroke="#f0d9e4" stroke-width="1" opacity="0.5"/><line x1="40" y1="320" x2="520" y2="320" stroke="#f0d9e4" stroke-width="1" opacity="0.5"/><line x1="40" y1="360" x2="520" y2="360" stroke="#f0d9e4" stroke-width="1" opacity="0.5"/></g>
<text x="280.0" y="34" font-family="Arial, sans-serif" font-size="26" font-weight="700" fill="#5c4352" text-anchor="middle">Кровать — вид спереди / FRONT</text>


<g id="bed_front_view">
  <line x1="60" y1="285" x2="500" y2="285" stroke="#b98aa0" stroke-width="3" stroke-dasharray="10 8"/>
  <rect x="156" y="251" width="28" height="34" rx="8" fill="#d6a47a" stroke="#2f2530" stroke-width="3"/>
  <rect x="376" y="251" width="28" height="34" rx="8" fill="#d6a47a" stroke="#2f2530" stroke-width="3"/>
  <rect x="128" y="213" width="304" height="72" rx="18" fill="url(#woodGrad)" stroke="#2f2530" stroke-width="4"/>
  <rect x="150" y="172" width="260" height="48" rx="18" fill="#fff7fb" stroke="#2f2530" stroke-width="3"/>
  <rect x="162" y="149" width="236" height="54" rx="20" fill="url(#blanketGrad)" stroke="#2f2530" stroke-width="3"/>
  <path d="M 180 170 C 228 151, 293 193, 380 170" fill="none" stroke="#ffffff" stroke-width="4" opacity="0.35"/>
  <line x1="280.0" y1="159" x2="280.0" y2="235" stroke="#e56fa0" stroke-width="3" opacity="0.45"/>
  <line x1="152" y1="231" x2="408" y2="231" stroke="#fff1c7" stroke-width="3" opacity="0.55"/>
</g>


<line x1="128" y1="330" x2="432" y2="330" stroke="#b98aa0" stroke-width="2"/>
<line x1="128" y1="322" x2="128" y2="338" stroke="#b98aa0" stroke-width="2"/>
<line x1="432" y1="322" x2="432" y2="338" stroke="#b98aa0" stroke-width="2"/>
<text x="280.0" y="318" font-family="Arial, sans-serif" font-size="18" fill="#5c4352" text-anchor="middle">глубина / торец 0.95 м</text>


<line x1="84" y1="109" x2="84" y2="285" stroke="#b98aa0" stroke-width="2"/>
<line x1="76" y1="109" x2="92" y2="109" stroke="#b98aa0" stroke-width="2"/>
<line x1="76" y1="285" x2="92" y2="285" stroke="#b98aa0" stroke-width="2"/>
<text x="56" y="197.0" transform="rotate(-90 56 197.0)" font-family="Arial, sans-serif" font-size="18" fill="#5c4352" text-anchor="middle">высота 0.55 м</text>

<text x="280.0" y="362" font-family="Arial, sans-serif" font-size="16" fill="#5c4352" text-anchor="middle">Вид спереди: короткий торец кровати, без перспективного разворота.</text>
</svg>
